<?xml version="1.0" encoding="UTF-8"?>
<svg id="_レイヤー_2" data-name="レイヤー_2" xmlns="http://www.w3.org/2000/svg" xmlns:xlink="http://www.w3.org/1999/xlink" viewBox="0 0 299 280.23">
  <defs>
    <style>
      .cls-1 {
        clip-path: url(#clippath-51);
      }

      .cls-2 {
        clip-path: url(#clippath-34);
      }

      .cls-3 {
        clip-path: url(#clippath-38);
      }

      .cls-4 {
        clip-path: url(#clippath-21);
      }

      .cls-5 {
        clip-path: url(#clippath-6);
      }

      .cls-6 {
        clip-path: url(#clippath-7);
      }

      .cls-7 {
        clip-path: url(#clippath-17);
      }

      .cls-8 {
        clip-path: url(#clippath-31);
      }

      .cls-9 {
        clip-path: url(#clippath-15);
      }

      .cls-10 {
        clip-path: url(#clippath-33);
      }

      .cls-11 {
        clip-path: url(#clippath-61);
      }

      .cls-12 {
        clip-path: url(#clippath-18);
      }

      .cls-13 {
        clip-path: url(#clippath-47);
      }

      .cls-14 {
        stroke: #fff;
      }

      .cls-14, .cls-15, .cls-16, .cls-17, .cls-18, .cls-19 {
        fill: none;
      }

      .cls-14, .cls-16, .cls-17, .cls-19 {
        stroke-width: .4px;
      }

      .cls-14, .cls-17, .cls-18 {
        stroke-linecap: round;
        stroke-linejoin: round;
      }

      .cls-20 {
        clip-path: url(#clippath-4);
      }

      .cls-21 {
        clip-path: url(#clippath-22);
      }

      .cls-22 {
        clip-path: url(#clippath-23);
      }

      .cls-23 {
        clip-path: url(#clippath-54);
      }

      .cls-24 {
        clip-path: url(#clippath-9);
      }

      .cls-25 {
        clip-path: url(#clippath-10);
      }

      .cls-26 {
        clip-path: url(#clippath-42);
      }

      .cls-27 {
        clip-path: url(#clippath-59);
      }

      .cls-28 {
        fill: #fff;
      }

      .cls-29 {
        clip-path: url(#clippath-43);
      }

      .cls-30 {
        clip-path: url(#clippath-64);
      }

      .cls-31 {
        clip-path: url(#clippath-25);
      }

      .cls-32 {
        clip-path: url(#clippath-27);
      }

      .cls-33 {
        clip-path: url(#clippath-60);
      }

      .cls-34 {
        clip-path: url(#clippath-11);
      }

      .cls-35 {
        clip-path: url(#clippath-57);
      }

      .cls-36 {
        clip-path: url(#clippath-36);
      }

      .cls-37 {
        clip-path: url(#clippath-35);
      }

      .cls-38 {
        clip-path: url(#clippath-48);
      }

      .cls-39 {
        clip-path: url(#clippath-28);
      }

      .cls-40 {
        clip-path: url(#clippath-1);
      }

      .cls-41 {
        clip-path: url(#clippath-56);
      }

      .cls-42 {
        clip-path: url(#clippath-45);
      }

      .cls-43 {
        clip-path: url(#clippath-46);
      }

      .cls-44 {
        clip-path: url(#clippath-40);
      }

      .cls-45 {
        clip-path: url(#clippath-5);
      }

      .cls-46 {
        clip-path: url(#clippath-20);
      }

      .cls-47 {
        clip-path: url(#clippath-8);
      }

      .cls-48 {
        clip-path: url(#clippath-52);
      }

      .cls-49 {
        clip-path: url(#clippath-41);
      }

      .cls-50 {
        clip-path: url(#clippath-3);
      }

      .cls-51 {
        fill: #231815;
      }

      .cls-52 {
        clip-path: url(#clippath-26);
      }

      .cls-53 {
        clip-path: url(#clippath-12);
      }

      .cls-54 {
        clip-path: url(#clippath-50);
      }

      .cls-55 {
        clip-path: url(#clippath-14);
      }

      .cls-56 {
        clip-path: url(#clippath-30);
      }

      .cls-57 {
        clip-path: url(#clippath-19);
      }

      .cls-58 {
        clip-path: url(#clippath-32);
      }

      .cls-59 {
        clip-path: url(#clippath-55);
      }

      .cls-16 {
        stroke-miterlimit: 2;
      }

      .cls-16, .cls-17, .cls-19 {
        stroke: #231815;
      }

      .cls-60 {
        clip-path: url(#clippath-53);
      }

      .cls-61 {
        clip-path: url(#clippath-39);
      }

      .cls-62 {
        clip-path: url(#clippath-16);
      }

      .cls-63 {
        clip-path: url(#clippath-2);
      }

      .cls-64 {
        clip-path: url(#clippath-29);
      }

      .cls-65 {
        clip-path: url(#clippath-49);
      }

      .cls-66 {
        clip-path: url(#clippath-37);
      }

      .cls-67 {
        clip-path: url(#clippath-58);
      }

      .cls-18 {
        stroke: #e71f19;
        stroke-width: 2px;
      }

      .cls-68 {
        clip-path: url(#clippath-13);
      }

      .cls-69 {
        clip-path: url(#clippath-63);
      }

      .cls-70 {
        clip-path: url(#clippath-24);
      }

      .cls-71 {
        clip-path: url(#clippath);
      }

      .cls-19 {
        stroke-miterlimit: 10;
      }

      .cls-72 {
        clip-path: url(#clippath-65);
      }

      .cls-73 {
        clip-path: url(#clippath-44);
      }

      .cls-74 {
        clip-path: url(#clippath-62);
      }
    </style>
    <clipPath id="clippath">
      <rect class="cls-15" width="299" height="280.23"/>
    </clipPath>
    <clipPath id="clippath-1">
      <rect class="cls-15" width="299" height="280.23"/>
    </clipPath>
    <clipPath id="clippath-2">
      <rect class="cls-15" width="299" height="280.23"/>
    </clipPath>
    <clipPath id="clippath-3">
      <rect class="cls-15" width="299" height="280.23"/>
    </clipPath>
    <clipPath id="clippath-4">
      <rect class="cls-15" width="299" height="280.23"/>
    </clipPath>
    <clipPath id="clippath-5">
      <rect class="cls-15" width="299" height="280.23"/>
    </clipPath>
    <clipPath id="clippath-6">
      <rect class="cls-15" width="299" height="280.23"/>
    </clipPath>
    <clipPath id="clippath-7">
      <rect class="cls-15" width="299" height="280.23"/>
    </clipPath>
    <clipPath id="clippath-8">
      <rect class="cls-15" width="299" height="280.23"/>
    </clipPath>
    <clipPath id="clippath-9">
      <rect class="cls-15" width="299" height="280.23"/>
    </clipPath>
    <clipPath id="clippath-10">
      <rect class="cls-15" width="299" height="280.23"/>
    </clipPath>
    <clipPath id="clippath-11">
      <rect class="cls-15" width="299" height="280.23"/>
    </clipPath>
    <clipPath id="clippath-12">
      <rect class="cls-15" width="299" height="280.23"/>
    </clipPath>
    <clipPath id="clippath-13">
      <rect class="cls-15" width="299" height="280.23"/>
    </clipPath>
    <clipPath id="clippath-14">
      <rect class="cls-15" width="299" height="280.23"/>
    </clipPath>
    <clipPath id="clippath-15">
      <rect class="cls-15" width="299" height="280.23"/>
    </clipPath>
    <clipPath id="clippath-16">
      <rect class="cls-15" width="299" height="280.23"/>
    </clipPath>
    <clipPath id="clippath-17">
      <rect class="cls-15" width="299" height="280.23"/>
    </clipPath>
    <clipPath id="clippath-18">
      <rect class="cls-15" width="299" height="280.23"/>
    </clipPath>
    <clipPath id="clippath-19">
      <rect class="cls-15" width="299" height="280.23"/>
    </clipPath>
    <clipPath id="clippath-20">
      <rect class="cls-15" width="299" height="280.23"/>
    </clipPath>
    <clipPath id="clippath-21">
      <rect class="cls-15" width="299" height="280.23"/>
    </clipPath>
    <clipPath id="clippath-22">
      <rect class="cls-15" width="299" height="280.23"/>
    </clipPath>
    <clipPath id="clippath-23">
      <rect class="cls-15" width="299" height="280.23"/>
    </clipPath>
    <clipPath id="clippath-24">
      <rect class="cls-15" width="299" height="280.23"/>
    </clipPath>
    <clipPath id="clippath-25">
      <rect class="cls-15" width="299" height="280.23"/>
    </clipPath>
    <clipPath id="clippath-26">
      <rect class="cls-15" width="299" height="280.23"/>
    </clipPath>
    <clipPath id="clippath-27">
      <rect class="cls-15" width="299" height="280.23"/>
    </clipPath>
    <clipPath id="clippath-28">
      <rect class="cls-15" width="299" height="280.23"/>
    </clipPath>
    <clipPath id="clippath-29">
      <rect class="cls-15" width="299" height="280.23"/>
    </clipPath>
    <clipPath id="clippath-30">
      <rect class="cls-15" width="299" height="280.23"/>
    </clipPath>
    <clipPath id="clippath-31">
      <rect class="cls-15" width="299" height="280.23"/>
    </clipPath>
    <clipPath id="clippath-32">
      <rect class="cls-15" width="299" height="280.23"/>
    </clipPath>
    <clipPath id="clippath-33">
      <rect class="cls-15" width="299" height="280.23"/>
    </clipPath>
    <clipPath id="clippath-34">
      <rect class="cls-15" width="299" height="280.23"/>
    </clipPath>
    <clipPath id="clippath-35">
      <rect class="cls-15" width="299" height="280.23"/>
    </clipPath>
    <clipPath id="clippath-36">
      <rect class="cls-15" width="299" height="280.23"/>
    </clipPath>
    <clipPath id="clippath-37">
      <rect class="cls-15" width="299" height="280.23"/>
    </clipPath>
    <clipPath id="clippath-38">
      <rect class="cls-15" width="299" height="280.23"/>
    </clipPath>
    <clipPath id="clippath-39">
      <rect class="cls-15" width="299" height="280.23"/>
    </clipPath>
    <clipPath id="clippath-40">
      <rect class="cls-15" width="299" height="280.23"/>
    </clipPath>
    <clipPath id="clippath-41">
      <rect class="cls-15" width="299" height="280.23"/>
    </clipPath>
    <clipPath id="clippath-42">
      <rect class="cls-15" width="299" height="280.23"/>
    </clipPath>
    <clipPath id="clippath-43">
      <rect class="cls-15" width="299" height="280.23"/>
    </clipPath>
    <clipPath id="clippath-44">
      <rect class="cls-15" width="299" height="280.23"/>
    </clipPath>
    <clipPath id="clippath-45">
      <rect class="cls-15" width="299" height="280.23"/>
    </clipPath>
    <clipPath id="clippath-46">
      <rect class="cls-15" width="299" height="280.23"/>
    </clipPath>
    <clipPath id="clippath-47">
      <rect class="cls-15" width="299" height="280.23"/>
    </clipPath>
    <clipPath id="clippath-48">
      <rect class="cls-15" width="299" height="280.23"/>
    </clipPath>
    <clipPath id="clippath-49">
      <rect class="cls-15" width="299" height="280.23"/>
    </clipPath>
    <clipPath id="clippath-50">
      <rect class="cls-15" width="299" height="280.23"/>
    </clipPath>
    <clipPath id="clippath-51">
      <rect class="cls-15" width="299" height="280.23"/>
    </clipPath>
    <clipPath id="clippath-52">
      <rect class="cls-15" width="299" height="280.23"/>
    </clipPath>
    <clipPath id="clippath-53">
      <rect class="cls-15" width="299" height="280.23"/>
    </clipPath>
    <clipPath id="clippath-54">
      <rect class="cls-15" width="299" height="280.23"/>
    </clipPath>
    <clipPath id="clippath-55">
      <rect class="cls-15" width="299" height="280.23"/>
    </clipPath>
    <clipPath id="clippath-56">
      <rect class="cls-15" width="299" height="280.23"/>
    </clipPath>
    <clipPath id="clippath-57">
      <rect class="cls-15" width="299" height="280.23"/>
    </clipPath>
    <clipPath id="clippath-58">
      <rect class="cls-15" width="299" height="280.23"/>
    </clipPath>
    <clipPath id="clippath-59">
      <rect class="cls-15" width="299" height="280.23"/>
    </clipPath>
    <clipPath id="clippath-60">
      <rect class="cls-15" width="299" height="280.23"/>
    </clipPath>
    <clipPath id="clippath-61">
      <rect class="cls-15" width="299" height="280.23"/>
    </clipPath>
    <clipPath id="clippath-62">
      <rect class="cls-15" width="299" height="280.23"/>
    </clipPath>
    <clipPath id="clippath-63">
      <rect class="cls-15" width="299" height="280.23"/>
    </clipPath>
    <clipPath id="clippath-64">
      <rect class="cls-15" width="299" height="280.23"/>
    </clipPath>
    <clipPath id="clippath-65">
      <rect class="cls-15" width="299" height="280.23"/>
    </clipPath>
  </defs>
  <g id="_レイヤー_1-2" data-name="レイヤー_1">
    <polyline class="cls-17" points="80.64 182.59 80.64 182.55 80.76 141.45 80.76 141.31"/>
    <g class="cls-71">
      <g>
        <path class="cls-17" d="M71.97,154.63c.21.12.29.36.33.57"/>
        <path class="cls-17" d="M41.69,145.58c.21.12.29.36.29.57"/>
      </g>
    </g>
    <line class="cls-17" x1="75.17" y1="142.46" x2="75.05" y2="183.57"/>
    <g class="cls-40">
      <path class="cls-17" d="M30.59,120.11c14.3,7.02,28.77,13.78,43.31,20.3"/>
    </g>
    <polyline class="cls-17" points="86.68 152.89 86.37 153.01 86.34 160.84"/>
    <polyline class="cls-17" points="86.37 153.01 85.05 152.7 83.86 153.2 81.3 154.42"/>
    <line class="cls-17" x1="48.97" y1="123.23" x2="47.78" y2="123.76"/>
    <g class="cls-63">
      <g>
        <path class="cls-17" d="M45.58,142.41h.12c8.74,4.15,17.5,8.21,26.29,12.15.21.14.33.38.36.62l-.05,13.18s-.02.17-.1.26"/>
        <path class="cls-17" d="M75.05,183.57c-.02.33-.12.72-.38.91-.24.17-.55.14-.86.02v.1"/>
        <path class="cls-17" d="M74.55,139.4c-.36.21-.57.6-.62,1,.76.38,1.17,1.24,1.24,2.05.24.1.48.12.72.12"/>
        <path class="cls-17" d="M80.76,141.45c-.84.24-1.65.45-2.48.64-.74.14-1.46.33-2.17.43"/>
        <path class="cls-17" d="M74.19,163.66c.33-.1.53-.41.5-.76"/>
        <path class="cls-17" d="M32.57,118.53l-1.36.57c-.36.21-.6.6-.62,1-.5-.21-1.03.21-1.1.74"/>
      </g>
    </g>
    <line class="cls-17" x1="75.31" y1="185.17" x2="75.55" y2="184.98"/>
    <line class="cls-17" x1="33.45" y1="118.41" x2="37.85" y2="116.55"/>
    <g class="cls-50">
      <g>
        <path class="cls-17" d="M73.35,161.3c.14-.05.33-.02.5.02.53.29.79.91.84,1.5-.36.14-.76.12-1.15,0,0,.1-.02.17-.1.24-.05.07-.14.02-.21,0-.1-.02-.19-.1-.21-.17-.05-.1-.1-.21-.1-.33,0-.1,0-.17.1-.24.05-.02.14-.02.21,0,.1.02.17.1.21.17.05.1.1.21.1.33"/>
        <path class="cls-17" d="M73.85,161.32s-.24-.1-.38-.05"/>
        <path class="cls-17" d="M34.31,142h.12c2.41,1.22,4.87,2.39,7.28,3.53.21.14.33.38.33.62v3.18s-.02.17-.1.26"/>
        <path class="cls-17" d="M72.68,162.32s.14.21.26.24"/>
        <path class="cls-17" d="M74.55,139.4c.86-.14,1.67-.29,2.53-.5.72-.17,1.46-.36,2.15-.55"/>
      </g>
    </g>
    <line class="cls-17" x1="85.01" y1="160.58" x2="85.05" y2="152.7"/>
    <g class="cls-20">
      <g>
        <path class="cls-17" d="M73.21,161.39l.14-.1c-.41.17-.64.6-.67,1.03.02.76.76,1.5,1.5,1.34h-.05"/>
        <path class="cls-17" d="M34.03,145.46h0c.02.26.14.5.33.64,2.46,1.17,4.87,2.36,7.33,3.53h.12s.1,0,.14-.02"/>
        <path class="cls-17" d="M45.27,155.92h0c.02.26.14.48.33.62,8.74,4.13,17.5,8.21,26.31,12.15h.12s.12,0,.14-.02"/>
        <path class="cls-17" d="M45.32,142.69s.02-.14.1-.21c.02-.05.12-.1.17-.1-.14.05-.21.17-.24.33v13.2"/>
        <path class="cls-17" d="M73.19,161.42s.17-.14.29-.14c-.05,0-.12.02-.14.02"/>
      </g>
    </g>
    <polyline class="cls-17" points="75.72 136.8 75.72 136.56 32.78 118.43"/>
    <g class="cls-45">
      <g>
        <path class="cls-17" d="M34.07,145.51c.02.24.14.45.33.6"/>
        <path class="cls-17" d="M45.32,155.92c.02.24.14.45.33.6"/>
        <path class="cls-17" d="M75.6,136.8l3.63,1.53c.96.48,1.55,1.43,1.84,2.48l.26,8.74-.1,24.4-.29,9c-.14.48-.48.96-.98,1.1-1.77.5-3.13.76-4.92,1.17-.29.02-.6-.02-.86-.14l-.21-.1c-14.57-6.47-29.01-13.25-43.31-20.3-.93-.53-1.41-1.67-1.48-2.77l.12-41.07c.02-.62.29-1.17.72-1.65l.26-.14,1.5-.62c.24-.1.5-.12.72-.07"/>
        <path class="cls-17" d="M48.95,124.98v-1.74l-11.1-6.66c-.33-.12-.67-.14-1-.02l-4.37,1.84"/>
        <path class="cls-17" d="M72.97,162.23c.02.14.05.29.1.41"/>
        <path class="cls-17" d="M81.3,153.34l4.37-1.48c.21-.1.43-.07.67,0l.14.07.17.93v7.86l-.33.12-1.34-.26-1.17.53-2.53,1.27"/>
        <path class="cls-17" d="M71.97,168.67s.17,0,.24-.02"/>
        <path class="cls-17" d="M41.71,149.64s.17,0,.24-.02"/>
      </g>
    </g>
    <polyline class="cls-17" points="47.78 123.64 47.78 123.76 48.69 125.14"/>
    <line class="cls-17" x1="34.07" y1="145.46" x2="34.12" y2="142.29"/>
    <line class="cls-17" x1="84.93" y1="253.06" x2="84.96" y2="245.99"/>
    <g class="cls-5">
      <g>
        <path class="cls-17" d="M77.34,276.58c.62.17,1.1-.64,1.12-1.29"/>
        <path class="cls-17" d="M77.51,231.47c-.14.1-.26.26-.33.41"/>
        <path class="cls-17" d="M78.87,234.55c.14,0,.29-.02.41-.05"/>
        <path class="cls-17" d="M30.66,212.25v.17c-.72-.24-1.41.38-1.46,1.1"/>
        <path class="cls-17" d="M30.87,211.94s-.14.21-.21.33"/>
      </g>
    </g>
    <line class="cls-17" x1="85.94" y1="245.32" x2="86.22" y2="245.23"/>
    <g class="cls-6">
      <g>
        <path class="cls-17" d="M29.08,254.3v.14c.02.98.53,1.98,1.41,2.41l.29.12"/>
        <path class="cls-17" d="M30.64,212.44l46.54,19.65c.88.43,1.38,1.41,1.41,2.41l-.12,40.78"/>
      </g>
    </g>
    <line class="cls-17" x1="86.22" y1="244.53" x2="86.68" y2="244.75"/>
    <line class="cls-17" x1="85.72" y1="253.2" x2="85.75" y2="245.66"/>
    <line class="cls-17" x1="77.51" y1="231.47" x2="84.48" y2="228.49"/>
    <line class="cls-17" x1="79.3" y1="234.51" x2="86.25" y2="231.5"/>
    <line class="cls-17" x1="81.26" y1="260.89" x2="86.2" y2="258.89"/>
    <g class="cls-47">
      <g>
        <path class="cls-17" d="M81.26,258.84l2.77-1.12c.24-.1.5-.05.72.02l1.1.53c.21.12.33.36.36.6l-.07,13.73c-.02.6-.24,1.27-.76,1.58l-6.97,2.67-.29.1c-.29,0-.6,0-.86-.12l-46.54-19.63c-1.1-.5-1.77-1.72-1.77-2.89l.12-40.78c0-.6.21-1.17.64-1.58l.26-.17,6.76-3.08c.29-.1.64-.1.98.02l46.78,19.75c1.12.53,1.74,1.77,1.77,3.01v13.73c-.02.12-.12.26-.24.33l-4.73,1.91"/>
        <path class="cls-17" d="M81.3,254.68l3.63-1.62.79.14c.14.02.33,0,.48-.1l.45-.76s.05-.14.05-.24v-7.4l-.24-.1"/>
      </g>
    </g>
    <line class="cls-17" x1="81.26" y1="260.89" x2="81.3" y2="247.23"/>
    <line class="cls-16" x1="42.79" y1="226.1" x2="43.31" y2="226.91"/>
    <line class="cls-16" x1="44.41" y1="228.68" x2="43.91" y2="227.87"/>
    <line class="cls-16" x1="45.01" y1="229.63" x2="46.37" y2="231.78"/>
    <line class="cls-16" x1="41.69" y1="224.36" x2="42.19" y2="225.17"/>
    <line class="cls-16" x1="50.55" y1="228.77" x2="51.05" y2="228.42"/>
    <line class="cls-16" x1="49.45" y1="229.59" x2="49.95" y2="229.2"/>
    <line class="cls-16" x1="46.37" y1="231.78" x2="47.73" y2="230.8"/>
    <line class="cls-16" x1="48.83" y1="230.02" x2="48.33" y2="230.37"/>
    <polyline class="cls-16" points="51.05 228.42 50.81 228.06 50.57 227.7 50.31 227.37 50.26 227.29 50 226.96 49.71 226.65 49.45 226.34 49.16 226.05 48.85 225.79 48.57 225.53 48.26 225.29 47.95 225.05 47.64 224.84 47.33 224.64 47.02 224.45 46.71 224.29 46.37 224.14 46.04 224.02 45.73 223.9 45.42 223.81 45.11 223.74 44.8 223.69 44.48 223.64 44.17 223.62 43.89 223.62 43.58 223.64 43.29 223.69 43.03 223.74 42.74 223.83 42.48 223.93 42.43 223.95 42.17 224.07 41.93 224.19 41.69 224.36"/>
    <polyline class="cls-16" points="42.19 225.17 42.41 225 42.65 224.88 42.88 224.79 43.08 224.72 43.34 224.62 43.6 224.57 43.89 224.52 44.15 224.5 44.44 224.5 44.72 224.52 45.01 224.57 45.32 224.62 45.61 224.72 45.77 224.74 46.06 224.86 46.37 224.98 46.68 225.12 46.99 225.29 47.14 225.36 47.42 225.55 47.73 225.74 48.02 225.96 48.31 226.2 48.59 226.43 48.88 226.7 49.14 226.96 49.4 227.27 49.67 227.56 49.86 227.8 50.1 228.11 50.33 228.44 50.55 228.77"/>
    <polyline class="cls-16" points="49.95 229.2 49.74 228.89 49.52 228.61 49.31 228.3 49.26 228.25 49.02 227.96 48.78 227.7 48.52 227.44 48.28 227.2 48.02 226.98 47.76 226.77 47.47 226.58 47.21 226.39 46.92 226.22 46.66 226.08 46.37 225.96 46.08 225.84 45.82 225.74 45.54 225.67 45.27 225.62 44.99 225.58 44.72 225.55 44.46 225.55 44.22 225.58 43.96 225.62 43.72 225.67 43.48 225.74 43.43 225.77 43.22 225.86 43 225.98 42.79 226.1"/>
    <polyline class="cls-16" points="43.31 226.91 43.48 226.79 43.7 226.7 43.84 226.63 44.05 226.55 44.27 226.51 44.51 226.46 44.75 226.43 44.99 226.43 45.22 226.46 45.49 226.51 45.75 226.55 45.99 226.65 46.11 226.67 46.37 226.79 46.63 226.91 46.9 227.06 46.99 227.1 47.25 227.27 47.52 227.46 47.76 227.65 47.99 227.87 48.23 228.08 48.47 228.32 48.69 228.56 48.9 228.82 49.05 229.01 49.26 229.3 49.45 229.59"/>
    <polyline class="cls-16" points="47.73 230.8 47.61 230.64 47.47 230.45 47.33 230.28 47.21 230.16 47.04 230.02 46.87 229.87 46.71 229.75 46.54 229.66 46.37 229.56 46.2 229.52 46.04 229.47 45.87 229.44 45.7 229.42 45.54 229.44 45.42 229.44 45.27 229.49 45.13 229.56 45.01 229.63"/>
    <polyline class="cls-16" points="43.91 227.87 44.08 227.75 44.25 227.68 44.44 227.6 44.65 227.53 44.84 227.51 45.06 227.49 45.27 227.49 45.49 227.51 45.73 227.56 45.97 227.6 46.13 227.68 46.37 227.77 46.61 227.87 46.78 227.96 47.02 228.11 47.25 228.27 47.47 228.44 47.68 228.63 47.9 228.82 48.11 229.04 48.31 229.28 48.5 229.52 48.66 229.75 48.83 230.02"/>
    <polyline class="cls-16" points="48.33 230.37 48.19 230.16 48.02 229.94 47.85 229.73 47.66 229.54 47.59 229.44 47.37 229.25 47.18 229.09 46.97 228.94 46.78 228.8 46.56 228.68 46.37 228.58 46.18 228.51 45.97 228.44 45.77 228.42 45.56 228.39 45.37 228.37 45.18 228.39 45.08 228.39 44.89 228.44 44.72 228.51 44.56 228.58 44.41 228.68"/>
    <g class="cls-24">
      <g>
        <path class="cls-16" d="M62.51,233.12c0-1.29-.91-2.72-2.01-3.2-1.12-.48-2.01.17-2.01,1.46s.91,2.72,2.01,3.2,2.01-.17,2.01-1.46"/>
        <path class="cls-16" d="M62.51,242.62c0-1.29-.91-2.72-2.01-3.2-1.12-.48-2.01.17-2.01,1.46s.91,2.72,2.01,3.2,2.01-.17,2.01-1.46"/>
      </g>
    </g>
    <polygon class="cls-51" points="65.21 241.84 65.19 241.86 65.16 241.88 65.14 241.88 65.14 241.93 65.12 241.96 65.12 242 65.12 242.05 65.12 242.1 65.12 243.2 65.12 243.29 65.12 243.46 65.12 243.63 65.09 243.79 65.09 243.94 65.07 244.1 65.02 244.25 65 244.39 64.97 244.41 64.9 244.53 64.83 244.63 64.76 244.7 64.73 244.73 64.66 244.77 64.59 244.8 64.49 244.82 64.42 244.84 64.35 244.84 64.26 244.84 64.16 244.82 64.06 244.8 63.97 244.77 63.87 244.75 63.83 244.75 63.78 244.75 63.78 244.75 63.73 244.8 63.73 244.84 63.71 244.89 63.71 244.94 63.71 244.96 63.73 245.04 63.73 245.11 63.75 245.16 63.8 245.23 63.85 245.27 63.9 245.3 63.9 245.3 63.9 245.3 63.9 245.3 63.92 245.3 63.92 245.3 63.92 245.32 63.95 245.32 63.95 245.32 63.95 245.32 63.95 245.32 63.99 245.32 64.11 245.35 64.23 245.37 64.33 245.39 64.45 245.39 64.57 245.39 64.64 245.39 64.76 245.35 64.85 245.32 64.95 245.27 65.02 245.2 65.07 245.18 65.16 245.08 65.23 244.96 65.28 244.84 65.35 244.7 65.4 244.53 65.43 244.37 65.45 244.2 65.45 243.99 65.47 243.79 65.47 243.58 65.47 243.36 65.47 242.24 65.47 242.22 65.47 242.17 65.47 242.12 65.47 242.07 65.45 242.03 65.43 241.98 65.43 241.98 65.4 241.93 65.38 241.91 65.33 241.86 65.31 241.84 65.28 241.84 65.26 241.84 65.21 241.84"/>
    <polygon class="cls-51" points="63.47 241.17 63.44 241.19 63.42 241.19 63.4 241.26 63.37 241.31 63.37 241.33 63.37 241.43 63.37 243.32 63.37 243.32 63.37 243.41 63.4 243.51 63.42 243.56 63.44 243.6 63.47 243.65 63.52 243.7 63.54 243.7 63.59 243.72 63.63 243.72 63.66 243.7 63.68 243.67 63.71 243.63 63.73 243.56 63.73 243.56 63.73 243.46 63.73 241.57 63.73 241.57 63.73 241.48 63.71 241.38 63.68 241.31 63.66 241.29 63.63 241.24 63.59 241.19 63.54 241.17 63.52 241.17 63.47 241.17"/>
    <polygon class="cls-51" points="68.24 246.99 68.15 246.97 68.08 246.95 68 246.9 67.91 246.87 67.84 246.85 67.74 246.83 67.67 246.78 67.6 246.76 67.5 246.71 67.43 246.68 67.43 246.68 67.36 246.66 67.29 246.61 67.22 246.59 67.14 246.56 67.1 246.52 67.03 246.49 66.95 246.44 66.88 246.4 66.83 246.35 66.76 246.3 66.69 246.23 66.64 246.16 66.57 246.06 66.52 245.97 66.5 245.92 66.45 245.82 66.45 245.73 66.43 245.63 66.43 245.56 66.4 245.47 66.4 245.42 66.4 243.77 66 243.63 65.95 243.6 65.9 243.58 65.86 243.53 65.83 243.48 65.78 243.41 65.78 243.39 65.78 243.29 65.76 243.27 65.78 243.24 65.78 243.17 65.81 243.15 65.83 243.1 65.86 243.08 65.9 243.08 65.97 243.08 66.4 243.24 66.4 242.6 66.43 242.53 66.43 242.5 66.43 242.43 66.45 242.39 66.48 242.36 66.52 242.36 66.57 242.36 66.6 242.36 66.62 242.39 66.67 242.43 66.72 242.48 66.74 242.5 66.76 242.58 66.76 242.67 66.79 242.74 66.79 242.77 66.79 243.34 68 243.75 68.03 243.75 68.03 243.75 68.05 243.75 68.08 243.75 68.08 243.77 68.1 243.77 68.1 243.77 68.12 243.77 68.12 243.79 68.15 243.79 68.2 243.82 68.22 243.84 68.27 243.89 68.31 243.94 68.34 243.96 68.36 244.03 68.39 244.08 68.39 244.13 68.41 244.2 68.41 244.25 68.41 244.25 68.41 244.37 68.39 244.49 68.39 244.53 68.36 244.63 68.34 244.75 68.31 244.84 68.27 244.94 68.22 245.01 68.17 245.11 68.12 245.18 68.1 245.23 68.03 245.27 67.98 245.35 67.93 245.39 67.86 245.42 67.79 245.47 67.72 245.49 67.65 245.51 67.65 245.51 67.57 245.54 67.5 245.56 67.43 245.58 67.38 245.58 67.38 245.58 67.34 245.58 67.29 245.54 67.26 245.51 67.22 245.47 67.19 245.42 67.17 245.37 67.17 245.32 67.14 245.25 67.14 245.2 67.14 245.2 67.14 245.18 67.14 245.16 67.17 245.11 67.17 245.08 67.17 245.08 67.19 245.06 67.19 245.04 67.22 245.01 67.24 245.01 67.26 244.99 67.36 244.99 67.48 244.96 67.57 244.92 67.65 244.89 67.74 244.82 67.81 244.75 67.89 244.65 67.93 244.56 67.98 244.46 67.98 244.44 68 244.37 68 244.3 68 244.3 68 244.27 68 244.27 68 244.25 67.98 244.25 67.98 244.22 67.96 244.22 67.96 244.22 67.96 244.22 67.93 244.22 67.93 244.22 66.79 243.87 66.79 245.44 66.79 245.51 66.79 245.61 66.79 245.68 66.81 245.7 66.83 245.8 66.88 245.85 66.93 245.92 67 245.97 67.07 246.01 67.17 246.04 67.24 246.09 67.34 246.13 67.38 246.16 67.48 246.21 67.57 246.23 67.57 246.23 67.67 246.28 67.74 246.3 67.74 246.3 67.84 246.33 67.84 246.33 67.93 246.37 67.93 246.37 68.03 246.4 68.05 246.4 68.1 246.42 68.12 246.42 68.17 246.44 68.22 246.44 68.24 246.47 68.27 246.47 68.31 246.49 68.34 246.54 68.36 246.56 68.36 246.59 68.39 246.61 68.39 246.66 68.41 246.71 68.41 246.73 68.41 246.78 68.41 246.8 68.41 246.83 68.41 246.87 68.41 246.9 68.39 246.92 68.39 246.97 68.36 246.97 68.34 246.97 68.31 246.99 68.29 246.99 68.27 246.99 68.24 246.99"/>
    <polygon class="cls-51" points="69.58 244.58 69.56 244.61 69.53 244.61 69.53 244.63 69.51 244.63 69.51 244.65 69.48 244.68 69.48 244.7 69.48 244.73 69.48 244.75 69.48 244.75 69.48 244.75 69.48 244.77 69.48 244.77 69.48 244.8 69.48 244.8 69.48 244.8 69.48 244.82 69.51 244.82 69.51 244.84 69.53 244.94 69.53 245.04 69.56 245.13 69.58 245.2 69.58 245.3 69.6 245.39 69.63 245.49 69.63 245.58 69.65 245.68 69.68 245.78 69.68 245.78 69.68 245.8 69.68 245.82 69.7 245.85 69.7 245.87 69.72 245.9 69.72 245.92 69.75 245.94 69.77 245.94 69.8 245.97 69.82 245.97 69.82 245.97 69.84 245.99 69.87 245.97 69.89 245.97 69.91 245.94 69.91 245.94 69.94 245.92 69.96 245.9 69.96 245.87 69.96 245.85 69.96 245.8 69.96 245.8 69.96 245.8 69.96 245.8 69.96 245.78 69.96 245.78 69.96 245.78 69.96 245.75 69.96 245.75 69.96 245.75 69.96 245.75 69.94 245.66 69.94 245.56 69.91 245.47 69.91 245.47 69.89 245.37 69.89 245.27 69.87 245.18 69.84 245.08 69.82 244.99 69.8 244.89 69.8 244.82 69.77 244.8 69.77 244.77 69.77 244.75 69.75 244.73 69.75 244.7 69.72 244.68 69.72 244.65 69.7 244.65 69.68 244.63 69.65 244.61 69.63 244.61 69.63 244.61 69.6 244.58 69.58 244.58"/>
    <polygon class="cls-51" points="68.86 244.51 68.84 244.51 68.82 244.51 68.82 244.53 68.79 244.56 68.79 244.56 68.77 244.61 68.77 244.63 68.77 244.65 68.77 244.65 68.77 244.68 68.77 244.7 68.77 244.7 68.77 244.73 68.79 244.73 68.79 244.75 68.79 244.77 68.79 244.77 68.79 244.8 68.82 244.87 68.84 244.96 68.84 245.06 68.86 245.08 68.86 245.18 68.89 245.27 68.91 245.35 68.91 245.44 68.94 245.54 68.96 245.63 68.96 245.73 68.96 245.73 68.98 245.75 68.98 245.8 69.01 245.82 69.01 245.85 69.03 245.87 69.03 245.87 69.06 245.9 69.08 245.92 69.08 245.92 69.1 245.94 69.13 245.94 69.15 245.94 69.17 245.94 69.2 245.94 69.22 245.92 69.22 245.92 69.25 245.9 69.25 245.87 69.27 245.85 69.27 245.82 69.27 245.78 69.27 245.78 69.27 245.78 69.27 245.75 69.27 245.75 69.27 245.75 69.27 245.73 69.27 245.73 69.27 245.73 69.27 245.7 69.27 245.7 69.25 245.63 69.22 245.54 69.22 245.44 69.2 245.42 69.2 245.32 69.17 245.2 69.15 245.11 69.13 245.01 69.1 244.92 69.08 244.82 69.06 244.73 69.06 244.7 69.06 244.68 69.06 244.65 69.03 244.63 69.03 244.61 69.01 244.58 69.01 244.58 68.98 244.56 68.96 244.53 68.94 244.51 68.94 244.51 68.91 244.51 68.89 244.51 68.86 244.51"/>
    <polygon class="cls-51" points="70.51 245.08 70.51 245.08 70.49 245.11 70.49 245.13 70.46 245.16 70.46 245.18 70.46 245.2 70.44 245.23 70.44 245.3 70.44 245.56 70.39 245.82 70.34 246.06 70.34 246.16 70.27 246.35 70.23 246.52 70.15 246.64 70.11 246.71 70.01 246.83 69.91 246.92 69.82 246.99 69.7 247.04 69.58 247.09 69.44 247.11 69.37 247.11 69.37 247.11 69.32 247.14 69.27 247.16 69.27 247.21 69.27 247.21 69.27 247.21 69.25 247.28 69.25 247.3 69.27 247.38 69.27 247.4 69.29 247.47 69.32 247.5 69.34 247.54 69.37 247.57 69.39 247.59 69.44 247.59 69.48 247.59 69.48 247.59 69.6 247.59 69.75 247.57 69.87 247.52 70.01 247.45 70.11 247.38 70.23 247.28 70.32 247.16 70.37 247.07 70.46 246.9 70.54 246.73 70.61 246.52 70.63 246.4 70.68 246.16 70.73 245.87 70.75 245.78 70.77 245.47 70.77 245.47 70.77 245.47 70.77 245.44 70.77 245.44 70.77 245.42 70.77 245.42 70.77 245.39 70.77 245.39 70.77 245.39 70.77 245.37 70.77 245.37 70.77 245.32 70.77 245.3 70.75 245.25 70.75 245.23 70.73 245.2 70.7 245.18 70.68 245.16 70.65 245.13 70.63 245.11 70.61 245.08 70.61 245.08 70.58 245.08 70.54 245.08 70.51 245.08"/>
    <polygon class="cls-51" points="71.75 244.63 71.73 244.65 71.71 244.7 71.68 244.77 71.68 244.8 71.68 244.89 71.68 248.33 71.68 248.35 71.68 248.45 71.71 248.52 71.73 248.59 71.75 248.64 71.78 248.69 71.82 248.71 71.87 248.74 71.9 248.76 71.94 248.76 71.97 248.74 71.99 248.71 72.02 248.67 72.04 248.59 72.04 248.59 72.04 248.5 72.04 246.49 72.06 246.52 72.18 246.64 72.3 246.78 72.45 246.92 72.57 247.04 72.68 247.18 72.8 247.33 72.92 247.47 73.04 247.61 73.16 247.76 73.28 247.93 73.28 247.93 73.33 247.97 73.38 248 73.42 248.02 73.45 248 73.47 248 73.52 247.97 73.52 247.97 73.54 247.93 73.54 247.88 73.57 247.83 73.57 247.78 73.57 247.78 73.57 247.73 73.57 247.71 73.54 247.69 73.54 247.64 73.54 247.61 73.52 247.57 73.5 247.54 73.5 247.52 73.47 247.5 73.45 247.45 73.42 247.42 73.31 247.28 73.16 247.11 73.02 246.97 72.88 246.8 72.73 246.66 72.64 246.54 72.49 246.4 72.33 246.25 72.18 246.11 72.04 245.97 72.04 245.04 72.04 245.01 72.04 244.94 72.02 244.84 71.99 244.77 71.97 244.75 71.94 244.68 71.9 244.65 71.87 244.63 71.82 244.63 71.78 244.63 71.75 244.63"/>
    <polygon class="cls-51" points="64.37 235.32 64.35 235.22 64.33 235.1 64.3 235.01 64.3 234.89 64.28 234.79 64.26 234.67 64.23 234.58 64.23 234.46 64.21 234.36 64.18 234.24 64.18 234.24 63.78 231.93 63.75 231.9 63.75 231.86 63.75 231.83 63.73 231.78 63.71 231.76 63.71 231.71 63.68 231.69 63.66 231.66 63.61 231.64 63.59 231.62 63.59 231.62 63.54 231.59 63.49 231.59 63.47 231.62 63.44 231.64 63.42 231.66 63.4 231.71 63.4 231.76 63.4 231.78 63.4 231.83 63.4 231.9 63.4 231.93 64.04 235.34 64.04 235.41 64.09 235.53 64.11 235.63 64.16 235.72 64.21 235.77 64.26 235.84 64.3 235.89 64.37 235.91 64.42 235.94 64.47 235.94 64.52 235.91 64.57 235.89 64.61 235.84 64.64 235.77 64.66 235.65 64.69 235.6 65.04 233.62 65.04 233.55 65.07 233.45 65.09 233.38 65.09 233.29 65.12 233.22 65.12 233.12 65.14 233.05 65.14 233.03 65.14 232.93 65.16 232.86 65.16 232.79 65.19 232.88 65.19 232.98 65.21 233.07 65.21 233.17 65.23 233.26 65.23 233.36 65.26 233.45 65.28 233.55 65.28 233.65 65.31 233.74 65.31 233.74 65.66 236.03 65.66 236.11 65.69 236.22 65.74 236.32 65.78 236.42 65.81 236.49 65.86 236.54 65.93 236.58 65.97 236.61 66.02 236.63 66.09 236.63 66.14 236.61 66.17 236.58 66.21 236.54 66.26 236.46 66.29 236.37 66.31 236.32 66.93 233.48 66.93 233.45 66.93 233.43 66.93 233.43 66.95 233.41 66.95 233.41 66.95 233.38 66.95 233.38 66.95 233.36 66.95 233.34 66.95 233.34 66.95 233.29 66.93 233.26 66.93 233.22 66.93 233.17 66.91 233.14 66.91 233.12 66.88 233.1 66.83 233.05 66.81 233.03 66.79 233 66.76 233 66.72 232.98 66.69 232.98 66.67 232.98 66.64 233 66.64 233 66.62 233.03 66.6 233.05 66.6 233.07 66.57 233.1 66.57 233.12 66.57 233.14 66.17 235.1 66.14 235.2 66.12 235.29 66.09 235.37 66.07 235.46 66.07 235.56 66.05 235.65 66.02 235.75 66 235.84 66 235.94 66 235.94 65.97 236.03 65.95 235.91 65.95 235.82 65.93 235.7 65.9 235.58 65.9 235.48 65.88 235.37 65.86 235.27 65.86 235.15 65.83 235.05 65.81 234.94 65.81 234.94 65.5 232.93 65.47 232.79 65.45 232.69 65.43 232.6 65.38 232.5 65.33 232.43 65.28 232.38 65.23 232.33 65.16 232.31 65.12 232.28 65.12 232.28 65.04 232.28 65 232.28 64.97 232.33 64.92 232.38 64.9 232.45 64.85 232.57 64.85 232.64 64.52 234.39 64.52 234.48 64.49 234.58 64.47 234.67 64.47 234.77 64.45 234.86 64.42 234.94 64.42 235.03 64.4 235.13 64.37 235.22 64.37 235.25 64.37 235.32"/>
    <path class="cls-51" d="M68.6,235.65h-.05l-.14-.05-.17-.07-.17-.07-.21-.1v-1.22h0v-.05h0v-.05h0l.12.05h.07l.07.05h.07l.07.07h.07l.07.07.07.05.07.05h0l.07.07.05.05.07.1h0l.07.12.05.1v.12l.05.07v.41l-.05.07h0l-.05.1-.05.05h-.02l-.02.02h-.14.02ZM67.62,233.48h-.05l-.02.05v.05l-.05.05v.07l-.02.07v.07h0v3.32l.05.07h.02l.05.1h.02l.05.05h.12v-.07l.05-.05v-1.41l.21.1.1.05.1.05.1.05.1.05.1.05h0l.1.05h.1l.1.02h.14l.1-.05.07-.05.07-.07.05-.1h0l.05-.12.05-.12h0v-.14h0v-.17h0v-.43l-.05-.1-.05-.14-.05-.14-.07-.14-.05-.07-.1-.12-.1-.12-.12-.1-.07-.07-.07-.05-.07-.05-.07-.05h-.07l-.07-.07h-.07v-.05h-.07l-.07-.07h-.07l-.07-.05-.29-.12h-.07l-.05-.02h-.05.1Z"/>
    <polygon class="cls-51" points="70.32 234.63 70.27 234.63 70.23 234.65 70.15 234.7 70.08 234.74 70.03 234.79 69.96 234.89 69.94 234.94 69.91 235.05 69.89 235.13 69.87 235.27 69.87 235.34 69.87 235.39 69.89 235.53 69.91 235.68 69.96 235.82 70.01 235.96 70.03 236.01 70.11 236.15 70.18 236.27 70.3 236.44 70.42 236.58 70.49 236.65 70.75 236.92 70.77 236.97 70.82 237.01 70.87 237.04 70.89 237.08 70.94 237.13 70.99 237.18 71.01 237.2 71.06 237.25 71.08 237.3 71.11 237.32 71.11 237.35 71.16 237.39 71.2 237.51 71.25 237.61 71.28 237.73 71.28 237.75 71.3 237.85 71.3 237.87 71.28 237.92 71.28 238.02 71.25 238.09 71.2 238.16 71.16 238.21 71.13 238.23 71.06 238.25 70.99 238.28 70.94 238.25 70.85 238.25 70.82 238.25 70.7 238.21 70.7 238.21 70.65 238.18 70.54 238.11 70.49 238.09 70.39 237.99 70.37 237.97 70.32 237.94 70.27 237.9 70.25 237.87 70.2 237.82 70.18 237.8 70.15 237.78 70.11 237.75 70.08 237.71 70.06 237.71 70.01 237.68 69.99 237.68 69.96 237.68 69.94 237.68 69.91 237.71 69.89 237.71 69.89 237.73 69.87 237.75 69.87 237.78 69.87 237.8 69.84 237.85 69.84 237.85 69.84 237.9 69.87 237.94 69.87 237.97 69.89 238.02 69.89 238.04 69.91 238.06 69.94 238.11 69.96 238.14 69.99 238.18 70.01 238.21 70.01 238.21 70.13 238.33 70.27 238.45 70.32 238.49 70.49 238.59 70.51 238.59 70.65 238.66 70.68 238.68 70.75 238.71 70.89 238.76 70.97 238.78 71.08 238.78 71.13 238.78 71.25 238.78 71.3 238.76 71.4 238.73 71.44 238.68 71.51 238.61 71.59 238.54 71.63 238.47 71.63 238.42 71.68 238.3 71.71 238.16 71.71 238.04 71.71 237.97 71.71 237.82 71.66 237.68 71.63 237.54 71.59 237.39 71.51 237.25 71.42 237.13 71.4 237.08 71.3 236.94 71.16 236.8 71.08 236.7 70.73 236.32 70.68 236.25 70.61 236.18 70.56 236.11 70.51 236.06 70.46 235.99 70.39 235.91 70.37 235.87 70.34 235.77 70.32 235.68 70.3 235.6 70.3 235.53 70.3 235.41 70.3 235.41 70.32 235.32 70.34 235.29 70.37 235.22 70.42 235.17 70.44 235.17 70.44 235.15 70.49 235.13 70.56 235.13 70.56 235.13 70.63 235.13 70.65 235.13 70.75 235.17 70.77 235.17 70.77 235.17 70.87 235.22 70.87 235.22 70.97 235.29 71.06 235.37 71.16 235.48 71.18 235.48 71.18 235.51 71.2 235.53 71.23 235.56 71.25 235.58 71.25 235.6 71.28 235.6 71.3 235.63 71.32 235.65 71.32 235.65 71.35 235.65 71.37 235.68 71.4 235.68 71.42 235.68 71.44 235.68 71.47 235.65 71.49 235.65 71.49 235.63 71.51 235.6 71.51 235.58 71.51 235.53 71.54 235.51 71.54 235.48 71.51 235.46 71.51 235.44 71.51 235.39 71.51 235.37 71.49 235.32 71.49 235.29 71.47 235.27 71.44 235.25 71.42 235.2 71.4 235.17 71.35 235.13 71.28 235.05 71.23 235.01 71.16 234.96 71.11 234.91 71.04 234.86 70.97 234.82 70.89 234.77 70.85 234.74 70.77 234.72 70.65 234.67 70.54 234.63 70.42 234.63 70.32 234.63"/>
    <polyline class="cls-17" points="225.58 56.57 225.19 56.57 225.19 56.69"/>
    <g class="cls-25">
      <path class="cls-17" d="M224.07,56.69l.21-.1s.12-.02.17-.02"/>
    </g>
    <line class="cls-17" x1="224.33" y1="63.92" x2="223.98" y2="64.06"/>
    <line class="cls-17" x1="220.8" y1="70.58" x2="221.06" y2="70.7"/>
    <polyline class="cls-17" points="225.48 69.17 225.5 68.1 225.89 68.08 226.08 68.94"/>
    <g class="cls-34">
      <path class="cls-17" d="M226.32,65.59h0v-.76c0-.12.1-.24.17-.29h.07v-.33s0-.24-.02-.36"/>
    </g>
    <line class="cls-17" x1="221.09" y1="64.02" x2="220.8" y2="64.11"/>
    <g class="cls-53">
      <path class="cls-17" d="M220.73,64.18l-.29-.12v-6.09l3.58-1.5c.21-.07.41-.1.64-.1h.6s.17,0,.29-.02"/>
    </g>
    <line class="cls-17" x1="223.21" y1="64.4" x2="223.21" y2="63.35"/>
    <g class="cls-68">
      <g>
        <path class="cls-17" d="M223.21,69.56l.74-.33c.17-.05.33-.1.5-.1"/>
        <path class="cls-17" d="M223.21,69.8v-1.15l2.39-1c.6-.29.91-.98.96-1.62v-.29l-.26-.12"/>
      </g>
    </g>
    <polyline class="cls-17" points="225.55 56.35 225.55 55.35 225.93 55.35 226.1 56.18 226.1 56.78"/>
    <polyline class="cls-17" points="223.47 75.72 220.68 76.91 220.42 76.79 220.44 70.73 220.8 70.58 220.8 64.11"/>
    <line class="cls-17" x1="223.93" y1="63.9" x2="223.21" y2="64.18"/>
    <g class="cls-55">
      <path class="cls-17" d="M225.62,33.81s-.24.02-.36.02v6.04"/>
    </g>
    <polyline class="cls-17" points="224.09 46.68 224.31 46.59 224.36 46.59"/>
    <polyline class="cls-17" points="224.17 33.93 224.33 33.88 224.38 33.86"/>
    <polyline class="cls-17" points="224.62 52.6 224.67 46.54 224.69 46.54"/>
    <polyline class="cls-17" points="224.69 39.88 224.69 33.81 224.72 33.81"/>
    <g class="cls-9">
      <path class="cls-17" d="M225.6,46.54s-.24.02-.38.02v6.09"/>
    </g>
    <line class="cls-17" x1="220.85" y1="47.83" x2="221.11" y2="47.95"/>
    <line class="cls-17" x1="224.31" y1="39.92" x2="224.33" y2="33.88"/>
    <line class="cls-17" x1="224.29" y1="52.67" x2="224.31" y2="46.59"/>
    <g class="cls-62">
      <g>
        <path class="cls-17" d="M225.58,46.35v-1h.38l.17.84v6.09c0,.36-.55.38-.91.38h-.6"/>
        <path class="cls-17" d="M226.41,42.93v-.1l-.02-.76c.02-.12.1-.24.17-.29h.05v-.33c0-.33-.12-.67-.41-.84l-.26-.12c-.17-.07-.36-.07-.53,0l-2.13.91"/>
        <path class="cls-17" d="M220.87,41.4v6.42l-.38.14v6.09l.26.1,3.51-1.48s.24-.07.36-.07"/>
      </g>
    </g>
    <line class="cls-17" x1="221.16" y1="41.29" x2="220.87" y2="41.4"/>
    <g class="cls-7">
      <g>
        <path class="cls-17" d="M220.8,41.43l-.26-.12v-6.09l3.53-1.48c.21-.1.43-.12.64-.12h.6s.21.02.29,0"/>
        <path class="cls-17" d="M223.28,46.8l.76-.33c.21-.05.41-.1.64-.1h.6s.17,0,.29-.02"/>
        <path class="cls-17" d="M223.28,41.67v-1.29l1.03-.43c.12-.02.26-.07.38-.07h.55c.36.02.91,0,.91-.36v-6.04l-.17-.86h-.38v1.03"/>
        <path class="cls-17" d="M223.28,47.04v-1.12l2.39-1.03c.6-.29.91-.96.96-1.6v-.33l-.24-.1"/>
      </g>
    </g>
    <polyline class="cls-17" points="263.9 58.91 263.9 58.88 263.9 52.34 261.54 51.34 261.54 48.76"/>
    <polyline class="cls-17" points="237.18 47.64 237.18 47.59 237.2 38.49"/>
    <polyline class="cls-17" points="271.61 171.06 271.61 171.06 271.59 187.97"/>
    <polyline class="cls-17" points="271.92 170.8 271.54 170.97 271.59 171.04"/>
    <polyline class="cls-17" points="227.63 76.67 227.8 76.74 228.13 76.58"/>
    <line class="cls-17" x1="228.23" y1="51.1" x2="227.92" y2="51.27"/>
    <polyline class="cls-17" points="227.96 152.63 228.08 152.63 228.82 152.32"/>
    <g class="cls-12">
      <g>
        <path class="cls-17" d="M262.63,186.58s.17-.12.26-.14"/>
        <path class="cls-17" d="M238.88,176.58s.17-.12.29-.17"/>
      </g>
    </g>
    <line class="cls-17" x1="225.6" y1="45.34" x2="225.62" y2="44.91"/>
    <g class="cls-57">
      <path class="cls-17" d="M233.6,156.07s.17.14.29.17l.33-.12"/>
    </g>
    <line class="cls-17" x1="233.19" y1="173.55" x2="233.81" y2="173.28"/>
    <polyline class="cls-17" points="270.08 61.03 269.53 61.22 265.4 61.51 234.51 48.45"/>
    <g class="cls-46">
      <path class="cls-17" d="M225.22,29.9s.26.17.43.26v2.46"/>
    </g>
    <polyline class="cls-17" points="255.9 181.81 255.28 182.43 258.24 182.48"/>
    <polyline class="cls-17" points="270.68 46.59 271.09 47.3 271.97 49.69 274.31 49.19"/>
    <polyline class="cls-17" points="270.78 171.28 270.11 171.54 269.22 171.16 269.22 170.42 270.06 170.04"/>
    <polyline class="cls-17" points="228.49 48.21 227.63 48.59 227.6 50.88 227.84 51.27 227.84 54.01"/>
    <polyline class="cls-17" points="245.75 178.2 245.78 178.42 247.76 178.06"/>
    <polyline class="cls-17" points="231.57 153.49 232.98 155.42 234.2 154.92"/>
    <g class="cls-4">
      <g>
        <path class="cls-17" d="M237.85,176.15c.62-.48,1.5-.48,2.22-.17.24.1.5.21.72.38"/>
        <path class="cls-17" d="M261.61,186.15c.62-.48,1.5-.43,2.22-.17.24.12.48.24.67.38"/>
        <path class="cls-17" d="M257.12,169.65c.14.12.26.24.41.36"/>
        <path class="cls-17" d="M258.74,50.6c-.38.14-.84.17-1.24.1"/>
      </g>
    </g>
    <line class="cls-17" x1="265.67" y1="58.1" x2="264.14" y2="58.76"/>
    <line class="cls-17" x1="238.95" y1="46.82" x2="237.44" y2="47.47"/>
    <g class="cls-21">
      <g>
        <path class="cls-17" d="M245.58,167.53c.17-.62.6-1.22,1.17-1.5"/>
        <path class="cls-17" d="M260.08,48.52c0,.21-.02.38-.02.6"/>
        <path class="cls-17" d="M259.08,177.41c-.64.88-1.91,1.15-2.96.76"/>
        <path class="cls-17" d="M259.7,175.1c0,.79-.17,1.6-.6,2.27"/>
        <path class="cls-17" d="M248.21,39.26c-3.53-.98-3.8,3.2-3.25,4.8"/>
        <path class="cls-17" d="M248.5,165.83l-.67-.26c-1.03-.41-2.34-.17-2.96.74-.86,1.24-.76,2.91-.29,4.35"/>
        <path class="cls-17" d="M256.71,177.15c.53.21,1.12.26,1.65.07"/>
        <path class="cls-17" d="M270.66,185.58l-.53.6c-.5.64-.48,1.6-.19,2.34"/>
        <path class="cls-17" d="M278.51,50.43l-.62.26-1.77-.76-1.77.76c1.12.41,2.41.41,3.53,0l-.41,138.28"/>
        <path class="cls-17" d="M227.94,151.43l-.6.26c0,.29.12.6.36.84l-.05,16.91"/>
      </g>
    </g>
    <polyline class="cls-17" points="253.7 177.15 256.09 178.15 256.66 177.15 257.86 176.65"/>
    <polyline class="cls-17" points="225.62 28.65 227.44 29.39 225.67 30.16 228.01 31.16 229.23 30.16"/>
    <polyline class="cls-17" points="273.93 188.97 274.36 50.69 271.97 49.69 271.92 66.57"/>
    <line class="cls-17" x1="225.62" y1="40.5" x2="225.62" y2="39.88"/>
    <line class="cls-17" x1="225.58" y1="55.35" x2="225.6" y2="52.63"/>
    <line class="cls-17" x1="225.55" y1="68.1" x2="225.55" y2="67.67"/>
    <line class="cls-17" x1="225.5" y1="77.1" x2="225.5" y2="76.53"/>
    <line class="cls-17" x1="225.24" y1="168.44" x2="225.36" y2="128.37"/>
    <polyline class="cls-17" points="233.96 45.58 233.31 45.89 231.38 48.21"/>
    <polyline class="cls-17" points="267.12 178.61 261.2 176.1 261.2 173.55"/>
    <polyline class="cls-17" points="255.28 183.14 255.28 182.43 245.78 178.42 245.78 179.08"/>
    <line class="cls-17" x1="240.76" y1="42.57" x2="243.13" y2="43.58"/>
    <line class="cls-17" x1="263.54" y1="174.55" x2="263.59" y2="170.04"/>
    <polyline class="cls-17" points="236.85 158.76 236.85 165.83 242.77 168.34"/>
    <polyline class="cls-17" points="234.22 155.37 265.09 168.39 265.09 170.66"/>
    <line class="cls-17" x1="265.67" y1="51.58" x2="263.9" y2="52.34"/>
    <line class="cls-17" x1="228.08" y1="152.63" x2="229.83" y2="152.75"/>
    <polyline class="cls-17" points="227.99 48.04 228.01 31.16 233.67 31.54"/>
    <line class="cls-17" x1="227.82" y1="68.67" x2="227.82" y2="65.35"/>
    <line class="cls-17" x1="227.8" y1="78.03" x2="227.8" y2="76.74"/>
    <line class="cls-17" x1="227.6" y1="135.13" x2="227.63" y2="130.61"/>
    <line class="cls-17" x1="227.58" y1="149.24" x2="227.58" y2="146.49"/>
    <line class="cls-17" x1="227.34" y1="151.7" x2="227.34" y2="149.43"/>
    <line class="cls-17" x1="227.49" y1="56.28" x2="227.49" y2="53.84"/>
    <line class="cls-17" x1="227.46" y1="65.21" x2="227.46" y2="63.44"/>
    <line class="cls-17" x1="227.29" y1="130.47" x2="227.29" y2="129.28"/>
    <line class="cls-17" x1="227.22" y1="146.32" x2="227.25" y2="134.98"/>
    <line class="cls-17" x1="227.44" y1="29.39" x2="229.09" y2="28.73"/>
    <line class="cls-17" x1="265.09" y1="168.39" x2="266.65" y2="168.29"/>
    <line class="cls-17" x1="265.38" y1="63.78" x2="265.4" y2="61.49"/>
    <polyline class="cls-17" points="269.53 63.52 269.53 61.22 269.53 60.48"/>
    <line class="cls-17" x1="269.22" y1="170.42" x2="269.22" y2="169.34"/>
    <line class="cls-17" x1="271.28" y1="170.25" x2="271.54" y2="170.97"/>
    <line class="cls-17" x1="254.61" y1="49.52" x2="257.09" y2="50.55"/>
    <line class="cls-17" x1="254.25" y1="176.1" x2="256.66" y2="177.15"/>
    <polyline class="cls-17" points="271.02 61.41 271.09 47.3 272.47 47.02"/>
    <line class="cls-17" x1="270.99" y1="170.42" x2="269.22" y2="171.16"/>
    <line class="cls-17" x1="247.83" y1="165.57" x2="248.4" y2="166.07"/>
    <line class="cls-17" x1="262.92" y1="175.38" x2="261.2" y2="176.1"/>
    <line class="cls-17" x1="258.24" y1="183.55" x2="258.24" y2="182.48"/>
    <line class="cls-17" x1="263.33" y1="50.57" x2="261.54" y2="51.34"/>
    <line class="cls-17" x1="245.68" y1="178.23" x2="245.68" y2="177.17"/>
    <line class="cls-17" x1="240.74" y1="49.09" x2="263.9" y2="58.88"/>
    <line class="cls-17" x1="238.61" y1="165.09" x2="236.85" y2="165.83"/>
    <line class="cls-17" x1="235.1" y1="46.71" x2="237.18" y2="47.59"/>
    <line class="cls-17" x1="233.62" y1="45.63" x2="233.65" y2="31.54"/>
    <line class="cls-17" x1="233.24" y1="169.82" x2="233.31" y2="155.73"/>
    <line class="cls-17" x1="228.23" y1="50.6" x2="227.6" y2="50.88"/>
    <line class="cls-17" x1="227.94" y1="149.17" x2="227.34" y2="149.43"/>
    <line class="cls-17" x1="267.46" y1="60.39" x2="269.53" y2="61.22"/>
    <line class="cls-17" x1="228.18" y1="64.92" x2="227.46" y2="65.21"/>
    <line class="cls-17" x1="228.58" y1="129.9" x2="227.29" y2="130.47"/>
    <line class="cls-17" x1="227.94" y1="146.04" x2="227.22" y2="146.35"/>
    <line class="cls-17" x1="270.78" y1="185.91" x2="270.13" y2="186.18"/>
    <line class="cls-17" x1="270.66" y1="185.58" x2="270.68" y2="171.52"/>
    <g class="cls-22">
      <path class="cls-17" d="M272.35,84.17v-11.39l-.33-.14v-2.72l.24-.21v-2.27c0-.33-.12-.62-.33-.86-.02-.05-.07-.14-.1-.24l-.48-1.27-.29-3.27s-.02-.26-.07-.38c-.14-.24-.36-.45-.6-.55l-.88-.36"/>
    </g>
    <line class="cls-17" x1="241.33" y1="176.82" x2="241.62" y2="177.13"/>
    <g class="cls-70">
      <g>
        <path class="cls-17" d="M239.76,176.34c-.14.17-.29.41-.38.64"/>
        <path class="cls-17" d="M263.52,186.34c-.14.17-.26.38-.38.62"/>
        <path class="cls-17" d="M259.2,50.26c-.33.02-.62-.1-.91-.21l-3.53-1.48"/>
        <path class="cls-17" d="M247.4,165.88c-.17.17-.29.38-.41.6"/>
        <path class="cls-17" d="M254.35,175.17l3.51,1.48s.21.1.33.12c.1.02.21.05.29.05.05.02.12.07.26.02h.29-.02"/>
        <path class="cls-17" d="M257.62,170.13c-.26-.21-.57-.38-.86-.53h-.02l-8.33-3.51c-.53-.21-1.12-.26-1.65-.05"/>
        <path class="cls-17" d="M265.38,59.48c.14-.43.26-.91.29-1.38v-6.52l-2.36-1v-1.05"/>
        <path class="cls-17" d="M238.64,48.21c.17-.43.26-.91.29-1.38v-7.59"/>
      </g>
    </g>
    <polyline class="cls-17" points="234.27 30.8 234.2 30.92 233.65 31.54"/>
    <g class="cls-31">
      <g>
        <path class="cls-17" d="M234.55,29.8c0,.24-.02.5-.12.72"/>
        <path class="cls-17" d="M272.04,188.52c.24.36.53.67.86.91"/>
        <path class="cls-17" d="M265.09,186.82c.36.38.67.76.93,1.22"/>
      </g>
    </g>
    <polyline class="cls-17" points="272.26 114.49 272.28 107.64 271.92 107.5 271.92 105.33"/>
    <polyline class="cls-17" points="272.16 149.38 272.16 142.53 271.8 142.38 271.8 140.21"/>
    <g class="cls-52">
      <g>
        <path class="cls-17" d="M233.88,45.46l-.14.1c.14-.07.33-.02.48.02l.88.36v.76l-.6,1.74v2.27l30.87,13.04,4.15-.26c.53-.26,1-.72,1.27-1.24"/>
        <path class="cls-17" d="M234.1,172.88c.14-.76-.07-1.53-.45-2.22l-.41-.84-5.61-.38-2.39-1c-.33-.17-.69-.38-.74-.76l.12-39.69"/>
        <path class="cls-17" d="M233.38,173.9c.14-.1.33-.21.41-.36"/>
      </g>
    </g>
    <polyline class="cls-17" points="263.78 58.81 263.78 58.91 267.15 60.34"/>
    <polyline class="cls-17" points="237.06 47.56 237.06 47.64 240.45 49.07"/>
    <line class="cls-17" x1="233.31" y1="172.76" x2="234.05" y2="173.07"/>
    <line class="cls-17" x1="224.79" y1="76.55" x2="224.79" y2="77.41"/>
    <line class="cls-17" x1="224.81" y1="67.96" x2="224.81" y2="69.17"/>
    <line class="cls-17" x1="224.86" y1="52.6" x2="224.84" y2="56.57"/>
    <line class="cls-17" x1="224.86" y1="45.25" x2="224.86" y2="46.56"/>
    <line class="cls-17" x1="224.88" y1="39.9" x2="224.88" y2="40.76"/>
    <g class="cls-32">
      <g>
        <path class="cls-17" d="M227.29,27.94l-1.65.72c-.33.14-.67.38-.72.74v4.27"/>
        <path class="cls-17" d="M234.82,45.8l-1.24,1.48-2.2.96-2.98-.21c-.14,0-.29,0-.41.02h.1"/>
        <path class="cls-17" d="M270.99,170.13l-.24,1.24s-.02.1-.05.14l-.12.07.12-.07"/>
        <path class="cls-17" d="M239.45,176.29l-.26.12c.48-.17,1-.12,1.48.07.29.12.55.29.79.48"/>
        <path class="cls-17" d="M257.88,43.41c1.36,1.36,2.13,3.22,2.17,5.11"/>
        <path class="cls-17" d="M260.03,48.4c-.1.88-.5,1.84-1.29,2.22"/>
        <path class="cls-17" d="M248.21,39.26l8.88,3.72c.33.14.62.33.88.57"/>
        <path class="cls-17" d="M257.52,170.01c1.34,1.36,2.13,3.22,2.15,5.11"/>
        <path class="cls-17" d="M258.36,177.2c.84-.38,1.22-1.29,1.34-2.17"/>
        <path class="cls-17" d="M262.9,186.44c.5-.21,1.03-.14,1.5.02.29.14.57.29.79.5"/>
        <path class="cls-17" d="M270.66,185.58l.91,2.39,2.36,1c1.15.41,2.41.41,3.53,0l.62-.26"/>
        <path class="cls-17" d="M271.76,171.01c.14-.12.21-.29.24-.48v-2.27l-.24-.41v-2.72l.36-.17"/>
      </g>
    </g>
    <polyline class="cls-17" points="267.12 177.15 262.92 175.38 262.97 174.29"/>
    <polyline class="cls-17" points="261.2 173.55 263.54 174.55 265.33 173.81 265.36 170.66"/>
    <line class="cls-17" x1="249.91" y1="178.97" x2="258.24" y2="182.48"/>
    <line class="cls-17" x1="245.68" y1="177.17" x2="248.81" y2="178.51"/>
    <polyline class="cls-17" points="261.54 48.76 267.48 51.27 267.46 60.39 267.34 60.41"/>
    <polyline class="cls-17" points="243.13 43.58 243.13 41 237.2 38.49"/>
    <polyline class="cls-17" points="242.77 168.34 242.77 165.78 240.4 164.78 240.4 160.27"/>
    <polyline class="cls-17" points="240.62 49.14 240.74 49.09 240.76 42.57 242.53 41.81 243.13 42.07"/>
    <polyline class="cls-17" points="272.21 130.4 272.23 123.54 271.87 123.4 271.9 114.35"/>
    <polyline class="cls-17" points="242.77 166.88 238.61 165.12 238.61 159.5"/>
    <polyline class="cls-17" points="272.3 95.51 272.35 88.68 271.99 88.54 271.99 84 272.35 83.86"/>
    <polyline class="cls-17" points="269.22 170.42 265.09 170.66 234.22 157.64 234.22 155.37 234.43 154.68"/>
    <polyline class="cls-17" points="273.67 47.52 274.31 49.19 276.12 49.93 277.75 49.26"/>
    <line class="cls-17" x1="267.12" y1="178.61" x2="267.15" y2="170.54"/>
    <polyline class="cls-17" points="228.2 53.84 227.84 54.01 227.49 53.84"/>
    <polyline class="cls-17" points="229.59 134.29 227.6 135.13 227.25 134.98"/>
    <line class="cls-17" x1="229.09" y1="136.06" x2="229.11" y2="134.48"/>
    <polyline class="cls-17" points="272.09 140.19 272.09 132.62 271.85 132.52 271.85 130.25 272.23 130.11"/>
    <polyline class="cls-17" points="227.44 29.39 229.23 30.16 234.43 30.52"/>
    <line class="cls-17" x1="229.8" y1="30.18" x2="229.8" y2="29.01"/>
    <polyline class="cls-17" points="272.11 165.28 272.14 153.89 271.78 153.75 271.8 149.24 272.16 149.07"/>
    <polyline class="cls-17" points="272.16 105.33 272.19 97.73 271.97 97.64 271.97 95.37 272.3 95.23"/>
    <g class="cls-39">
      <g>
        <path class="cls-17" d="M217.53,4.54c1.6-.12,3.15.21,4.63.76l59.38,25.05c7.43,3.41,11.65,11.99,11.84,20.15l2.36-.98"/>
        <path class="cls-17" d="M217.48,10.05c.98-.05,1.96.21,2.89.57l59.36,25.02c5.18,2.41,8.14,8.38,8.26,14.14l-.43,151.63c-.05,2.29-.6,4.73-2.27,6.28"/>
        <path class="cls-17" d="M289.26,211.51c2.79-2.03,3.56-5.9,3.65-9.38l2.36-.98"/>
      </g>
    </g>
    <line class="cls-17" x1="220.23" y1="57.98" x2="220.23" y2="53.82"/>
    <line class="cls-17" x1="220.2" y1="70.73" x2="220.2" y2="64.06"/>
    <line class="cls-17" x1="220.18" y1="79.08" x2="220.18" y2="76.79"/>
    <line class="cls-17" x1="283.89" y1="29.37" x2="281.52" y2="30.37"/>
    <line class="cls-17" x1="292.91" y1="202.13" x2="293.36" y2="50.53"/>
    <line class="cls-17" x1="278.18" y1="164.78" x2="279.37" y2="165.28"/>
    <line class="cls-17" x1="268.01" y1="189.33" x2="278.11" y2="193.6"/>
    <line class="cls-17" x1="258.91" y1="41.29" x2="258.91" y2="39.78"/>
    <polyline class="cls-17" points="260.51 184.48 258.5 185.34 258.5 186.85 268.01 190.86"/>
    <line class="cls-17" x1="240.69" y1="177.82" x2="258.5" y2="185.34"/>
    <line class="cls-17" x1="231.59" y1="29.78" x2="231.62" y2="28.27"/>
    <polyline class="cls-17" points="233.19 172.95 231.19 173.81 231.19 175.34 240.69 179.32"/>
    <line class="cls-17" x1="221.47" y1="35.08" x2="221.49" y2="25.53"/>
    <line class="cls-17" x1="221.44" y1="54.32" x2="221.44" y2="53.89"/>
    <polyline class="cls-17" points="223.19 139.9 221.18 140.76 221.09 169.56 231.19 173.81"/>
    <polyline class="cls-17" points="220.04 125.6 219.99 140.26 221.18 140.76"/>
    <line class="cls-17" x1="221.99" y1="139.4" x2="219.99" y2="140.26"/>
    <g class="cls-64">
      <g>
        <path class="cls-17" d="M216.91,9.98c1.48-.6,3.15-.43,4.66.14"/>
        <path class="cls-17" d="M285.06,208.17c2.55-1.27,3.63-4.39,3.68-7.26l-1.17.5"/>
        <path class="cls-17" d="M279.75,35.65l1.15-.5c5.23,2.41,8.17,8.41,8.29,14.14l-1.17.5"/>
        <path class="cls-17" d="M216.31,6.97c1.86-.74,3.96-.55,5.85.17l59.36,25.02c6.54,3.03,10.27,10.55,10.41,17.77l-.43,151.63c-.1,3.61-1.41,7.52-4.66,9.12"/>
      </g>
    </g>
    <line class="cls-17" x1="221.56" y1="10.12" x2="280.9" y2="35.15"/>
    <line class="cls-17" x1="288.76" y1="200.91" x2="289.19" y2="49.28"/>
    <line class="cls-17" x1="260.51" y1="185.99" x2="258.5" y2="186.85"/>
    <line class="cls-17" x1="233.19" y1="174.48" x2="231.19" y2="175.34"/>
    <line class="cls-17" x1="223.09" y1="168.7" x2="221.09" y2="169.56"/>
    <g class="cls-56">
      <g>
        <path class="cls-17" d="M281,212.32l-59.38-25.05c-7.43-3.41-11.65-11.99-11.84-20.18l.45-151.63c.12-4.11,1.6-8.55,5.28-10.36l2.36-1c2.13-.84,4.51-.62,6.64.21l59.38,25.05c7.43,3.41,11.65,11.99,11.84,20.18l-.45,151.63c-.12,4.06-1.6,8.55-5.28,10.36l-2.36,1c-2.13.84-4.51.6-6.64-.21"/>
        <path class="cls-17" d="M216.31,6.97l-.6.24c-3.25,1.6-4.58,5.52-4.66,9.12l-.43,151.63c.14,7.21,3.87,14.76,10.41,17.77l59.36,25.02c1.89.74,3.99.91,5.85.21l.6-.26"/>
        <path class="cls-17" d="M216.91,9.98l-1.17.5c-2.55,1.27-3.63,4.37-3.68,7.26l-.45,151.63c.12,5.73,3.08,11.72,8.29,14.11l59.36,25.05c1.48.55,3.15.72,4.63.14l1.17-.5"/>
      </g>
    </g>
    <polyline class="cls-17" points="279.37 165.28 279.61 78.87 278.42 78.37 278.51 49.55 268.41 45.3 268.41 43.79 258.91 39.78 258.88 39.8"/>
    <polyline class="cls-17" points="279.37 164.28 278.18 164.78 278.11 193.6"/>
    <polyline class="cls-17" points="278.11 191.91 270.01 188.52 268.01 189.33 268.01 190.86"/>
    <polyline class="cls-17" points="260.72 40.54 258.91 41.29 251.75 38.28"/>
    <polyline class="cls-17" points="268.22 189.23 260.51 185.99 260.51 184.48 257.48 183.22"/>
    <polyline class="cls-17" points="251.75 38.28 241.1 33.79 241.1 32.26 231.62 28.27"/>
    <polyline class="cls-17" points="240.69 179.32 240.69 177.82 242.7 176.96 245.78 178.27"/>
    <polyline class="cls-17" points="233.38 29.01 231.59 29.78 221.49 25.53"/>
    <polyline class="cls-17" points="240.88 177.72 233.19 174.5 233.19 172.95 223.09 168.7 223.19 139.9 221.99 139.4 222.04 126.72"/>
    <polyline class="cls-17" points="223.43 53.03 223.43 53.46 221.44 54.32 220.92 54.08"/>
    <line class="cls-17" x1="223.47" y1="34" x2="223.5" y2="26.36"/>
    <line class="cls-17" x1="222.23" y1="57.26" x2="222.23" y2="53.96"/>
    <line class="cls-17" x1="222.18" y1="78.49" x2="222.18" y2="76.29"/>
    <polyline class="cls-17" points="226.22 70.37 227.7 69.75 230.71 69.8"/>
    <polyline class="cls-17" points="271.11 122.9 271.23 122.92 271.23 125 271.18 125.05"/>
    <polyline class="cls-17" points="267.77 78.13 271.13 76.72 271.23 76.72"/>
    <polyline class="cls-17" points="265.88 77.46 267.53 78.13 267.65 78.18"/>
    <polyline class="cls-17" points="255.57 156.4 255.57 156.14 259.65 154.54"/>
    <polyline class="cls-17" points="271.4 76.74 271.66 76.86 271.54 114.4"/>
    <line class="cls-17" x1="247.38" y1="145.61" x2="247.38" y2="145.3"/>
    <line class="cls-17" x1="241.12" y1="62.56" x2="241.12" y2="62.27"/>
    <polyline class="cls-17" points="271.66 68.22 271.68 67.17 271.99 67.05"/>
    <g class="cls-8">
      <g>
        <path class="cls-17" d="M253.11,142.24c.05-.14.14-.29.29-.38"/>
        <path class="cls-17" d="M253.08,152.87s.05-.17.12-.26"/>
        <path class="cls-17" d="M252.32,152.13c-.12.14-.21.33-.21.5l.96.41"/>
        <path class="cls-17" d="M252.34,141.52c-.12.14-.17.33-.21.5l.96.38"/>
        <path class="cls-17" d="M232.36,64.73s.17-.17.29-.21"/>
        <path class="cls-17" d="M246.64,152.87l-.53.24c.02.24.14.48.36.6l1.43-.6"/>
      </g>
    </g>
    <line class="cls-17" x1="252.1" y1="146.95" x2="252.39" y2="147.06"/>
    <line class="cls-17" x1="252.08" y1="157.57" x2="252.37" y2="157.69"/>
    <g class="cls-58">
      <g>
        <path class="cls-17" d="M223.81,57.83c.17.1.36.14.55.21"/>
        <path class="cls-17" d="M223.78,70.27c.17.1.36.17.55.24"/>
        <path class="cls-17" d="M260.22,159.43c.29.07.6,0,.88-.1"/>
        <path class="cls-17" d="M260.25,148.81c.29.1.6,0,.88-.1"/>
        <path class="cls-17" d="M259.6,81.97c.29.1.6,0,.88-.1"/>
        <path class="cls-17" d="M224.62,70.54c.41.07.88.07,1.29-.05"/>
        <path class="cls-17" d="M224.67,58.1c.43.07.88.07,1.29-.05"/>
        <path class="cls-17" d="M264.42,153.65c.17-.33.24-.74.26-1.15-.05-1.41-.79-3.01-2.17-3.37"/>
        <path class="cls-17" d="M243.32,136.87c.14.48.26.96.26,1.46,0,.38-.1.79-.26,1.12"/>
        <path class="cls-17" d="M231.86,63.59c.17-.33.24-.72.24-1.1-.02-1.27-.64-2.58-1.77-3.15"/>
        <path class="cls-17" d="M260.84,157.12c.24-.43.36-.93.36-1.46v-.62c-.02-1.5-.72-3.06-2.01-3.84"/>
        <path class="cls-17" d="M260.22,79.66c.26-.41.36-.93.38-1.46v-3.77c-.02-1.5-.74-3.08-2.03-3.87"/>
        <path class="cls-17" d="M260.87,146.49c.17-.33.29-.72.36-1.12"/>
        <path class="cls-17" d="M238.56,144.99c2.24.17,3.56,2.89,3.63,5.13-.02.72-.17,1.46-.62,2.01"/>
        <path class="cls-17" d="M240.14,150.98c-1.34.45-2.41-1.36-2.48-2.75,0-.55.21-1.15.72-1.41"/>
        <path class="cls-17" d="M247.07,142.1l-.91.38c.02.24.14.48.36.62l1.46-.62"/>
        <path class="cls-17" d="M240.71,72.85l-.91.38c.02.24.14.48.36.6l1.46-.6"/>
        <path class="cls-17" d="M234.7,68.41l-2.41,1.03c.02.41.24.79.6,1l2.41-1.03"/>
      </g>
    </g>
    <line class="cls-17" x1="250.31" y1="143.89" x2="250.31" y2="143.55"/>
    <line class="cls-17" x1="254.87" y1="145.8" x2="254.87" y2="145.51"/>
    <line class="cls-17" x1="255.59" y1="145.8" x2="259.53" y2="144.29"/>
    <line class="cls-17" x1="250.27" y1="154.49" x2="250.27" y2="154.18"/>
    <line class="cls-17" x1="252.44" y1="152.03" x2="253.37" y2="152.44"/>
    <line class="cls-17" x1="254.85" y1="156.42" x2="254.85" y2="156.11"/>
    <line class="cls-17" x1="265.16" y1="71.61" x2="265.16" y2="69.06"/>
    <line class="cls-17" x1="229.97" y1="135.67" x2="229.99" y2="130.59"/>
    <line class="cls-17" x1="238.97" y1="39.9" x2="239.73" y2="39.57"/>
    <line class="cls-17" x1="239.81" y1="147.18" x2="237.68" y2="148.23"/>
    <polyline class="cls-17" points="232.26 69.44 232.31 65.07 233.24 64.71"/>
    <polyline class="cls-17" points="236.85 71.61 236.27 71.87 232.86 70.44"/>
    <polyline class="cls-17" points="240.36 61.61 239.83 61.84 239.83 62.61 258.24 70.37"/>
    <polyline class="cls-17" points="240.14 73.83 259.15 81.85 261.32 80.97"/>
    <polyline class="cls-17" points="246.68 144.65 246.13 144.89 246.13 145.66 258.84 151.03"/>
    <polyline class="cls-17" points="256.14 157.79 259.77 159.29 261.92 158.43"/>
    <polyline class="cls-17" points="256.16 147.16 259.79 148.69 261.97 147.8"/>
    <polyline class="cls-17" points="271.23 122.92 271.52 123.04 271.4 160.65"/>
    <line class="cls-17" x1="255.11" y1="146.73" x2="255.4" y2="146.83"/>
    <line class="cls-17" x1="246.49" y1="143.1" x2="250.43" y2="144.75"/>
    <line class="cls-17" x1="246.13" y1="142.48" x2="246.13" y2="141.72"/>
    <polyline class="cls-17" points="271.37 170.27 271.4 169.29 271.99 169.03"/>
    <line class="cls-17" x1="254.52" y1="157.12" x2="254.87" y2="157.26"/>
    <line class="cls-17" x1="246.47" y1="153.68" x2="250.38" y2="155.33"/>
    <line class="cls-17" x1="271.52" y1="123.04" x2="271.87" y2="122.9"/>
    <line class="cls-17" x1="246.11" y1="153.08" x2="246.11" y2="152.32"/>
    <line class="cls-17" x1="271.66" y1="76.86" x2="272.38" y2="76.55"/>
    <line class="cls-17" x1="239.81" y1="73.23" x2="239.81" y2="72.47"/>
    <line class="cls-17" x1="269.77" y1="123.43" x2="270.99" y2="122.92"/>
    <polyline class="cls-17" points="271.42 167 271.42 164.83 271.09 165"/>
    <line class="cls-17" x1="268.96" y1="75.72" x2="268.99" y2="67.07"/>
    <polyline class="cls-17" points="271.4 169.29 268.67 168.15 268.72 159.5"/>
    <line class="cls-17" x1="272.11" y1="164.54" x2="271.42" y2="164.83"/>
    <polyline class="cls-17" points="227.32 59.67 227.32 58.07 228.23 57.69 231.62 57.71"/>
    <polyline class="cls-17" points="227.25 76.53 227.25 74.91 228.18 74.52 231.59 74.55"/>
    <line class="cls-17" x1="227.96" y1="136.56" x2="230.66" y2="137.68"/>
    <line class="cls-17" x1="228.23" y1="48.83" x2="271.71" y2="67.17"/>
    <polyline class="cls-17" points="226.24 57.95 226.63 57.78 227.32 58.07"/>
    <line class="cls-17" x1="226.58" y1="74.59" x2="227.25" y2="74.91"/>
    <line class="cls-17" x1="227.72" y1="63.35" x2="227.72" y2="59.53"/>
    <polyline class="cls-17" points="268.89 75.69 268.96 75.72 271.35 74.71"/>
    <polyline class="cls-17" points="229.87 135.65 229.97 135.67 230.37 135.87"/>
    <g class="cls-10">
      <g>
        <path class="cls-17" d="M264.64,65.52s.1.07.14.12l.14-.1s-.1-.12-.19-.12"/>
        <path class="cls-17" d="M265.16,69.03h0s.17.07.26.02"/>
        <path class="cls-17" d="M265.21,68.86s.21-.17.33-.14l.14.05"/>
        <path class="cls-17" d="M253.94,147.42c.67-.14.91-.93.93-1.62.14.02.26.07.38.07"/>
        <path class="cls-17" d="M255.47,156.14h.1c-.1-1.5-.84-3.03-2.17-3.68l3.92-1.91c1.48.67,2.34,2.39,2.36,4.01v.33c-.02.79-.33,1.67-1.05,2.05"/>
        <path class="cls-17" d="M253.03,153.03c1.12.57,1.74,1.84,1.79,3.08.17.07.36.1.53.07"/>
        <path class="cls-17" d="M255.52,145.51h.05c-.05-1.36-.62-2.84-1.79-3.49"/>
        <path class="cls-17" d="M253.08,142.41c1.12.57,1.74,1.84,1.79,3.1.12.02.26.05.38.05"/>
        <path class="cls-17" d="M253.32,158.05c.84.26,1.5-.76,1.53-1.62.17.02.36.07.53.02"/>
      </g>
    </g>
    <polyline class="cls-17" points="252.03 151.91 252.44 152.03 256.35 150.12 257.29 150.53"/>
    <line class="cls-17" x1="252.03" y1="141.29" x2="252.46" y2="141.41"/>
    <g class="cls-2">
      <path class="cls-17" d="M255.02,150.07c.29-.12.6-.17.91-.1"/>
    </g>
    <line class="cls-17" x1="247.21" y1="145.23" x2="246.13" y2="145.66"/>
    <line class="cls-17" x1="240.88" y1="62.18" x2="239.83" y2="62.61"/>
    <line class="cls-17" x1="259.29" y1="69.94" x2="258.24" y2="70.37"/>
    <line class="cls-17" x1="259.63" y1="69.82" x2="259.34" y2="69.94"/>
    <line class="cls-17" x1="267.77" y1="78.13" x2="267.74" y2="79.87"/>
    <g class="cls-37">
      <g>
        <path class="cls-17" d="M243.94,139.52c.55-.33.84-.98.86-1.62"/>
        <path class="cls-17" d="M255.16,157.81c.24-.41.36-.91.38-1.38"/>
        <path class="cls-17" d="M255.21,147.18c.24-.41.36-.88.38-1.38"/>
        <path class="cls-17" d="M258.62,146.3c.6-.33.93-.98,1.03-1.62"/>
        <path class="cls-17" d="M262.59,67.6s-.07-.1-.07-.14l.17-.14"/>
        <path class="cls-17" d="M254.37,78.25c.41-.5.53-1.17.55-1.84v-.12c-.05-2.17-1.34-4.8-3.51-5.04"/>
        <path class="cls-17" d="M253.35,147.42c.14.07.29.07.43.02"/>
      </g>
    </g>
    <polyline class="cls-17" points="271.04 78.85 271.11 78.82 271.13 76.72"/>
    <line class="cls-17" x1="251.84" y1="146.78" x2="252.1" y2="146.95"/>
    <g class="cls-36">
      <g>
        <path class="cls-17" d="M250.31,143.89c.05.86.33,1.74.93,2.39"/>
        <path class="cls-17" d="M249.62,72.61c.43-.88,1.79-.86,2.6-.29,1.29.86,1.98,2.46,2.01,3.99-.02,1.15-.76,2.46-1.89,2.29"/>
        <path class="cls-17" d="M249.21,74.19c0-.41.02-.84.21-1.22"/>
      </g>
    </g>
    <line class="cls-17" x1="249.62" y1="76.17" x2="249.38" y2="75.55"/>
    <g class="cls-66">
      <path class="cls-17" d="M250.46,77.48c-.21-.21-.36-.48-.5-.72"/>
    </g>
    <line class="cls-17" x1="250.96" y1="77.99" x2="250.74" y2="77.79"/>
    <line class="cls-17" x1="251.72" y1="78.46" x2="251.46" y2="78.34"/>
    <line class="cls-17" x1="228.8" y1="62.68" x2="228.8" y2="59.53"/>
    <g class="cls-3">
      <g>
        <path class="cls-17" d="M262.87,148.66c1.62-.55,2.96,1.62,3.03,3.37-.02.67-.29,1.38-.88,1.72"/>
        <path class="cls-17" d="M244.01,151.58c1.1-.36,1.6-1.65,1.62-2.79-.05-2.72-2.27-6.28-4.82-5.28"/>
        <path class="cls-17" d="M253.25,70.06c2.46-.93,4.58,2.48,4.61,5.11,0,1.03-.38,2.15-1.29,2.6"/>
        <path class="cls-17" d="M266.86,69.2s.1-.24.02-.36l-1.96-3.3"/>
        <path class="cls-17" d="M232.24,63.78c.55-.33.79-1,.84-1.65-.05-1.12-.55-2.24-1.46-2.96-.64-.12-1.29-.12-1.96,0v.17"/>
        <path class="cls-17" d="M265.59,71.71s.12-.1.12-.17v-2.55"/>
        <path class="cls-17" d="M250.31,143.55c.02-.5.14-1.05.53-1.41.36-.29.86-.26,1.29-.12"/>
        <path class="cls-17" d="M254.23,76.31c.24.1.48.1.72,0l2.91-1.15"/>
        <path class="cls-17" d="M250.27,154.49c.05,1.27.72,2.53,1.79,3.1"/>
        <path class="cls-17" d="M250.27,154.18c.02-.53.14-1.1.53-1.41.36-.29.86-.29,1.29-.14"/>
      </g>
    </g>
    <line class="cls-17" x1="226.24" y1="63.95" x2="226.24" y2="57.95"/>
    <line class="cls-17" x1="226.2" y1="76.36" x2="226.22" y2="70.37"/>
    <line class="cls-17" x1="264.47" y1="65.81" x2="266.41" y2="69.1"/>
    <line class="cls-17" x1="224.31" y1="76.46" x2="224.33" y2="70.49"/>
    <line class="cls-17" x1="224.33" y1="64.04" x2="224.36" y2="58.05"/>
    <line class="cls-17" x1="265.67" y1="53.06" x2="267.48" y2="53.82"/>
    <line class="cls-17" x1="238.97" y1="41.79" x2="240.93" y2="42.62"/>
    <line class="cls-17" x1="265.67" y1="52.32" x2="267.48" y2="53.06"/>
    <line class="cls-17" x1="238.97" y1="41.05" x2="241.69" y2="42.19"/>
    <line class="cls-17" x1="261.54" y1="77.79" x2="260.6" y2="78.2"/>
    <line class="cls-17" x1="261.54" y1="74" x2="260.6" y2="74.43"/>
    <line class="cls-17" x1="260.13" y1="150.48" x2="258.84" y2="151.03"/>
    <line class="cls-17" x1="262.16" y1="155.25" x2="261.2" y2="155.66"/>
    <line class="cls-17" x1="262.16" y1="154.66" x2="261.2" y2="155.04"/>
    <polyline class="cls-17" points="268.67 168.15 271.42 167 271.76 166.84"/>
    <polyline class="cls-17" points="231.62 59.17 231.62 57.71 228.2 56.28"/>
    <polyline class="cls-17" points="231.57 76.22 231.59 74.55 230.71 74.19 230.71 69.8 228.18 68.7"/>
    <line class="cls-17" x1="265.67" y1="54.51" x2="267.48" y2="55.28"/>
    <line class="cls-17" x1="238.97" y1="43.27" x2="240.74" y2="44.01"/>
    <line class="cls-17" x1="228.23" y1="59.31" x2="228.23" y2="57.69"/>
    <line class="cls-17" x1="228.18" y1="76.12" x2="228.18" y2="74.5"/>
    <polyline class="cls-17" points="226.58 76.22 226.58 74.59 227.7 74.17 230.71 74.19"/>
    <line class="cls-17" x1="226.63" y1="59.41" x2="226.63" y2="57.78"/>
    <line class="cls-17" x1="227.7" y1="74.17" x2="227.7" y2="69.77"/>
    <g class="cls-61">
      <g>
        <path class="cls-17" d="M223.5,63.52c.14.33.5.45.84.53.64.12,1.29.12,1.91-.1l1.48-.6h1.5"/>
        <path class="cls-17" d="M264.47,65.57h0l-1.89,1.6-.05.05c-.1.14-.1.33.05.38h.05l.86.38"/>
        <path class="cls-17" d="M263.49,68.03s.17.21.17.36v2.55s.07.19.12.21h.05l1.41.64h.12"/>
      </g>
    </g>
    <polyline class="cls-17" points="265.52 71.73 265.59 71.71 265.52 71.71 265.36 71.61"/>
    <g class="cls-44">
      <path class="cls-17" d="M250.15,143.48v.26c.02.86.29,1.74.84,2.41"/>
    </g>
    <polyline class="cls-17" points="254.61 147.69 254.61 147.69 258.62 146.3"/>
    <g class="cls-49">
      <path class="cls-17" d="M262.16,154.18v3.1c-.02.79-.36,1.65-1.07,2.05"/>
    </g>
    <polyline class="cls-17" points="223.5 69.7 223.47 69.8 223.47 75.79"/>
    <g class="cls-26">
      <g>
        <path class="cls-17" d="M251.72,146.92c.17.14.38.26.6.36l.96.38c.17.1.36.12.53.14"/>
        <path class="cls-17" d="M223.47,75.96c.14.29.5.41.84.5.62.14,1.29.12,1.89-.1l.38-.14.67.29.91-.38,3.39.1"/>
        <path class="cls-17" d="M240.88,62.35h0s.12.17.24.24l3.56,1.5c.29.1.62.14.91.07"/>
        <path class="cls-17" d="M247.21,145.37s.12.21.21.26l3.56,1.5c.29.1.62.12.91.07"/>
        <path class="cls-17" d="M234.86,69.06c.12.14.24.26.41.36l1.6.69"/>
        <path class="cls-17" d="M253.82,147.69l5.99,2.51c.33.14.62.38.91.62"/>
        <path class="cls-17" d="M243.94,139.52l-1.22.48c-1.62.53-2.91-1.62-3.01-3.34.02-.36.05-.72.21-1"/>
        <path class="cls-17" d="M250.12,154.04h0v.29c.02,1.48.86,2.91,2.15,3.56l.96.38c.33.12.64.17,1,.12l.36-.1,4.01-1.38"/>
        <path class="cls-17" d="M255.02,150.07l-3.8,1.91-.33.21c-.45.36-.67.96-.74,1.5"/>
        <path class="cls-17" d="M252.13,140.93l-.88.45-.33.21c-.43.38-.67.96-.74,1.5"/>
        <path class="cls-17" d="M254.11,78.53l4.11,1.72c.41.17.88.17,1.34.02l1.84-.79"/>
        <path class="cls-17" d="M268.89,75.79h.02-.05l-3.25,1.48h-.02l-.02,2.01c.02.07.05.12.1.14l1.91.79s.1.02.14,0l3.37-1.29"/>
        <path class="cls-17" d="M265.64,68.86s-.24,0-.24.02h.24l.86.36s.12.02.19,0l.17-.05h-.1l-.02-.02"/>
        <path class="cls-17" d="M253.25,70.06c-.91.45-1.84.88-2.75,1.34l-.21.1c-.88.5-1.24,1.6-1.24,2.58,0,2.46,1.91,5.47,4.3,4.89l.24-.1c.98-.36,1.96-.74,2.96-1.1"/>
      </g>
    </g>
    <line class="cls-17" x1="269.77" y1="125.55" x2="270.92" y2="125.1"/>
    <g class="cls-29">
      <g>
        <path class="cls-17" d="M228.8,62.68c.48.88,1.36,1.74,2.34,1.53.38-.14.74-.29,1.12-.45"/>
        <path class="cls-17" d="M224.72,56.76c-.24.02-.48.1-.72.17-.21.1-.41.24-.5.45v5.99"/>
        <path class="cls-17" d="M262.87,148.66l-1.17.53c-.6.33-.84,1-.86,1.67.07,1.72,1.38,3.87,3.01,3.34l1.17-.48"/>
        <path class="cls-17" d="M257.76,146.63l1.1.45c.41.17.88.17,1.34.02l1.98-.86"/>
        <path class="cls-17" d="M257.74,157.24l1.1.48c.41.14.88.17,1.34.02l1.98-.88"/>
        <path class="cls-17" d="M240.83,143.51l-3.2,1.62c-.91.45-1.27,1.53-1.29,2.53.05,2.48,1.86,5.64,4.3,5.06l3.37-1.15"/>
      </g>
    </g>
    <polyline class="cls-17" points="229.85 135.75 229.92 135.67 229.85 135.75 227.96 136.56 227.94 151.94 271.37 170.27 271.99 170.04"/>
    <g class="cls-73">
      <g>
        <path class="cls-17" d="M238.37,146.8c1.34-.43,2.41,1.36,2.48,2.75-.02.55-.24,1.15-.72,1.41"/>
        <path class="cls-17" d="M225.55,56.71c.14.02.33.07.5.1l1.1-.48.88-.14"/>
        <path class="cls-17" d="M261.13,148.74c.72-.38,1.03-1.24,1.03-2.05v-1.17"/>
      </g>
    </g>
    <polyline class="cls-17" points="246.35 144.56 246.49 144.61 251.82 146.85"/>
    <g class="cls-42">
      <g>
        <path class="cls-17" d="M240.07,61.56h.12l19.01,8.02c1.5.69,2.34,2.39,2.36,4.01v6.23c-.02.84-.36,1.67-1.07,2.05"/>
        <path class="cls-17" d="M223.98,69.34c.62-.24,1.36-.24,2.03-.12l1.1-.48.88-.12"/>
        <path class="cls-17" d="M236.7,71.85c.12-.14.17-.33.17-.48v-4.37c0-.41-.21-.79-.6-1l-3.39-1.43h-.24"/>
      </g>
    </g>
    <line class="cls-17" x1="260.46" y1="146.99" x2="262.01" y2="147.66"/>
    <line class="cls-17" x1="255.26" y1="145.56" x2="255.59" y2="145.68"/>
    <line class="cls-17" x1="246.13" y1="141.69" x2="250.34" y2="143.48"/>
    <polyline class="cls-17" points="272.14 160.36 271.4 160.65 268.72 159.5"/>
    <line class="cls-17" x1="260.41" y1="157.62" x2="261.99" y2="158.29"/>
    <line class="cls-17" x1="246.11" y1="152.32" x2="250.12" y2="154.04"/>
    <polyline class="cls-17" points="272.26 114.11 271.54 114.4 269.8 113.66"/>
    <line class="cls-17" x1="248.47" y1="146.04" x2="248.47" y2="145.42"/>
    <polyline class="cls-17" points="272.28 67.98 271.66 68.22 268.99 67.07"/>
    <line class="cls-17" x1="259.74" y1="80.16" x2="261.37" y2="80.83"/>
    <line class="cls-17" x1="239.81" y1="72.47" x2="249.74" y2="76.67"/>
    <line class="cls-17" x1="242.15" y1="63.01" x2="242.15" y2="62.39"/>
    <polyline class="cls-17" points="271.35 68.22 271.35 74.71 271.64 74.83 271.99 74.69 272.38 74.55"/>
    <line class="cls-17" x1="271.09" y1="165" x2="271.09" y2="160.51"/>
    <line class="cls-17" x1="230.64" y1="137.68" x2="230.69" y2="130.9"/>
    <line class="cls-17" x1="234.86" y1="69.06" x2="234.86" y2="65.43"/>
    <polyline class="cls-17" points="226.63 59.41 227.32 59.67 228.23 59.31 229.68 59.34"/>
    <line class="cls-17" x1="228.13" y1="76.17" x2="228.13" y2="78.22"/>
    <line class="cls-17" x1="228.18" y1="63.35" x2="228.18" y2="68.7"/>
    <polyline class="cls-17" points="228.2 56.28 228.23 48.83 229.85 48.09"/>
    <line class="cls-17" x1="271.09" y1="161.87" x2="271.85" y2="162.18"/>
    <polyline class="cls-17" points="269.15 143.22 269.13 143.17 269.27 102.08 269.27 101.96"/>
    <g class="cls-43">
      <g>
        <path class="cls-17" d="M260.48,115.24c.17.12.29.36.33.6"/>
        <path class="cls-17" d="M230.21,106.21c.17.12.29.36.29.6"/>
      </g>
    </g>
    <line class="cls-17" x1="264.23" y1="144.29" x2="264.5" y2="144.27"/>
    <g class="cls-13">
      <g>
        <path class="cls-17" d="M263.66,103.11l-.12,41.07c.21.1.41.12.64.12"/>
        <path class="cls-17" d="M219.56,79.68l.17.07c14.3,7.02,28.77,13.78,43.31,20.3"/>
      </g>
    </g>
    <line class="cls-17" x1="217.86" y1="122.78" x2="217.86" y2="122.52"/>
    <g class="cls-38">
      <g>
        <path class="cls-17" d="M218.96,124.83c14.35,7.02,28.8,13.8,43.34,20.34"/>
        <path class="cls-17" d="M219.1,80.71c14.3,7.02,28.77,13.78,43.31,20.34"/>
      </g>
    </g>
    <line class="cls-17" x1="271.35" y1="114.33" x2="269.8" y2="115.07"/>
    <line class="cls-17" x1="237.47" y1="83.86" x2="236.3" y2="84.36"/>
    <g class="cls-65">
      <g>
        <path class="cls-17" d="M234.1,103.01h.12c8.72,4.15,17.5,8.21,26.29,12.18.21.12.33.36.36.6l-.05,13.18c0,.12-.02.21-.1.26"/>
        <path class="cls-17" d="M269.27,102.08c-.84.24-1.65.48-2.51.64-.72.17-1.46.33-2.15.48-.02-1.24-.55-2.48-1.55-3.15-.36.21-.55.6-.62,1,.76.36,1.15,1.22,1.24,2.08.21.05.43.1.67.1"/>
        <path class="cls-17" d="M262.71,124.26c.33-.05.5-.41.5-.74"/>
        <path class="cls-17" d="M221.09,79.16l-1.36.6c-.36.17-.6.55-.62.98-.5-.17-1.03.24-1.1.76"/>
        <path class="cls-17" d="M262.49,145.23c.53.21,1.03-.43,1.05-1.03"/>
        <path class="cls-17" d="M264.23,145.39c.24-.29.26-.74.26-1.12.72-.14,1.41-.26,2.13-.43.84-.21,1.67-.41,2.51-.64"/>
      </g>
    </g>
    <line class="cls-17" x1="263.83" y1="145.78" x2="264.04" y2="145.63"/>
    <g class="cls-54">
      <g>
        <path class="cls-17" d="M218.36,124.26c.12.17.24.29.38.45"/>
        <path class="cls-17" d="M217.86,122.78c.02.21.05.41.1.62"/>
        <path class="cls-17" d="M261.87,121.9c.14-.02.33-.02.5.07.5.29.79.88.84,1.48-.36.14-.76.12-1.15,0,0,.1-.02.21-.1.24-.05.07-.14.07-.21.02-.1-.02-.19-.12-.24-.21-.02-.1-.05-.21-.05-.29s0-.17.05-.24.14-.07.24-.02c.1.02.14.12.21.21s.1.21.1.29"/>
        <path class="cls-17" d="M262.37,121.97s-.26-.1-.38-.1"/>
        <path class="cls-17" d="M222.83,102.6h.12c2.41,1.22,4.87,2.39,7.28,3.58.21.12.33.36.33.62v3.15c0,.12-.02.21-.1.26"/>
        <path class="cls-17" d="M261.2,122.92s.14.21.26.26"/>
        <path class="cls-17" d="M263.04,100.02c.86-.14,1.67-.33,2.53-.5.72-.17,1.46-.36,2.15-.55"/>
      </g>
    </g>
    <line class="cls-17" x1="221.59" y1="79.2" x2="226.36" y2="77.17"/>
    <line class="cls-17" x1="264.5" y1="144.27" x2="264.62" y2="103.2"/>
    <g class="cls-1">
      <g>
        <path class="cls-17" d="M230.45,110.24s-.1.07-.14.07h-.12c-2.46-1.17-4.87-2.36-7.33-3.53-.17-.14-.29-.38-.33-.62v-3.18c.02-.12.05-.21.12-.26"/>
        <path class="cls-17" d="M233.86,103.34c.02-.14.1-.26.24-.33-.1.02-.14.02-.17.1-.05.1-.1.17-.12.26v13.2c0,.24.12.48.29.62,8.74,4.13,17.5,8.17,26.31,12.13h.12s.1,0,.14-.02"/>
      </g>
    </g>
    <polyline class="cls-17" points="264.23 97.45 264.23 97.18 221.3 79.06"/>
    <g class="cls-48">
      <g>
        <path class="cls-17" d="M233.86,116.72c.05.17.14.33.26.41"/>
        <path class="cls-17" d="M264.11,97.45l3.63,1.53c.96.43,1.55,1.43,1.84,2.46l.26,8.74-.1,24.43-.33,8.98c-.12.5-.45.96-.96,1.12-1.77.5-3.13.76-4.92,1.15-.29.05-.6-.02-.88-.12l-.17-.1c-14.57-6.49-29.04-13.28-43.31-20.34-.98-.53-1.41-1.67-1.48-2.77l.12-41.07c0-.62.29-1.17.72-1.62l.26-.14,1.5-.64c.24-.05.48-.12.72-.02"/>
        <path class="cls-17" d="M237.47,85.58v-1.72l-11.1-6.71c-.33-.12-.67-.12-1-.02l-4.37,1.86"/>
        <path class="cls-17" d="M261.89,121.9h.1-.12c-.41.17-.64.62-.69,1.03.02.76.76,1.53,1.5,1.34h-.1"/>
        <path class="cls-17" d="M260.48,129.3s.14,0,.24-.05"/>
        <path class="cls-17" d="M230.23,110.24s.14.02.24-.02"/>
      </g>
    </g>
    <line class="cls-17" x1="271.87" y1="121.97" x2="269.77" y2="123"/>
    <polyline class="cls-17" points="236.3 84.29 236.3 84.36 237.2 85.79"/>
    <line class="cls-17" x1="247.52" y1="188.28" x2="250.48" y2="189.52"/>
    <g class="cls-60">
      <path class="cls-17" d="M250.15,184.17c.6.88,1,1.89,1.24,2.89"/>
    </g>
    <polyline class="cls-17" points="246.9 187.49 246.35 187.78 246.33 191.55 247.5 192.05"/>
    <line class="cls-17" x1="246.35" y1="182.45" x2="246.35" y2="186.22"/>
    <polyline class="cls-17" points="243.36 184.98 243.36 186.49 246.35 187.78"/>
    <polyline class="cls-17" points="243.96 185.22 243.96 186.27 246.9 187.51 246.9 191.31 247.5 191.55"/>
    <g class="cls-23">
      <path class="cls-17" d="M251.65,186.99c-.07-1.1-.5-2.17-1.27-2.98"/>
    </g>
    <line class="cls-17" x1="248.12" y1="187.99" x2="250.48" y2="188.99"/>
    <line class="cls-17" x1="246.33" y1="191.55" x2="246.9" y2="191.31"/>
    <line class="cls-17" x1="246.95" y1="182.69" x2="246.95" y2="185.99"/>
    <line class="cls-17" x1="243.36" y1="186.49" x2="243.96" y2="186.27"/>
    <polyline class="cls-17" points="246.35 182.45 247.52 182.95 247.52 186.73 250.5 187.99 250.48 189.52"/>
    <g class="cls-59">
      <path class="cls-17" d="M250.38,184.03c-.53-.53-1.07-1.05-1.6-1.55-1.22-1.15-2.98-2.03-4.51-1.36-1.5.64-2.05,2.51-2.1,4.15.02,1.27.29,2.53.79,3.72.5,1.15,1.17,2.22,2.1,3.08,1.1,1.05,2.63,1.89,4.11,1.5,1.72-.48,2.46-2.51,2.51-4.32v-2.24l-.02-.1"/>
    </g>
    <polyline class="cls-17" points="247.5 192.05 247.52 188.28 248.12 188.02 248.12 187.97"/>
    <polyline class="cls-17" points="243.36 184.98 246.35 186.22 246.95 185.99"/>
    <line class="cls-17" x1="247.97" y1="30.78" x2="250.91" y2="32.04"/>
    <polyline class="cls-17" points="247.38 30.04 246.78 30.28 246.75 34.07 247.95 34.58"/>
    <line class="cls-17" x1="246.78" y1="24.95" x2="246.78" y2="28.77"/>
    <polyline class="cls-17" points="243.82 27.48 243.82 29.04 246.78 30.28"/>
    <polyline class="cls-17" points="244.39 27.77 244.39 28.77 247.38 30.04 247.35 33.81 247.95 34.07"/>
    <line class="cls-17" x1="248.57" y1="30.54" x2="250.93" y2="31.54"/>
    <line class="cls-17" x1="246.75" y1="34.07" x2="247.35" y2="33.81"/>
    <line class="cls-17" x1="247.38" y1="25.22" x2="247.38" y2="28.49"/>
    <line class="cls-17" x1="243.82" y1="29.04" x2="244.39" y2="28.77"/>
    <polyline class="cls-17" points="246.78 24.95 247.97 25.45 247.97 29.27 250.96 30.49 250.91 32.04"/>
    <g class="cls-41">
      <path class="cls-17" d="M249.24,24.95c-1.22-1.12-2.98-2.01-4.51-1.34-1.5.64-2.05,2.51-2.1,4.13.02,1.29.29,2.55.79,3.75.5,1.12,1.19,2.22,2.1,3.08,1.1,1.07,2.63,1.89,4.11,1.48,1.72-.48,2.44-2.51,2.51-4.27"/>
    </g>
    <polyline class="cls-17" points="247.95 34.58 247.97 30.78 248.57 30.54 248.57 30.44"/>
    <polyline class="cls-17" points="243.82 27.48 246.78 28.75 247.38 28.49"/>
    <polyline class="cls-17" points="249.62 173.14 249.02 173.38 246.06 172.14 246.06 170.58"/>
    <g class="cls-35">
      <path class="cls-17" d="M254.04,172.47c-.24-.88-.6-1.74-1.1-2.51"/>
    </g>
    <polyline class="cls-17" points="250.22 177.68 249 177.17 249.02 173.38"/>
    <line class="cls-17" x1="253.2" y1="175.1" x2="250.22" y2="173.88"/>
    <line class="cls-17" x1="249.02" y1="171.85" x2="249.02" y2="168.05"/>
    <polyline class="cls-17" points="246.06 172.14 246.64 171.87 246.64 170.87"/>
    <g class="cls-67">
      <path class="cls-17" d="M252.99,169.53c.84.86,1.29,2.03,1.36,3.25"/>
    </g>
    <polyline class="cls-17" points="249 177.17 249.6 176.91 249.62 173.14 246.64 171.87"/>
    <line class="cls-17" x1="250.22" y1="177.17" x2="249.6" y2="176.91"/>
    <line class="cls-17" x1="253.2" y1="174.64" x2="250.81" y2="173.64"/>
    <line class="cls-17" x1="249.62" y1="171.59" x2="249.62" y2="168.32"/>
    <g class="cls-27">
      <path class="cls-17" d="M252.99,169.53c-.5-.5-1-.98-1.5-1.48-1.22-1.12-2.98-2.01-4.51-1.36-1.48.67-2.05,2.51-2.1,4.15.02,1.27.29,2.58.79,3.72.5,1.15,1.17,2.24,2.1,3.1,1.1,1.07,2.63,1.86,4.11,1.48,1.72-.48,2.46-2.51,2.51-4.27v-2.1"/>
    </g>
    <line class="cls-17" x1="252.96" y1="168.01" x2="251.89" y2="168.44"/>
    <line class="cls-17" x1="254.35" y1="174.31" x2="259.1" y2="172.3"/>
    <polyline class="cls-17" points="250.22 177.68 250.22 173.88 250.81 173.64 250.81 173.55"/>
    <polyline class="cls-17" points="253.2 175.1 253.2 173.59 250.22 172.38 250.22 168.55 249.02 168.05"/>
    <polyline class="cls-17" points="246.06 170.58 249.02 171.85 249.62 171.59"/>
    <line class="cls-17" x1="250.58" y1="47.28" x2="253.54" y2="48.52"/>
    <g class="cls-33">
      <path class="cls-17" d="M254.4,45.85c-.24-.88-.6-1.74-1.07-2.51"/>
    </g>
    <polyline class="cls-17" points="249.98 46.51 249.38 46.78 249.38 50.55 250.58 51.05"/>
    <line class="cls-17" x1="249.41" y1="41.45" x2="249.38" y2="45.25"/>
    <polyline class="cls-17" points="246.44 44.01 246.44 45.51 249.38 46.78"/>
    <line class="cls-17" x1="251.15" y1="47.02" x2="253.54" y2="48.02"/>
    <g class="cls-11">
      <path class="cls-17" d="M253.35,42.93c.84.86,1.34,2.03,1.38,3.22"/>
    </g>
    <polyline class="cls-17" points="249.38 50.55 249.98 50.31 250.58 50.55"/>
    <polyline class="cls-17" points="246.44 45.51 246.99 45.27 249.98 46.51 249.98 50.31"/>
    <line class="cls-17" x1="250" y1="41.69" x2="249.98" y2="45.01"/>
    <line class="cls-17" x1="247.02" y1="44.25" x2="246.99" y2="45.27"/>
    <polyline class="cls-17" points="249.41 41.45 250.6 41.95 250.58 45.75 253.54 47.02 253.54 48.52"/>
    <g class="cls-74">
      <g>
        <path class="cls-17" d="M253.35,42.93c-.5-.5-1-1-1.5-1.48-.29-.29-.62-.6-.98-.79"/>
        <path class="cls-17" d="M247.07,40.28c-1.36.67-1.77,2.46-1.84,3.99.02,1.27.29,2.53.79,3.72.5,1.15,1.22,2.22,2.1,3.1,1.1,1.03,2.65,1.86,4.11,1.48,1.74-.48,2.48-2.51,2.51-4.3v-2.1"/>
      </g>
    </g>
    <line class="cls-17" x1="253.35" y1="41.38" x2="252.25" y2="41.83"/>
    <line class="cls-17" x1="254.75" y1="47.68" x2="259.46" y2="45.7"/>
    <polyline class="cls-17" points="246.44 44.01 249.38 45.25 249.98 45.01"/>
    <polyline class="cls-17" points="250.58 51.05 250.58 47.28 251.15 47.02 251.15 46.99"/>
    <polygon class="cls-28" points="196.13 38.35 173.86 38.35 240.76 82.02 161.94 38.35 83.53 38.35 83.53 15.35 196.13 15.35 196.13 38.35"/>
    <polygon class="cls-14" points="196.13 38.35 173.86 38.35 240.76 82.02 161.94 38.35 83.53 38.35 83.53 15.35 196.13 15.35 196.13 38.35"/>
    <polygon class="cls-17" points="196.13 38.35 173.86 38.35 240.76 82.02 161.94 38.35 83.53 38.35 83.53 15.35 196.13 15.35 196.13 38.35"/>
    <g>
      <path class="cls-51" d="M96.08,34.62v-8.07h-2.13v.48c0,4.54-1.74,6.57-2.48,7.45l-1.36-1.48c1.1-1.12,2.1-2.48,2.1-6.02v-.41h-1.89v-1.7h1.89v-3.56h-1.55v-1.7h8.41v1.7h-1.31v3.56h1.6v1.7h-1.6v8.07h-1.7l.02-.02ZM93.96,21.28v3.56h2.13v-3.56h-2.13ZM106.07,29.49c-1.05,1.62-3.25,3.63-6.18,5.13l-1.27-1.6c2.2-.74,4.94-2.82,6.23-4.87,0,0,1.22,1.34,1.22,1.34ZM105.83,24.43c-1.38,1.7-3.61,3.25-5.78,4.27l-.98-1.53c1.93-.69,4.3-2.36,5.56-3.89l1.17,1.15h.02ZM105.47,19.91c-1.81,2.08-4.39,3.27-5.23,3.63l-.98-1.48c1.7-.69,3.58-1.89,4.82-3.32l1.38,1.17h0Z"/>
      <path class="cls-51" d="M107.21,23.45c2.87-1.1,5.11-2.84,6.18-4.73l1.98.38c-.31.45-.48.74-.81,1.15h6.23v1.65c-1.43,2.44-3.44,4.15-5.28,5.35h6.52v7.4h-1.72v-.64h-7.35v.64h-1.72v-5.23c-1.55.62-2.94.98-3.77,1.17l-.62-1.86c1.65-.29,3.99-.81,6.61-2.24-1.05-1.03-2.1-1.81-3.1-2.53-1.05.64-1.77.88-2.36,1.1l-.81-1.6h.02ZM113.01,21.9c-.48.45-.69.62-1.24,1.07,1.12.69,2.6,1.93,3.27,2.51,2.1-1.43,3.08-2.89,3.53-3.58h-5.56ZM112.97,28.84v3.56h7.35v-3.56h-7.35Z"/>
      <path class="cls-51" d="M138.61,34.72c-3.01-1.12-5.8-3.99-7.02-7.64-.31.36-1.1,1.24-2.48,2.24v3.15c1.29-.21,2.63-.5,4.37-.88v1.53c-1.93.48-6.47,1.27-8.45,1.46l-.36-1.6c.84-.07,1.77-.17,2.77-.29v-2.39c-.64.31-1.5.72-3.27,1.31l-.67-1.65c3.58-.86,5.56-2.63,6.02-3.03h-5.8v-1.48h7.07v-1.19h-5.87v-1.41h5.87v-1.1h-6.69v-1.48h6.69v-1.36h1.7v1.36h6.61v1.48h-6.61v1.1h5.8v1.41h-5.8v1.19h7v1.48h-6.23c.14.43.48,1.31,1.31,2.44.26-.17,1.48-.96,2.79-2.27l1.27,1.24c-1.12.96-2.36,1.86-3.01,2.27,1.74,1.79,3.32,2.36,4.04,2.63l-1,1.53-.02-.05Z"/>
      <path class="cls-51" d="M144.77,27.2c-.5,2.67-1.7,4.94-3.18,6.33l-1.36-1.29c.93-.81,2.34-2.72,2.77-5.42l1.77.36v.02ZM140.47,23.83h15.66v1.65h-6.95v7.71c0,.74-.21,1.36-1.48,1.36h-3.06l-.24-1.7h2.58c.43,0,.43-.19.43-.48v-6.88h-6.95v-1.67ZM141.5,19.44h13.63v1.65h-13.63v-1.65ZM155.02,33.41c-1.07-1.24-2.6-4.11-3.25-6.18l1.7-.41c.41,1.41,1.41,3.39,2.87,5.32l-1.31,1.27h0Z"/>
      <path class="cls-51" d="M158.76,26.6c-.53.69-.84,1.03-1.15,1.31l-.79-2.13c1.19-1.31,2.17-2.84,2.77-6.9l1.81.17c-.17.91-.41,2.15-.93,4.01v11.51h-1.74v-7.98h.02ZM167.79,32.35c.76-2.24,1.43-5.66,1.62-8.24l1.84.19c-.26,2.08-.98,5.99-1.67,8.05h3.25v1.65h-11.37v-1.65h6.33ZM166.19,18.94h1.79v2.65h4.56v1.7h-10.75v-1.7h4.39v-2.65ZM163.99,31.42c-.12-2.17-.64-4.61-1.24-6.76l1.53-.41c.57,1.86,1.07,3.75,1.5,6.78l-1.79.36v.02Z"/>
      <path class="cls-51" d="M189.02,19.41v3.3h-6.49v.62h7.07v1.27h-7.07v.62h5.87v6.88h-10.86v-6.88h3.32v-.62h-6.97v-1.27h6.97v-.62h-6.45v-3.3h14.64-.02ZM176.24,32.78h13.35v1.38h-13.35v.43h-1.72v-8.69h1.72v6.88ZM176.03,20.58v.91h2.77v-.91h-2.77ZM179.18,26.34v.74h7.52v-.74h-7.52ZM179.18,28.22v.81h7.52v-.81h-7.52ZM179.18,30.16v.81h7.52v-.81h-7.52ZM180.35,20.58v.91h2.7v-.91h-2.7ZM184.6,20.58v.91h2.77v-.91h-2.77Z"/>
    </g>
    <g>
      <path class="cls-51" d="M5.59,89.61c2.79-1.43,7-4.94,8.98-11.6H6.26v-.96h9.41c-.57,2.55-1.55,4.94-2.94,7.04.5.48,2.72,2.55,5.13,5.4l-.72.81c-1.29-1.65-3.7-4.27-4.94-5.44-1.67,2.34-3.75,4.27-6.11,5.56l-.53-.81h.02Z"/>
      <path class="cls-51" d="M27.41,90.69h-.91v-8.62c-1.91,1.7-4.01,3.03-6.26,3.94l-.41-.98c2.01-.72,6.85-3.25,10.55-8.95l.86.6c-1.89,2.75-3.51,4.25-3.84,4.56v9.46Z"/>
      <path class="cls-51" d="M36.82,84.91c-.24-1.7-.67-2.94-1.17-4.11l.76-.26c.72,1.65,1.07,3.32,1.24,4.13l-.81.24h-.02ZM36.87,89.85c3.32-.76,6.61-2.6,7.35-9.69l.81.19c-1.03,7-3.8,9.24-7.88,10.36l-.31-.86h.02ZM40,84.12c-.17-1.31-.5-2.72-.93-4.01l.72-.21c.33.96.86,2.82,1.03,4.01l-.81.21h0Z"/>
      <path class="cls-51" d="M55.52,81.76h4.92v.96h-4.92c-.12,3.53-.96,6.4-5.87,7.86l-.41-.91c4.04-1.1,5.4-3.1,5.42-6.95h-6.26v-.96h6.26v-3.41c-2.53.48-4.73.55-5.47.57l-.17-.93c3.08,0,7.04-.64,9.72-1.86l.48.91c-1.22.5-2.46.86-3.72,1.15v3.58h.02Z"/>
      <path class="cls-51" d="M73.93,79.39v2.91c0,1.6-.07,5.8-.64,7-.53,1.12-1.7,1.12-2.27,1.12-1.22,0-1.77-.14-2.32-.26v-1.03c.57.12,1.48.31,2.46.31,1.17,0,1.36-.69,1.46-1.07.31-1.1.41-4.73.41-6.07v-1.93h-5.04c-.6,5.06-2.01,8.12-4.94,10.15l-.55-.79c1.6-1.19,4.01-3.34,4.63-9.36h-4.2v-.96h4.27c.12-1.62.1-2.67.1-3.32h.93c-.05,1.81-.12,2.63-.17,3.32h5.85l.02-.02Z"/>
      <path class="cls-51" d="M76.22,89.49c1.36-1.72,3.18-4.78,3.34-12.61l.96.19c-.36,7-1.53,10.53-3.58,13.11l-.72-.69ZM85.46,76.91c.41,7.62,2.17,10.6,3.8,12.58l-.76.76c-1.98-2.48-3.41-5.95-3.94-13.18l.91-.14v-.02ZM87.04,78.92c-.12-.41-.48-1.46-1-2.48l.67-.33c.41.64.84,1.77,1.05,2.39l-.72.43ZM88.73,78.25c-.21-.62-.64-1.67-1.03-2.44l.69-.36c.5.93.72,1.38,1.07,2.36l-.72.45-.02-.02Z"/>
      <path class="cls-51" d="M103.32,82.83v1.1h-12.61v-1.1h12.61Z"/>
    </g>
    <line class="cls-19" x1="45.34" y1="96.59" x2="57.47" y2="128.87"/>
    <polyline class="cls-17" points="118.75 79.92 118.75 79.87 119.92 79.37"/>
    <line class="cls-17" x1="168.46" y1="239.28" x2="169.25" y2="238.95"/>
    <g class="cls-69">
      <g>
        <path class="cls-17" d="M118.77,79.59c.05-.33.24-.6.5-.74"/>
        <path class="cls-17" d="M118.51,216.57l-.14.07c.02.84.45,1.65,1.17,2.01h.1"/>
      </g>
    </g>
    <line class="cls-17" x1="119.53" y1="216.12" x2="118.65" y2="216.5"/>
    <line class="cls-17" x1="120.7" y1="218.17" x2="119.92" y2="218.48"/>
    <g class="cls-30">
      <g>
        <path class="cls-17" d="M191.12,98.62c-.12-8.21-4.37-16.79-11.84-20.18l-.12.1"/>
        <path class="cls-17" d="M119.92,53.39c-1.46-.55-3.01-.88-4.58-.76"/>
        <path class="cls-17" d="M187.08,259.55c2.77-2.01,3.53-5.87,3.61-9.31"/>
      </g>
    </g>
    <polyline class="cls-17" points="120.15 53.51 179.08 78.34 179.3 78.44"/>
    <g class="cls-72">
      <g>
        <path class="cls-17" d="M189.4,98.76c-.21-7.71-4.2-15.69-11.15-19.01-.1-.05-.17-.1-.24-.12l-58.95-24.86s-.14-.07-.21-.1c-2.01-.76-4.27-1.03-6.23-.14-1.55.69-2.75,2.01-3.61,3.51"/>
        <path class="cls-17" d="M190.69,249.91h0l.41-150.96s.02-.21.02-.33"/>
        <path class="cls-17" d="M177.99,260.06c2.53.96,5.59.76,7.62-1,2.41-2.05,3.25-5.47,3.37-8.64v-.33l.45-150.98v-.36"/>
      </g>
    </g>
    <line class="cls-17" x1="118.55" y1="235.03" x2="119.06" y2="235.25"/>
    <g>
      <path class="cls-17" d="M119.94,79.18v.21l-.02.41-.38,135.91v.41c.02.84.43,1.65,1.17,2.03h.1l48.76,20.61"/>
      <path class="cls-17" d="M118.77,235.37h.1l.12.1,58.93,24.88s.14.1.24.12c1.34.5,2.75.79,4.15.74,1.1-.02,2.13-.21,3.13-.6l2.15-.91c3.75-1.72,5.25-6.28,5.3-10.39l.43-151.63c-.14-8.21-4.37-16.76-11.82-20.18l-59.36-25.02c-2.1-.86-4.49-1.1-6.59-.24l-2.24.96c-.96.48-1.79,1.1-2.51,1.86-2.29,2.36-3.1,5.75-3.3,9.03v.33l-.43,151s0,.21.02.33c.05,1.07.14,2.13.33,3.15.62,3.49,1.96,6.78,3.87,9.74,1.91,2.79,4.42,5.3,7.5,6.76.12.07.21.12.21.1,0,0-.1-.02-.21-.1"/>
      <path class="cls-17" d="M169.63,238.47v-.64l.38-135.87c0-.14.02-.29.02-.45-.02-.84-.43-1.65-1.17-2.03h-.12l-48.69-20.56-.12-.07c-.21-.07-.45-.1-.69,0l.14-.07"/>
      <path class="cls-17" d="M169.1,239.28c.14-.05.26-.14.36-.26"/>
      <path class="cls-17" d="M249.24,24.95c1.19,1.1,3.08,4.3,2.89,6.83"/>
    </g>
    <polygon class="cls-18" points="264.23 95.23 242.41 85.76 242.41 78.15 264.23 87.54 264.23 95.23"/>
  </g>
</svg>