<?xml version="1.0" encoding="UTF-8"?>
<svg id="_レイヤー_2" data-name="レイヤー_2" xmlns="http://www.w3.org/2000/svg" xmlns:xlink="http://www.w3.org/1999/xlink" viewBox="0 0 125.22 146.76">
  <defs>
    <style>
      .cls-1 {
        clip-path: url(#clippath-51);
      }

      .cls-2 {
        clip-path: url(#clippath-34);
      }

      .cls-3 {
        stroke-miterlimit: 2;
      }

      .cls-3, .cls-4, .cls-5, .cls-6, .cls-7, .cls-8 {
        stroke: #231815;
      }

      .cls-3, .cls-6, .cls-9, .cls-7, .cls-8 {
        fill: none;
      }

      .cls-3, .cls-7 {
        stroke-width: .3px;
      }

      .cls-10 {
        clip-path: url(#clippath-38);
      }

      .cls-11 {
        clip-path: url(#clippath-21);
      }

      .cls-4 {
        fill: #b3b3b3;
        stroke-miterlimit: 10;
        stroke-width: .61px;
      }

      .cls-12 {
        clip-path: url(#clippath-6);
      }

      .cls-13 {
        clip-path: url(#clippath-7);
      }

      .cls-14 {
        clip-path: url(#clippath-17);
      }

      .cls-15 {
        clip-path: url(#clippath-31);
      }

      .cls-16 {
        clip-path: url(#clippath-15);
      }

      .cls-17 {
        clip-path: url(#clippath-33);
      }

      .cls-18 {
        clip-path: url(#clippath-61);
      }

      .cls-19 {
        clip-path: url(#clippath-18);
      }

      .cls-20 {
        clip-path: url(#clippath-47);
      }

      .cls-21 {
        clip-path: url(#clippath-4);
      }

      .cls-22 {
        clip-path: url(#clippath-22);
      }

      .cls-23 {
        clip-path: url(#clippath-23);
      }

      .cls-24 {
        clip-path: url(#clippath-54);
      }

      .cls-25 {
        clip-path: url(#clippath-66);
      }

      .cls-26 {
        clip-path: url(#clippath-9);
      }

      .cls-5 {
        fill: #fff;
        stroke-width: .5px;
      }

      .cls-5, .cls-6, .cls-7, .cls-8 {
        stroke-linecap: round;
        stroke-linejoin: round;
      }

      .cls-27 {
        clip-path: url(#clippath-10);
      }

      .cls-28 {
        clip-path: url(#clippath-42);
      }

      .cls-29 {
        clip-path: url(#clippath-59);
      }

      .cls-30 {
        clip-path: url(#clippath-43);
      }

      .cls-31 {
        clip-path: url(#clippath-64);
      }

      .cls-32 {
        clip-path: url(#clippath-25);
      }

      .cls-33 {
        clip-path: url(#clippath-27);
      }

      .cls-34 {
        clip-path: url(#clippath-60);
      }

      .cls-6 {
        stroke-width: .75px;
      }

      .cls-35 {
        clip-path: url(#clippath-11);
      }

      .cls-36 {
        clip-path: url(#clippath-57);
      }

      .cls-37 {
        clip-path: url(#clippath-36);
      }

      .cls-38 {
        clip-path: url(#clippath-35);
      }

      .cls-39 {
        clip-path: url(#clippath-48);
      }

      .cls-40 {
        clip-path: url(#clippath-28);
      }

      .cls-41 {
        clip-path: url(#clippath-1);
      }

      .cls-42 {
        clip-path: url(#clippath-56);
      }

      .cls-43 {
        clip-path: url(#clippath-45);
      }

      .cls-44 {
        clip-path: url(#clippath-46);
      }

      .cls-45 {
        clip-path: url(#clippath-40);
      }

      .cls-46 {
        clip-path: url(#clippath-5);
      }

      .cls-47 {
        clip-path: url(#clippath-20);
      }

      .cls-48 {
        clip-path: url(#clippath-8);
      }

      .cls-49 {
        clip-path: url(#clippath-52);
      }

      .cls-50 {
        clip-path: url(#clippath-41);
      }

      .cls-51 {
        clip-path: url(#clippath-3);
      }

      .cls-52 {
        fill: #231815;
      }

      .cls-53 {
        clip-path: url(#clippath-26);
      }

      .cls-54 {
        clip-path: url(#clippath-12);
      }

      .cls-55 {
        clip-path: url(#clippath-50);
      }

      .cls-56 {
        clip-path: url(#clippath-14);
      }

      .cls-57 {
        clip-path: url(#clippath-30);
      }

      .cls-58 {
        clip-path: url(#clippath-19);
      }

      .cls-59 {
        clip-path: url(#clippath-32);
      }

      .cls-60 {
        clip-path: url(#clippath-55);
      }

      .cls-61 {
        clip-path: url(#clippath-53);
      }

      .cls-62 {
        clip-path: url(#clippath-39);
      }

      .cls-63 {
        clip-path: url(#clippath-16);
      }

      .cls-64 {
        clip-path: url(#clippath-2);
      }

      .cls-65 {
        clip-path: url(#clippath-29);
      }

      .cls-66 {
        clip-path: url(#clippath-49);
      }

      .cls-67 {
        clip-path: url(#clippath-37);
      }

      .cls-68 {
        clip-path: url(#clippath-58);
      }

      .cls-69 {
        clip-path: url(#clippath-13);
      }

      .cls-70 {
        clip-path: url(#clippath-63);
      }

      .cls-71 {
        clip-path: url(#clippath-24);
      }

      .cls-72 {
        clip-path: url(#clippath);
      }

      .cls-73 {
        clip-path: url(#clippath-65);
      }

      .cls-8 {
        stroke-width: .75px;
      }

      .cls-74 {
        clip-path: url(#clippath-44);
      }

      .cls-75 {
        clip-path: url(#clippath-62);
      }
    </style>
    <clipPath id="clippath">
      <rect class="cls-9" y="29.4" width="125.22" height="117.36"/>
    </clipPath>
    <clipPath id="clippath-1">
      <rect class="cls-9" y="29.4" width="125.22" height="117.36"/>
    </clipPath>
    <clipPath id="clippath-2">
      <rect class="cls-9" y="29.4" width="125.22" height="117.36"/>
    </clipPath>
    <clipPath id="clippath-3">
      <rect class="cls-9" y="29.4" width="125.22" height="117.36"/>
    </clipPath>
    <clipPath id="clippath-4">
      <rect class="cls-9" y="29.4" width="125.22" height="117.36"/>
    </clipPath>
    <clipPath id="clippath-5">
      <rect class="cls-9" y="29.4" width="125.22" height="117.36"/>
    </clipPath>
    <clipPath id="clippath-6">
      <rect class="cls-9" y="29.4" width="125.22" height="117.36"/>
    </clipPath>
    <clipPath id="clippath-7">
      <rect class="cls-9" y="29.4" width="125.22" height="117.36"/>
    </clipPath>
    <clipPath id="clippath-8">
      <rect class="cls-9" y="29.4" width="125.22" height="117.36"/>
    </clipPath>
    <clipPath id="clippath-9">
      <rect class="cls-9" y="29.4" width="125.22" height="117.36"/>
    </clipPath>
    <clipPath id="clippath-10">
      <rect class="cls-9" y="29.4" width="125.22" height="117.36"/>
    </clipPath>
    <clipPath id="clippath-11">
      <rect class="cls-9" y="29.4" width="125.22" height="117.36"/>
    </clipPath>
    <clipPath id="clippath-12">
      <rect class="cls-9" y="29.4" width="125.22" height="117.36"/>
    </clipPath>
    <clipPath id="clippath-13">
      <rect class="cls-9" y="29.4" width="125.22" height="117.36"/>
    </clipPath>
    <clipPath id="clippath-14">
      <rect class="cls-9" y="29.4" width="125.22" height="117.36"/>
    </clipPath>
    <clipPath id="clippath-15">
      <rect class="cls-9" y="29.4" width="125.22" height="117.36"/>
    </clipPath>
    <clipPath id="clippath-16">
      <rect class="cls-9" y="29.4" width="125.22" height="117.36"/>
    </clipPath>
    <clipPath id="clippath-17">
      <rect class="cls-9" y="29.4" width="125.22" height="117.36"/>
    </clipPath>
    <clipPath id="clippath-18">
      <rect class="cls-9" y="29.4" width="125.22" height="117.36"/>
    </clipPath>
    <clipPath id="clippath-19">
      <rect class="cls-9" y="29.4" width="125.22" height="117.36"/>
    </clipPath>
    <clipPath id="clippath-20">
      <rect class="cls-9" y="29.4" width="125.22" height="117.36"/>
    </clipPath>
    <clipPath id="clippath-21">
      <rect class="cls-9" y="29.4" width="125.22" height="117.36"/>
    </clipPath>
    <clipPath id="clippath-22">
      <rect class="cls-9" y="29.4" width="125.22" height="117.36"/>
    </clipPath>
    <clipPath id="clippath-23">
      <rect class="cls-9" y="29.4" width="125.22" height="117.36"/>
    </clipPath>
    <clipPath id="clippath-24">
      <rect class="cls-9" y="29.4" width="125.22" height="117.36"/>
    </clipPath>
    <clipPath id="clippath-25">
      <rect class="cls-9" y="29.4" width="125.22" height="117.36"/>
    </clipPath>
    <clipPath id="clippath-26">
      <rect class="cls-9" y="29.4" width="125.22" height="117.36"/>
    </clipPath>
    <clipPath id="clippath-27">
      <rect class="cls-9" y="29.4" width="125.22" height="117.36"/>
    </clipPath>
    <clipPath id="clippath-28">
      <rect class="cls-9" y="29.4" width="125.22" height="117.36"/>
    </clipPath>
    <clipPath id="clippath-29">
      <rect class="cls-9" y="29.4" width="125.22" height="117.36"/>
    </clipPath>
    <clipPath id="clippath-30">
      <rect class="cls-9" y="29.4" width="125.22" height="117.36"/>
    </clipPath>
    <clipPath id="clippath-31">
      <rect class="cls-9" y="29.4" width="125.22" height="117.36"/>
    </clipPath>
    <clipPath id="clippath-32">
      <rect class="cls-9" y="29.4" width="125.22" height="117.36"/>
    </clipPath>
    <clipPath id="clippath-33">
      <rect class="cls-9" y="29.4" width="125.22" height="117.36"/>
    </clipPath>
    <clipPath id="clippath-34">
      <rect class="cls-9" y="29.4" width="125.22" height="117.36"/>
    </clipPath>
    <clipPath id="clippath-35">
      <rect class="cls-9" y="29.4" width="125.22" height="117.36"/>
    </clipPath>
    <clipPath id="clippath-36">
      <rect class="cls-9" y="29.4" width="125.22" height="117.36"/>
    </clipPath>
    <clipPath id="clippath-37">
      <rect class="cls-9" y="29.4" width="125.22" height="117.36"/>
    </clipPath>
    <clipPath id="clippath-38">
      <rect class="cls-9" y="29.4" width="125.22" height="117.36"/>
    </clipPath>
    <clipPath id="clippath-39">
      <rect class="cls-9" y="29.4" width="125.22" height="117.36"/>
    </clipPath>
    <clipPath id="clippath-40">
      <rect class="cls-9" y="29.4" width="125.22" height="117.36"/>
    </clipPath>
    <clipPath id="clippath-41">
      <rect class="cls-9" y="29.4" width="125.22" height="117.36"/>
    </clipPath>
    <clipPath id="clippath-42">
      <rect class="cls-9" y="29.4" width="125.22" height="117.36"/>
    </clipPath>
    <clipPath id="clippath-43">
      <rect class="cls-9" y="29.4" width="125.22" height="117.36"/>
    </clipPath>
    <clipPath id="clippath-44">
      <rect class="cls-9" y="29.4" width="125.22" height="117.36"/>
    </clipPath>
    <clipPath id="clippath-45">
      <rect class="cls-9" y="29.4" width="125.22" height="117.36"/>
    </clipPath>
    <clipPath id="clippath-46">
      <rect class="cls-9" y="29.4" width="125.22" height="117.36"/>
    </clipPath>
    <clipPath id="clippath-47">
      <rect class="cls-9" y="29.4" width="125.22" height="117.36"/>
    </clipPath>
    <clipPath id="clippath-48">
      <rect class="cls-9" y="29.4" width="125.22" height="117.36"/>
    </clipPath>
    <clipPath id="clippath-49">
      <rect class="cls-9" y="29.4" width="125.22" height="117.36"/>
    </clipPath>
    <clipPath id="clippath-50">
      <rect class="cls-9" y="29.4" width="125.22" height="117.36"/>
    </clipPath>
    <clipPath id="clippath-51">
      <rect class="cls-9" y="29.4" width="125.22" height="117.36"/>
    </clipPath>
    <clipPath id="clippath-52">
      <rect class="cls-9" y="29.4" width="125.22" height="117.36"/>
    </clipPath>
    <clipPath id="clippath-53">
      <rect class="cls-9" y="29.4" width="125.22" height="117.36"/>
    </clipPath>
    <clipPath id="clippath-54">
      <rect class="cls-9" y="29.4" width="125.22" height="117.36"/>
    </clipPath>
    <clipPath id="clippath-55">
      <rect class="cls-9" y="29.4" width="125.22" height="117.36"/>
    </clipPath>
    <clipPath id="clippath-56">
      <rect class="cls-9" y="29.4" width="125.22" height="117.36"/>
    </clipPath>
    <clipPath id="clippath-57">
      <rect class="cls-9" y="29.4" width="125.22" height="117.36"/>
    </clipPath>
    <clipPath id="clippath-58">
      <rect class="cls-9" y="29.4" width="125.22" height="117.36"/>
    </clipPath>
    <clipPath id="clippath-59">
      <rect class="cls-9" y="29.4" width="125.22" height="117.36"/>
    </clipPath>
    <clipPath id="clippath-60">
      <rect class="cls-9" y="29.4" width="125.22" height="117.36"/>
    </clipPath>
    <clipPath id="clippath-61">
      <rect class="cls-9" y="29.4" width="125.22" height="117.36"/>
    </clipPath>
    <clipPath id="clippath-62">
      <rect class="cls-9" y="29.4" width="125.22" height="117.36"/>
    </clipPath>
    <clipPath id="clippath-63">
      <rect class="cls-9" y="29.4" width="125.22" height="117.36"/>
    </clipPath>
    <clipPath id="clippath-64">
      <rect class="cls-9" y="29.4" width="125.22" height="117.36"/>
    </clipPath>
    <clipPath id="clippath-65">
      <rect class="cls-9" y="29.4" width="125.22" height="117.36"/>
    </clipPath>
    <clipPath id="clippath-66">
      <rect class="cls-9" y="29.4" width="125.22" height="117.36"/>
    </clipPath>
  </defs>
  <g id="_レイヤー_1-2" data-name="レイヤー_1">
    <polyline class="cls-7" points="33.77 105.88 33.77 105.85 33.82 88.65 33.82 88.59"/>
    <g class="cls-72">
      <path class="cls-7" d="M30.14,94.16c.09.05.12.15.14.24"/>
      <path class="cls-7" d="M17.46,90.38c.09.05.12.15.12.24"/>
    </g>
    <line class="cls-7" x1="31.48" y1="89.07" x2="31.43" y2="106.28"/>
    <g class="cls-41">
      <path class="cls-7" d="M12.81,79.7c5.99,2.94,12.05,5.77,18.14,8.5"/>
    </g>
    <polyline class="cls-7" points="36.3 93.43 36.17 93.48 36.16 96.77"/>
    <polyline class="cls-7" points="36.17 93.48 35.62 93.36 35.12 93.57 34.05 94.07"/>
    <line class="cls-7" x1="20.51" y1="81.01" x2="20.01" y2="81.23"/>
    <g class="cls-64">
      <path class="cls-7" d="M19.09,89.04h.05c3.66,1.74,7.33,3.44,11.01,5.09.09.06.14.16.15.26l-.02,5.52s-.01.07-.04.11"/>
      <path class="cls-7" d="M31.43,106.28c-.01.14-.05.3-.16.38-.1.07-.23.06-.36.01v.04"/>
      <path class="cls-7" d="M31.22,87.78c-.15.09-.24.25-.26.42.32.16.49.52.52.86.1.04.2.05.3.05"/>
      <path class="cls-7" d="M33.82,88.65c-.35.1-.69.19-1.04.27-.31.06-.61.14-.91.18"/>
      <path class="cls-7" d="M31.07,97.94c.14-.04.22-.17.21-.32"/>
      <path class="cls-7" d="M13.64,79.05l-.57.24c-.15.09-.25.25-.26.42-.21-.09-.43.09-.46.31"/>
    </g>
    <line class="cls-7" x1="31.54" y1="106.95" x2="31.64" y2="106.88"/>
    <line class="cls-7" x1="14.01" y1="79" x2="15.85" y2="78.22"/>
    <g class="cls-51">
      <path class="cls-7" d="M30.72,96.95c.06-.02.14-.01.21.01.22.12.33.38.35.63-.15.06-.32.05-.48,0,0,.04-.01.07-.04.1-.02.03-.06.01-.09,0-.04-.01-.08-.04-.09-.07-.02-.04-.04-.09-.04-.14,0-.04,0-.07.04-.1.02-.01.06-.01.09,0,.04.01.07.04.09.07.02.04.04.09.04.14"/>
      <path class="cls-7" d="M30.93,96.96s-.1-.04-.16-.02"/>
      <path class="cls-7" d="M14.37,88.87h.05c1.01.51,2.04,1,3.05,1.48.09.06.14.16.14.26v1.33s-.01.07-.04.11"/>
      <path class="cls-7" d="M30.44,97.39s.06.09.11.1"/>
      <path class="cls-7" d="M31.22,87.78c.36-.06.7-.12,1.06-.21.3-.07.61-.15.9-.23"/>
    </g>
    <line class="cls-7" x1="35.6" y1="96.66" x2="35.62" y2="93.36"/>
    <g class="cls-21">
      <path class="cls-7" d="M30.66,96.99l.06-.04c-.17.07-.27.25-.28.43.01.32.32.63.63.56h-.02"/>
      <path class="cls-7" d="M14.25,90.33h0c.01.11.06.21.14.27,1.03.49,2.04.99,3.07,1.48h.05s.04,0,.06-.01"/>
      <path class="cls-7" d="M18.96,94.7h0c.01.11.06.2.14.26,3.66,1.73,7.33,3.44,11.02,5.09h.05s.05,0,.06-.01"/>
      <path class="cls-7" d="M18.98,89.17s.01-.06.04-.09c.01-.02.05-.04.07-.04-.06.02-.09.07-.1.14v5.53"/>
      <path class="cls-7" d="M30.65,97s.07-.06.12-.06c-.02,0-.05.01-.06.01"/>
    </g>
    <polyline class="cls-6" points="31.71 86.7 31.71 86.6 13.73 79.01"/>
    <g class="cls-46">
      <path class="cls-7" d="M14.27,90.34c.01.1.06.19.14.25"/>
      <path class="cls-7" d="M18.98,94.7c.01.1.06.19.14.25"/>
      <path class="cls-6" d="M31.66,86.7l1.52.64c.4.2.65.6.77,1.04l.11,3.66-.04,10.22-.12,3.77c-.06.2-.2.4-.41.46-.74.21-1.31.32-2.06.49-.12.01-.25-.01-.36-.06l-.09-.04c-6.1-2.71-12.15-5.55-18.14-8.5-.39-.22-.59-.7-.62-1.16l.05-17.2c.01-.26.12-.49.3-.69l.11-.06.63-.26c.1-.04.21-.05.3-.03"/>
      <path class="cls-6" d="M20.5,81.74v-.73s-4.65-2.79-4.65-2.79c-.14-.05-.28-.06-.42-.01l-1.83.77"/>
      <path class="cls-7" d="M30.56,97.35c.01.06.02.12.04.17"/>
      <path class="cls-6" d="M34.05,93.63l1.83-.62c.09-.04.18-.03.28,0l.06.03.07.39v3.29s-.14.05-.14.05l-.56-.11-.49.22-1.06.53"/>
      <path class="cls-7" d="M30.14,100.04s.07,0,.1-.01"/>
      <path class="cls-7" d="M17.47,92.07s.07,0,.1-.01"/>
    </g>
    <polyline class="cls-6" points="20.01 81.18 20.01 81.23 20.39 81.81"/>
    <line class="cls-7" x1="14.27" y1="90.33" x2="14.29" y2="88.99"/>
    <line class="cls-7" x1="35.57" y1="135.39" x2="35.58" y2="132.42"/>
    <g class="cls-12">
      <path class="cls-7" d="M32.39,145.24c.26.07.46-.27.47-.54"/>
      <path class="cls-7" d="M32.46,126.34c-.06.04-.11.11-.14.17"/>
      <path class="cls-7" d="M33.03,127.64c.06,0,.12-.01.17-.02"/>
      <path class="cls-7" d="M12.84,118.3v.07c-.3-.1-.59.16-.61.46"/>
      <path class="cls-7" d="M12.93,118.16s-.06.09-.09.14"/>
    </g>
    <line class="cls-7" x1="35.99" y1="132.15" x2="36.11" y2="132.1"/>
    <g class="cls-13">
      <path class="cls-7" d="M12.18,135.91v.06c.01.41.22.83.59,1.01l.12.05"/>
      <path class="cls-7" d="M12.83,118.37l19.49,8.23c.37.18.58.59.59,1.01l-.05,17.08"/>
    </g>
    <line class="cls-7" x1="36.11" y1="131.82" x2="36.3" y2="131.9"/>
    <line class="cls-7" x1="35.9" y1="135.45" x2="35.91" y2="132.28"/>
    <line class="cls-7" x1="32.46" y1="126.34" x2="35.38" y2="125.09"/>
    <line class="cls-7" x1="33.21" y1="127.61" x2="36.12" y2="126.35"/>
    <line class="cls-7" x1="34.03" y1="138.66" x2="36.1" y2="137.82"/>
    <g class="cls-48">
      <path class="cls-6" d="M34.03,137.81l1.16-.47c.1-.04.21-.02.3.01l.46.22c.09.05.14.15.15.25l-.03,5.75c-.01.25-.1.53-.32.66l-2.92,1.12-.12.04c-.12,0-.25,0-.36-.05l-19.49-8.22c-.46-.21-.74-.72-.74-1.21l.05-17.08c0-.25.09-.49.27-.66l.11-.07,2.83-1.29c.12-.04.27-.04.41.01l19.59,8.27c.47.22.73.74.74,1.26v5.75c-.01.05-.05.11-.1.14l-1.98.8"/>
      <path class="cls-6" d="M34.05,136.07l1.52-.68.33.06c.06.01.14,0,.2-.04l.19-.32s.02-.06.02-.1v-3.06s0-.04,0-.04l-.1-.04"/>
    </g>
    <line class="cls-6" x1="34.03" y1="138.66" x2="34.05" y2="132.94"/>
    <line class="cls-3" x1="17.92" y1="124.1" x2="18.14" y2="124.44"/>
    <line class="cls-3" x1="18.6" y1="125.17" x2="18.39" y2="124.84"/>
    <line class="cls-3" x1="18.85" y1="125.57" x2="19.42" y2="126.48"/>
    <line class="cls-3" x1="17.46" y1="123.36" x2="17.67" y2="123.7"/>
    <line class="cls-3" x1="21.17" y1="125.22" x2="21.38" y2="125.06"/>
    <line class="cls-3" x1="20.71" y1="125.55" x2="20.92" y2="125.4"/>
    <line class="cls-3" x1="19.42" y1="126.48" x2="19.99" y2="126.07"/>
    <line class="cls-3" x1="20.45" y1="125.73" x2="20.24" y2="125.89"/>
    <polyline class="cls-3" points="21.38 125.06 21.28 124.92 21.18 124.77 21.07 124.63 21.05 124.6 20.94 124.46 20.82 124.33 20.71 124.2 20.59 124.08 20.46 123.96 20.34 123.85 20.21 123.75 20.08 123.66 19.95 123.56 19.82 123.48 19.69 123.41 19.56 123.34 19.42 123.28 19.28 123.22 19.15 123.17 19.02 123.14 18.89 123.1 18.76 123.08 18.63 123.07 18.5 123.06 18.38 123.06 18.25 123.07 18.13 123.08 18.02 123.11 17.9 123.14 17.79 123.18 17.77 123.19 17.66 123.24 17.56 123.3 17.46 123.36"/>
    <polyline class="cls-3" points="17.67 123.7 17.76 123.64 17.86 123.59 17.96 123.54 18.04 123.51 18.15 123.48 18.26 123.45 18.38 123.44 18.49 123.43 18.61 123.43 18.73 123.44 18.85 123.45 18.98 123.48 19.1 123.51 19.17 123.53 19.29 123.57 19.42 123.62 19.55 123.68 19.68 123.75 19.74 123.78 19.86 123.86 19.99 123.95 20.11 124.04 20.23 124.13 20.35 124.24 20.47 124.34 20.58 124.46 20.69 124.58 20.8 124.71 20.88 124.8 20.98 124.94 21.08 125.08 21.17 125.22"/>
    <polyline class="cls-3" points="20.92 125.4 20.83 125.27 20.74 125.14 20.65 125.02 20.63 125 20.53 124.88 20.43 124.76 20.32 124.66 20.22 124.56 20.11 124.46 20 124.37 19.88 124.29 19.77 124.22 19.65 124.15 19.54 124.09 19.42 124.03 19.3 123.99 19.19 123.95 19.07 123.92 18.96 123.89 18.84 123.87 18.73 123.87 18.62 123.87 18.52 123.87 18.41 123.89 18.31 123.91 18.21 123.95 18.19 123.95 18.1 123.99 18.01 124.04 17.92 124.1"/>
    <polyline class="cls-3" points="18.14 124.44 18.21 124.38 18.3 124.34 18.36 124.32 18.45 124.28 18.54 124.26 18.64 124.24 18.74 124.24 18.84 124.24 18.94 124.25 19.05 124.26 19.16 124.29 19.26 124.32 19.31 124.34 19.42 124.38 19.53 124.43 19.64 124.49 19.68 124.52 19.79 124.59 19.9 124.66 20 124.74 20.1 124.83 20.2 124.92 20.3 125.02 20.39 125.13 20.48 125.24 20.54 125.31 20.63 125.43 20.71 125.55"/>
    <polyline class="cls-3" points="19.99 126.07 19.94 125.99 19.88 125.91 19.82 125.84 19.77 125.79 19.7 125.73 19.63 125.67 19.56 125.62 19.49 125.58 19.42 125.55 19.35 125.52 19.28 125.5 19.21 125.49 19.14 125.49 19.07 125.49 19.02 125.5 18.96 125.52 18.9 125.54 18.85 125.57"/>
    <polyline class="cls-3" points="18.39 124.84 18.46 124.79 18.53 124.75 18.61 124.72 18.7 124.7 18.78 124.68 18.87 124.67 18.96 124.68 19.05 124.68 19.15 124.7 19.25 124.73 19.32 124.75 19.42 124.79 19.52 124.84 19.59 124.88 19.69 124.94 19.79 125 19.88 125.07 19.97 125.15 20.06 125.24 20.15 125.33 20.23 125.42 20.31 125.52 20.38 125.63 20.45 125.73"/>
    <polyline class="cls-3" points="20.24 125.88 20.18 125.79 20.11 125.7 20.04 125.61 19.96 125.53 19.93 125.49 19.84 125.41 19.76 125.34 19.67 125.28 19.59 125.22 19.5 125.18 19.42 125.14 19.34 125.1 19.25 125.08 19.17 125.06 19.08 125.05 19 125.05 18.92 125.05 18.88 125.06 18.8 125.08 18.73 125.1 18.66 125.13 18.6 125.17"/>
    <g class="cls-26">
      <path class="cls-3" d="M26.18,127.04c0-.54-.38-1.14-.84-1.34-.47-.2-.84.07-.84.61s.38,1.14.84,1.34.84-.07.84-.61"/>
      <path class="cls-3" d="M26.18,131.02c0-.54-.38-1.14-.84-1.34-.47-.2-.84.07-.84.61s.38,1.14.84,1.34.84-.07.84-.61"/>
    </g>
    <polygon class="cls-52" points="27.31 130.68 27.3 130.69 27.29 130.7 27.28 130.71 27.28 130.72 27.27 130.74 27.27 130.75 27.27 130.77 27.27 130.79 27.27 131.26 27.27 131.29 27.27 131.36 27.27 131.44 27.26 131.51 27.26 131.56 27.25 131.63 27.23 131.7 27.22 131.75 27.21 131.77 27.18 131.81 27.15 131.85 27.12 131.89 27.11 131.89 27.08 131.91 27.05 131.93 27.01 131.93 26.98 131.94 26.95 131.94 26.91 131.94 26.87 131.93 26.83 131.93 26.79 131.92 26.75 131.91 26.73 131.9 26.71 131.91 26.71 131.91 26.69 131.92 26.69 131.94 26.68 131.96 26.68 131.99 26.68 131.99 26.69 132.03 26.69 132.05 26.7 132.08 26.72 132.1 26.74 132.12 26.76 132.13 26.76 132.13 26.76 132.14 26.76 132.14 26.77 132.14 26.77 132.14 26.77 132.14 26.78 132.14 26.78 132.14 26.78 132.14 26.78 132.14 26.8 132.15 26.85 132.16 26.9 132.17 26.94 132.17 26.99 132.18 27.04 132.17 27.07 132.17 27.12 132.16 27.16 132.14 27.2 132.12 27.23 132.1 27.25 132.08 27.29 132.04 27.32 131.99 27.34 131.94 27.37 131.88 27.39 131.81 27.4 131.74 27.41 131.67 27.41 131.59 27.42 131.5 27.42 131.41 27.42 131.32 27.42 130.86 27.42 130.84 27.42 130.82 27.42 130.8 27.42 130.78 27.41 130.77 27.4 130.75 27.4 130.74 27.39 130.73 27.38 130.71 27.36 130.7 27.35 130.69 27.34 130.69 27.33 130.68 27.31 130.68"/>
    <polygon class="cls-52" points="26.58 130.4 26.57 130.41 26.56 130.42 26.55 130.44 26.54 130.47 26.54 130.48 26.54 130.51 26.54 131.3 26.54 131.31 26.54 131.35 26.55 131.38 26.56 131.41 26.57 131.43 26.58 131.45 26.6 131.46 26.61 131.47 26.63 131.47 26.65 131.47 26.66 131.47 26.67 131.46 26.68 131.44 26.69 131.41 26.69 131.4 26.69 131.37 26.69 130.58 26.69 130.57 26.69 130.53 26.68 130.5 26.67 130.47 26.66 130.45 26.65 130.43 26.63 130.42 26.61 130.41 26.6 130.4 26.58 130.4"/>
    <polygon class="cls-52" points="28.58 132.84 28.54 132.83 28.51 132.82 28.48 132.81 28.44 132.8 28.41 132.78 28.37 132.77 28.34 132.76 28.31 132.74 28.27 132.73 28.24 132.71 28.24 132.71 28.21 132.7 28.18 132.69 28.15 132.67 28.12 132.66 28.1 132.65 28.07 132.63 28.04 132.61 28.01 132.59 27.99 132.57 27.96 132.55 27.93 132.52 27.91 132.49 27.88 132.46 27.86 132.42 27.85 132.4 27.83 132.36 27.83 132.32 27.82 132.28 27.82 132.24 27.81 132.2 27.81 132.19 27.81 131.49 27.64 131.44 27.62 131.43 27.6 131.42 27.58 131.4 27.57 131.37 27.55 131.35 27.55 131.33 27.55 131.3 27.54 131.28 27.55 131.27 27.55 131.24 27.56 131.23 27.57 131.21 27.58 131.21 27.6 131.2 27.63 131.21 27.81 131.27 27.81 131.01 27.82 130.97 27.82 130.97 27.82 130.94 27.83 130.92 27.84 130.91 27.86 130.9 27.88 130.9 27.89 130.91 27.9 130.91 27.92 130.93 27.94 130.95 27.95 130.97 27.96 131 27.96 131.03 27.97 131.07 27.97 131.08 27.97 131.32 28.48 131.48 28.49 131.48 28.49 131.49 28.5 131.49 28.51 131.49 28.51 131.49 28.52 131.49 28.52 131.5 28.53 131.5 28.53 131.5 28.54 131.5 28.56 131.51 28.57 131.53 28.59 131.54 28.61 131.56 28.62 131.58 28.63 131.6 28.64 131.62 28.64 131.65 28.65 131.67 28.65 131.69 28.65 131.7 28.65 131.75 28.64 131.79 28.64 131.81 28.63 131.86 28.62 131.9 28.61 131.94 28.59 131.98 28.57 132.02 28.55 132.05 28.53 132.09 28.52 132.11 28.49 132.13 28.47 132.15 28.45 132.17 28.42 132.19 28.39 132.2 28.36 132.22 28.33 132.23 28.33 132.23 28.3 132.24 28.27 132.25 28.24 132.25 28.22 132.25 28.22 132.25 28.2 132.25 28.18 132.24 28.17 132.23 28.15 132.21 28.14 132.19 28.13 132.17 28.13 132.14 28.12 132.12 28.12 132.1 28.12 132.09 28.12 132.08 28.12 132.07 28.13 132.06 28.13 132.05 28.13 132.04 28.14 132.03 28.14 132.02 28.15 132.02 28.16 132.01 28.17 132.01 28.21 132 28.26 131.99 28.3 131.98 28.33 131.96 28.37 131.93 28.4 131.9 28.43 131.87 28.45 131.82 28.47 131.79 28.47 131.78 28.48 131.75 28.48 131.72 28.48 131.71 28.48 131.71 28.48 131.7 28.48 131.7 28.47 131.69 28.47 131.69 28.46 131.68 28.46 131.68 28.46 131.68 28.45 131.68 28.45 131.68 27.97 131.54 27.97 132.19 27.97 132.22 27.97 132.26 27.97 132.29 27.98 132.31 27.99 132.34 28.01 132.37 28.03 132.39 28.06 132.41 28.09 132.43 28.13 132.45 28.16 132.47 28.2 132.48 28.22 132.5 28.26 132.51 28.3 132.52 28.3 132.53 28.34 132.54 28.37 132.55 28.37 132.55 28.41 132.57 28.41 132.57 28.45 132.58 28.45 132.58 28.49 132.59 28.5 132.6 28.52 132.61 28.53 132.61 28.55 132.61 28.57 132.62 28.58 132.62 28.59 132.63 28.61 132.64 28.62 132.65 28.63 132.67 28.63 132.67 28.64 132.69 28.64 132.71 28.65 132.72 28.65 132.74 28.65 132.75 28.65 132.76 28.65 132.78 28.65 132.79 28.65 132.81 28.64 132.82 28.64 132.83 28.63 132.83 28.62 132.84 28.61 132.84 28.6 132.85 28.59 132.85 28.58 132.84"/>
    <polygon class="cls-52" points="29.14 131.84 29.13 131.84 29.12 131.84 29.12 131.85 29.11 131.86 29.11 131.87 29.1 131.87 29.1 131.88 29.1 131.9 29.1 131.9 29.1 131.9 29.1 131.91 29.1 131.91 29.1 131.91 29.1 131.92 29.1 131.92 29.1 131.93 29.1 131.93 29.11 131.94 29.11 131.94 29.12 131.98 29.12 132.02 29.13 132.06 29.14 132.09 29.14 132.13 29.15 132.17 29.16 132.21 29.16 132.25 29.17 132.29 29.18 132.33 29.18 132.34 29.18 132.35 29.18 132.36 29.19 132.37 29.19 132.38 29.2 132.39 29.2 132.39 29.21 132.4 29.22 132.41 29.23 132.41 29.24 132.42 29.24 132.42 29.25 132.42 29.26 132.42 29.27 132.41 29.28 132.41 29.28 132.4 29.29 132.4 29.3 132.39 29.3 132.37 29.3 132.36 29.3 132.35 29.3 132.34 29.3 132.34 29.3 132.34 29.3 132.34 29.3 132.33 29.3 132.33 29.3 132.33 29.3 132.33 29.3 132.32 29.3 132.32 29.29 132.29 29.29 132.25 29.28 132.21 29.28 132.2 29.27 132.16 29.27 132.13 29.26 132.09 29.25 132.05 29.24 132.01 29.23 131.97 29.23 131.93 29.22 131.93 29.22 131.91 29.22 131.9 29.21 131.89 29.21 131.88 29.2 131.87 29.2 131.87 29.19 131.86 29.18 131.85 29.17 131.85 29.16 131.84 29.16 131.84 29.15 131.84 29.14 131.84"/>
    <polygon class="cls-52" points="28.84 131.8 28.83 131.8 28.82 131.81 28.82 131.81 28.81 131.82 28.81 131.83 28.8 131.84 28.8 131.85 28.8 131.86 28.8 131.87 28.8 131.87 28.8 131.88 28.8 131.89 28.8 131.89 28.81 131.9 28.81 131.91 28.81 131.91 28.81 131.92 28.81 131.92 28.82 131.96 28.83 132 28.83 132.04 28.84 132.04 28.84 132.08 28.85 132.12 28.86 132.16 28.86 132.2 28.87 132.24 28.88 132.27 28.88 132.31 28.88 132.32 28.89 132.33 28.89 132.34 28.9 132.35 28.9 132.36 28.91 132.37 28.91 132.38 28.92 132.38 28.93 132.39 28.93 132.4 28.94 132.4 28.95 132.4 28.96 132.4 28.97 132.4 28.98 132.4 28.99 132.4 28.99 132.39 29 132.38 29 132.37 29.01 132.36 29.01 132.35 29.01 132.34 29.01 132.34 29.01 132.33 29.01 132.33 29.01 132.32 29.01 132.32 29.01 132.32 29.01 132.31 29.01 132.31 29.01 132.31 29.01 132.3 29 132.27 28.99 132.23 28.99 132.19 28.98 132.18 28.98 132.14 28.97 132.1 28.96 132.06 28.95 132.02 28.94 131.98 28.93 131.93 28.92 131.89 28.92 131.89 28.92 131.88 28.92 131.87 28.91 131.86 28.91 131.84 28.9 131.83 28.9 131.83 28.89 131.82 28.88 131.82 28.87 131.81 28.87 131.8 28.86 131.8 28.85 131.8 28.84 131.8"/>
    <polygon class="cls-52" points="29.53 132.04 29.53 132.05 29.52 132.05 29.52 132.06 29.51 132.07 29.51 132.08 29.51 132.1 29.5 132.11 29.5 132.13 29.5 132.24 29.48 132.36 29.46 132.46 29.46 132.49 29.43 132.57 29.41 132.64 29.38 132.7 29.36 132.72 29.32 132.77 29.28 132.81 29.24 132.84 29.19 132.86 29.14 132.88 29.08 132.89 29.05 132.89 29.05 132.89 29.03 132.9 29.01 132.91 29.01 132.93 29.01 132.94 29.01 132.94 29 132.97 29 132.98 29.01 133.01 29.01 133.02 29.02 133.05 29.03 133.05 29.04 133.08 29.05 133.08 29.06 133.09 29.08 133.1 29.1 133.1 29.1 133.1 29.15 133.09 29.21 133.08 29.26 133.06 29.32 133.04 29.36 133 29.41 132.96 29.45 132.91 29.47 132.87 29.51 132.81 29.54 132.73 29.57 132.65 29.58 132.6 29.6 132.49 29.62 132.37 29.63 132.34 29.64 132.21 29.64 132.2 29.64 132.2 29.64 132.2 29.64 132.19 29.64 132.19 29.64 132.18 29.64 132.18 29.64 132.17 29.64 132.17 29.64 132.16 29.64 132.16 29.64 132.15 29.64 132.13 29.63 132.12 29.63 132.1 29.62 132.09 29.61 132.08 29.6 132.07 29.59 132.06 29.58 132.05 29.57 132.04 29.57 132.04 29.56 132.04 29.54 132.04 29.53 132.04"/>
    <polygon class="cls-52" points="30.05 131.86 30.04 131.87 30.03 131.89 30.02 131.92 30.02 131.93 30.02 131.96 30.02 133.41 30.02 133.42 30.02 133.45 30.03 133.49 30.04 133.52 30.05 133.53 30.06 133.55 30.08 133.57 30.1 133.58 30.11 133.58 30.13 133.58 30.14 133.57 30.15 133.57 30.16 133.55 30.17 133.52 30.17 133.51 30.17 133.47 30.17 132.64 30.18 132.64 30.23 132.7 30.28 132.76 30.34 132.81 30.39 132.87 30.44 132.93 30.49 132.99 30.54 133.05 30.59 133.11 30.64 133.17 30.69 133.23 30.69 133.24 30.71 133.26 30.73 133.27 30.75 133.27 30.76 133.27 30.77 133.26 30.79 133.25 30.79 133.25 30.8 133.24 30.8 133.22 30.81 133.2 30.81 133.18 30.81 133.17 30.81 133.16 30.81 133.14 30.8 133.13 30.8 133.12 30.8 133.1 30.79 133.09 30.78 133.07 30.78 133.06 30.77 133.05 30.76 133.04 30.75 133.03 30.7 132.96 30.64 132.9 30.58 132.83 30.52 132.77 30.46 132.7 30.42 132.65 30.36 132.59 30.29 132.53 30.23 132.48 30.17 132.42 30.17 132.03 30.17 132.02 30.17 131.98 30.16 131.95 30.15 131.92 30.14 131.9 30.13 131.88 30.11 131.86 30.1 131.86 30.08 131.85 30.06 131.85 30.05 131.86"/>
    <polygon class="cls-52" points="26.96 127.96 26.95 127.91 26.94 127.87 26.93 127.82 26.93 127.78 26.92 127.73 26.91 127.69 26.9 127.64 26.9 127.6 26.89 127.55 26.88 127.51 26.88 127.51 26.71 126.54 26.7 126.52 26.7 126.51 26.7 126.49 26.69 126.48 26.68 126.46 26.68 126.45 26.67 126.44 26.66 126.42 26.64 126.41 26.63 126.41 26.63 126.4 26.61 126.4 26.59 126.4 26.58 126.41 26.57 126.41 26.56 126.42 26.55 126.44 26.55 126.46 26.55 126.48 26.55 126.5 26.55 126.52 26.55 126.54 26.82 127.96 26.82 127.99 26.84 128.04 26.85 128.09 26.87 128.12 26.89 128.15 26.91 128.17 26.93 128.19 26.96 128.21 26.98 128.21 27 128.21 27.02 128.21 27.04 128.19 27.06 128.17 27.07 128.14 27.08 128.1 27.09 128.08 27.24 127.25 27.24 127.21 27.25 127.18 27.26 127.14 27.26 127.11 27.27 127.07 27.27 127.04 27.28 127 27.28 126.99 27.28 126.96 27.29 126.92 27.29 126.9 27.3 126.94 27.3 126.98 27.31 127.02 27.31 127.06 27.32 127.1 27.32 127.14 27.33 127.17 27.34 127.21 27.34 127.25 27.35 127.29 27.35 127.29 27.5 128.25 27.5 128.28 27.51 128.33 27.53 128.38 27.55 128.41 27.56 128.44 27.58 128.47 27.61 128.48 27.63 128.5 27.65 128.5 27.68 128.51 27.7 128.5 27.71 128.49 27.73 128.47 27.75 128.44 27.76 128.4 27.77 128.38 28.03 127.18 28.03 127.18 28.03 127.17 28.03 127.16 28.04 127.16 28.04 127.15 28.04 127.15 28.04 127.14 28.04 127.14 28.04 127.13 28.04 127.12 28.04 127.11 28.03 127.09 28.03 127.07 28.03 127.06 28.02 127.04 28.02 127.04 28.01 127.02 27.99 127.01 27.98 127 27.97 126.99 27.96 126.98 27.94 126.98 27.93 126.98 27.92 126.98 27.91 126.98 27.91 126.98 27.9 126.99 27.89 127 27.89 127.01 27.88 127.03 27.88 127.04 27.88 127.05 27.71 127.86 27.7 127.9 27.69 127.94 27.68 127.98 27.67 128.02 27.67 128.06 27.66 128.1 27.65 128.13 27.64 128.17 27.64 128.21 27.64 128.21 27.63 128.25 27.62 128.21 27.62 128.16 27.61 128.11 27.6 128.07 27.6 128.02 27.59 127.98 27.58 127.93 27.58 127.89 27.57 127.84 27.56 127.8 27.56 127.8 27.43 126.96 27.42 126.9 27.41 126.85 27.4 126.81 27.38 126.78 27.36 126.75 27.34 126.73 27.32 126.71 27.29 126.69 27.27 126.68 27.27 126.68 27.24 126.68 27.22 126.69 27.21 126.7 27.19 126.72 27.18 126.75 27.16 126.8 27.16 126.84 27.02 127.56 27.02 127.6 27.01 127.64 27 127.68 27 127.72 26.99 127.76 26.98 127.8 26.98 127.84 26.97 127.88 26.96 127.92 26.96 127.92 26.96 127.96"/>
    <path class="cls-52" d="M28.73,128.09h-.02s-.06-.02-.06-.02l-.07-.03-.07-.03-.09-.04v-.51h0s0-.02,0-.02h0s0-.02,0-.02h0s0,0,0,0h0s0,0,0,0h0s0,0,0,0h0s.05.02.05.02h.03s.03.02.03.02h.03s.03.03.03.03h.03s.03.03.03.03l.03.02.03.02h0s.03.03.03.03l.02.02.03.04h0s.03.05.03.05l.02.04v.05s.02.03.02.03v.05s0,.03,0,.03v.02s0,.05,0,.05v.02s-.02.03-.02.03h0s-.02.04-.02.04l-.02.02h-.01s-.01.01-.01.01h-.03s-.03,0-.03,0ZM28.32,127.18h-.02s-.01.02-.01.02v.02s-.02.02-.02.02v.03s-.01.03-.01.03v.03s0,0,0,0v1.34s0,.03,0,.03v.02s.02.03.02.03h.01s.02.04.02.04h.01s.02.02.02.02h.02s.01,0,.01,0h.02s0-.01,0-.01v-.02s.02-.02.02-.02v-.03s0-.03,0-.03v-.53l.09.04.04.02.04.02.04.02.04.02.04.02h0s.04.02.04.02h.04s.04.01.04.01h.04s.02,0,.02,0h0s.04-.02.04-.02l.03-.02.03-.03.02-.04h0s.02-.05.02-.05l.02-.05h0s0-.06,0-.06h0s0-.07,0-.07h0v-.09s0-.02,0-.02v-.07s-.02-.04-.02-.04l-.02-.06-.02-.06-.03-.06-.02-.03-.04-.05-.04-.05-.05-.04-.03-.03-.03-.02-.03-.02-.03-.02h-.03s-.03-.03-.03-.03h-.03s0-.02,0-.02h-.03s-.03-.03-.03-.03h-.03s-.03-.02-.03-.02l-.12-.05h-.03s-.02-.01-.02-.01h-.02Z"/>
    <polygon class="cls-52" points="29.45 127.67 29.43 127.67 29.41 127.68 29.38 127.69 29.35 127.72 29.33 127.74 29.3 127.77 29.29 127.8 29.28 127.85 29.27 127.88 29.26 127.93 29.26 127.97 29.26 127.99 29.27 128.05 29.28 128.11 29.3 128.17 29.32 128.22 29.33 128.24 29.36 128.3 29.39 128.36 29.44 128.42 29.49 128.48 29.52 128.51 29.63 128.63 29.64 128.65 29.66 128.66 29.68 128.68 29.69 128.7 29.71 128.71 29.73 128.73 29.74 128.75 29.76 128.77 29.77 128.78 29.78 128.8 29.78 128.81 29.8 128.83 29.82 128.87 29.84 128.92 29.85 128.96 29.85 128.97 29.86 129.02 29.86 129.03 29.85 129.05 29.85 129.09 29.84 129.12 29.82 129.15 29.8 129.17 29.79 129.17 29.76 129.19 29.73 129.19 29.71 129.19 29.67 129.18 29.66 129.18 29.61 129.17 29.61 129.16 29.59 129.15 29.54 129.13 29.52 129.11 29.48 129.08 29.47 129.06 29.45 129.05 29.43 129.04 29.42 129.02 29.4 129.01 29.39 128.99 29.38 128.99 29.36 128.97 29.35 128.96 29.34 128.95 29.32 128.95 29.31 128.94 29.3 128.94 29.29 128.95 29.28 128.95 29.27 128.95 29.27 128.96 29.26 128.97 29.26 128.98 29.26 129 29.25 129.01 29.25 129.02 29.25 129.03 29.26 129.05 29.26 129.07 29.27 129.08 29.27 129.09 29.28 129.11 29.29 129.12 29.3 129.14 29.31 129.15 29.32 129.16 29.32 129.17 29.37 129.22 29.43 129.26 29.45 129.28 29.52 129.32 29.53 129.33 29.59 129.36 29.6 129.36 29.63 129.37 29.69 129.4 29.72 129.4 29.77 129.41 29.79 129.41 29.84 129.41 29.86 129.4 29.9 129.38 29.92 129.37 29.95 129.34 29.98 129.3 30 129.27 30 129.26 30.02 129.2 30.03 129.15 30.03 129.09 30.03 129.07 30.03 129.01 30.01 128.94 30 128.88 29.98 128.83 29.95 128.77 29.91 128.71 29.9 128.7 29.86 128.64 29.8 128.57 29.77 128.53 29.62 128.37 29.6 128.34 29.57 128.31 29.55 128.28 29.53 128.26 29.51 128.23 29.48 128.2 29.47 128.18 29.46 128.15 29.45 128.11 29.44 128.07 29.44 128.04 29.44 128 29.44 127.99 29.45 127.95 29.46 127.94 29.47 127.92 29.49 127.89 29.5 127.89 29.5 127.89 29.52 127.88 29.55 127.87 29.55 127.87 29.58 127.88 29.59 127.88 29.63 127.89 29.64 127.9 29.64 127.9 29.68 127.92 29.68 127.92 29.72 127.94 29.76 127.98 29.8 128.02 29.81 128.03 29.81 128.04 29.82 128.05 29.83 128.05 29.84 128.06 29.84 128.07 29.85 128.08 29.86 128.08 29.87 128.09 29.87 128.09 29.88 128.1 29.89 128.1 29.9 128.1 29.91 128.1 29.92 128.1 29.93 128.1 29.94 128.09 29.94 128.08 29.95 128.07 29.95 128.06 29.95 128.05 29.96 128.03 29.96 128.03 29.95 128.01 29.95 128 29.95 127.99 29.95 127.97 29.94 127.96 29.94 127.95 29.93 127.93 29.92 127.92 29.91 127.91 29.9 127.9 29.88 127.87 29.85 127.85 29.83 127.83 29.8 127.8 29.78 127.78 29.75 127.76 29.72 127.75 29.69 127.73 29.67 127.71 29.64 127.7 29.59 127.68 29.54 127.67 29.49 127.66 29.45 127.67"/>
    <polyline class="cls-7" points="94.47 53.1 94.31 53.1 94.31 53.14"/>
    <g class="cls-27">
      <path class="cls-7" d="M93.84,53.14l.09-.04s.05-.01.07-.01"/>
    </g>
    <line class="cls-7" x1="93.95" y1="56.17" x2="93.8" y2="56.23"/>
    <line class="cls-7" x1="92.47" y1="58.97" x2="92.58" y2="59.01"/>
    <polyline class="cls-7" points="94.43 58.37 94.44 57.93 94.6 57.92 94.68 58.27"/>
    <g class="cls-35">
      <path class="cls-7" d="M94.78,56.88h0v-.32c0-.05.04-.1.07-.12h.03v-.14s0-.1-.01-.15"/>
    </g>
    <line class="cls-7" x1="92.59" y1="56.21" x2="92.47" y2="56.26"/>
    <g class="cls-54">
      <path class="cls-7" d="M92.44,56.28l-.12-.05v-2.55s1.5-.63,1.5-.63c.09-.03.17-.04.27-.04h.25s.07,0,.12-.01"/>
    </g>
    <line class="cls-7" x1="93.48" y1="56.37" x2="93.48" y2="55.94"/>
    <g class="cls-69">
      <path class="cls-7" d="M93.48,58.53l.31-.14c.07-.02.14-.04.21-.04"/>
      <path class="cls-7" d="M93.48,58.63v-.48l1-.42c.25-.12.38-.41.4-.68v-.12l-.11-.05"/>
    </g>
    <polyline class="cls-7" points="94.46 53.01 94.46 52.59 94.62 52.59 94.69 52.93 94.69 53.18"/>
    <polyline class="cls-7" points="93.59 61.12 92.42 61.61 92.31 61.56 92.32 59.03 92.47 58.97 92.47 56.26"/>
    <line class="cls-7" x1="93.78" y1="56.16" x2="93.48" y2="56.28"/>
    <g class="cls-56">
      <path class="cls-7" d="M94.49,43.57s-.1.01-.15.01v2.53"/>
    </g>
    <polyline class="cls-7" points="93.85 48.96 93.94 48.92 93.96 48.92"/>
    <polyline class="cls-7" points="93.88 43.62 93.95 43.59 93.97 43.58"/>
    <polyline class="cls-7" points="94.07 51.44 94.09 48.89 94.1 48.89"/>
    <polyline class="cls-7" points="94.1 46.1 94.1 43.57 94.11 43.57"/>
    <g class="cls-16">
      <path class="cls-7" d="M94.48,48.89s-.1.01-.16.01v2.55"/>
    </g>
    <line class="cls-7" x1="92.49" y1="49.44" x2="92.6" y2="49.49"/>
    <line class="cls-7" x1="93.94" y1="46.13" x2="93.95" y2="43.59"/>
    <line class="cls-7" x1="93.93" y1="51.46" x2="93.94" y2="48.92"/>
    <g class="cls-63">
      <path class="cls-7" d="M94.47,48.82v-.42h.16s.07.35.07.35v2.55c0,.15-.23.16-.38.16h-.25"/>
      <path class="cls-7" d="M94.82,47.39v-.04s-.01-.32-.01-.32c.01-.05.04-.1.07-.12h.02v-.14c0-.14-.05-.28-.17-.35l-.11-.05c-.07-.03-.15-.03-.22,0l-.89.38"/>
      <path class="cls-7" d="M92.5,46.74v2.69s-.16.06-.16.06v2.55s.11.04.11.04l1.47-.62s.1-.03.15-.03"/>
    </g>
    <line class="cls-7" x1="92.62" y1="46.69" x2="92.5" y2="46.74"/>
    <g class="cls-14">
      <path class="cls-7" d="M92.47,46.76l-.11-.05v-2.55l1.48-.62c.09-.04.18-.05.27-.05h.25s.09.01.12,0"/>
      <path class="cls-7" d="M93.51,49l.32-.14c.09-.02.17-.04.27-.04h.25s.07,0,.12-.01"/>
      <path class="cls-7" d="M93.51,46.85v-.54s.43-.18.43-.18c.05-.01.11-.03.16-.03h.23c.15.01.38,0,.38-.15v-2.53l-.07-.36h-.16v.43"/>
      <path class="cls-7" d="M93.51,49.1v-.47l1-.43c.25-.12.38-.4.4-.67v-.14l-.1-.04"/>
    </g>
    <polyline class="cls-7" points="110.52 54.07 110.52 54.06 110.52 51.33 109.53 50.91 109.53 49.82"/>
    <polyline class="cls-7" points="99.33 49.35 99.33 49.34 99.34 45.52"/>
    <polyline class="cls-7" points="113.75 101.05 113.75 101.05 113.74 108.13"/>
    <polyline class="cls-7" points="113.88 100.93 113.72 101.01 113.74 101.03"/>
    <polyline class="cls-7" points="95.33 61.51 95.4 61.55 95.54 61.47"/>
    <line class="cls-7" x1="95.58" y1="50.81" x2="95.45" y2="50.87"/>
    <polyline class="cls-7" points="95.47 93.32 95.52 93.32 95.83 93.2"/>
    <g class="cls-19">
      <path class="cls-7" d="M109.99,107.55s.07-.05.11-.06"/>
      <path class="cls-7" d="M100.04,103.36s.07-.05.12-.07"/>
    </g>
    <line class="cls-7" x1="94.48" y1="48.4" x2="94.49" y2="48.21"/>
    <g class="cls-58">
      <path class="cls-7" d="M97.83,94.77s.07.06.12.07l.14-.05"/>
    </g>
    <line class="cls-7" x1="97.66" y1="102.08" x2="97.92" y2="101.97"/>
    <polyline class="cls-7" points="113.11 54.96 112.88 55.05 111.15 55.16 98.21 49.7"/>
    <g class="cls-47">
      <path class="cls-7" d="M94.32,41.92s.11.07.18.11v1.03"/>
    </g>
    <polyline class="cls-7" points="107.17 105.54 106.91 105.8 108.15 105.83"/>
    <polyline class="cls-7" points="113.36 48.92 113.53 49.22 113.9 50.22 114.88 50.01"/>
    <polyline class="cls-7" points="113.4 101.13 113.12 101.24 112.75 101.08 112.75 100.77 113.1 100.61"/>
    <polyline class="cls-7" points="95.69 49.6 95.33 49.76 95.32 50.71 95.42 50.87 95.42 52.02"/>
    <polyline class="cls-7" points="102.92 104.04 102.93 104.12 103.76 103.97"/>
    <polyline class="cls-7" points="96.98 93.68 97.57 94.5 98.08 94.29"/>
    <g class="cls-11">
      <path class="cls-7" d="M99.61,103.17c.26-.2.63-.2.93-.07.1.04.21.09.3.16"/>
      <path class="cls-7" d="M109.56,107.36c.26-.2.63-.18.93-.07.1.05.2.1.28.16"/>
      <path class="cls-7" d="M107.68,100.45c.06.05.11.1.17.15"/>
      <path class="cls-7" d="M108.36,50.6c-.16.06-.35.07-.52.04"/>
    </g>
    <line class="cls-7" x1="111.26" y1="53.74" x2="110.62" y2="54.01"/>
    <line class="cls-7" x1="100.07" y1="49.02" x2="99.44" y2="49.29"/>
    <g class="cls-22">
      <path class="cls-7" d="M102.85,99.56c.07-.26.25-.51.49-.63"/>
      <path class="cls-7" d="M108.92,49.72c0,.09-.01.16-.01.25"/>
      <path class="cls-7" d="M108.5,103.7c-.27.37-.8.48-1.24.32"/>
      <path class="cls-7" d="M108.76,102.74c0,.33-.07.67-.25.95"/>
      <path class="cls-7" d="M103.95,45.84c-1.48-.41-1.59,1.34-1.36,2.01"/>
      <path class="cls-7" d="M104.07,98.86l-.28-.11c-.43-.17-.98-.07-1.24.31-.36.52-.32,1.22-.12,1.82"/>
      <path class="cls-7" d="M107.51,103.59c.22.09.47.11.69.03"/>
      <path class="cls-7" d="M113.35,107.13l-.22.25c-.21.27-.2.67-.08.98"/>
      <path class="cls-7" d="M116.64,50.52l-.26.11-.74-.32-.74.32c.47.17,1.01.17,1.48,0l-.17,57.91"/>
      <path class="cls-7" d="M95.46,92.83l-.25.11c0,.12.05.25.15.35l-.02,7.08"/>
    </g>
    <polyline class="cls-7" points="106.25 103.59 107.25 104.01 107.49 103.59 107.99 103.38"/>
    <polyline class="cls-7" points="94.49 41.4 95.25 41.71 94.51 42.03 95.49 42.45 96 42.03"/>
    <polyline class="cls-7" points="114.72 108.55 114.9 50.64 113.9 50.22 113.88 57.29"/>
    <line class="cls-7" x1="94.49" y1="46.36" x2="94.49" y2="46.1"/>
    <line class="cls-7" x1="94.47" y1="52.59" x2="94.48" y2="51.44"/>
    <line class="cls-7" x1="94.46" y1="57.93" x2="94.46" y2="57.74"/>
    <line class="cls-7" x1="94.44" y1="61.7" x2="94.44" y2="61.45"/>
    <line class="cls-7" x1="94.33" y1="99.95" x2="94.38" y2="83.16"/>
    <polyline class="cls-7" points="97.98 48.5 97.71 48.62 96.9 49.6"/>
    <polyline class="cls-7" points="111.87 104.21 109.39 103.16 109.39 102.08"/>
    <polyline class="cls-7" points="106.91 106.1 106.91 105.8 102.93 104.12 102.93 104.41"/>
    <line class="cls-7" x1="100.83" y1="47.24" x2="101.82" y2="47.66"/>
    <line class="cls-7" x1="110.37" y1="102.5" x2="110.39" y2="100.61"/>
    <polyline class="cls-7" points="99.19 95.89 99.19 98.86 101.67 99.91"/>
    <polyline class="cls-7" points="98.09 94.47 111.02 99.92 111.02 100.87"/>
    <line class="cls-7" x1="111.26" y1="51.01" x2="110.52" y2="51.33"/>
    <line class="cls-7" x1="95.52" y1="93.32" x2="96.25" y2="93.37"/>
    <polyline class="cls-7" points="95.48 49.52 95.49 42.46 97.86 42.62"/>
    <line class="cls-7" x1="95.41" y1="58.16" x2="95.41" y2="56.78"/>
    <line class="cls-7" x1="95.4" y1="62.08" x2="95.4" y2="61.55"/>
    <line class="cls-7" x1="95.32" y1="85.99" x2="95.33" y2="84.1"/>
    <line class="cls-7" x1="95.31" y1="91.9" x2="95.31" y2="90.75"/>
    <line class="cls-7" x1="95.21" y1="92.94" x2="95.21" y2="91.99"/>
    <line class="cls-7" x1="95.27" y1="52.97" x2="95.27" y2="51.96"/>
    <line class="cls-7" x1="95.26" y1="56.72" x2="95.26" y2="55.98"/>
    <line class="cls-7" x1="95.19" y1="84.04" x2="95.19" y2="83.55"/>
    <line class="cls-7" x1="95.16" y1="90.69" x2="95.17" y2="85.93"/>
    <line class="cls-7" x1="95.25" y1="41.71" x2="95.94" y2="41.43"/>
    <line class="cls-7" x1="111.02" y1="99.92" x2="111.67" y2="99.88"/>
    <line class="cls-7" x1="111.14" y1="56.11" x2="111.15" y2="55.16"/>
    <polyline class="cls-7" points="112.88 56 112.88 55.05 112.88 54.74"/>
    <line class="cls-7" x1="112.75" y1="100.77" x2="112.75" y2="100.33"/>
    <line class="cls-7" x1="113.61" y1="100.7" x2="113.72" y2="101.01"/>
    <line class="cls-7" x1="106.63" y1="50.14" x2="107.67" y2="50.57"/>
    <line class="cls-7" x1="106.48" y1="103.16" x2="107.49" y2="103.59"/>
    <polyline class="cls-7" points="113.5 55.12 113.53 49.22 114.11 49.09"/>
    <line class="cls-7" x1="113.49" y1="100.77" x2="112.75" y2="101.08"/>
    <line class="cls-7" x1="103.79" y1="98.75" x2="104.03" y2="98.96"/>
    <line class="cls-7" x1="110.11" y1="102.85" x2="109.39" y2="103.16"/>
    <line class="cls-7" x1="108.15" y1="106.27" x2="108.15" y2="105.83"/>
    <line class="cls-7" x1="110.28" y1="50.59" x2="109.53" y2="50.91"/>
    <line class="cls-7" x1="102.89" y1="104.05" x2="102.89" y2="103.6"/>
    <line class="cls-7" x1="100.82" y1="49.97" x2="110.52" y2="54.06"/>
    <line class="cls-7" x1="99.93" y1="98.55" x2="99.19" y2="98.86"/>
    <line class="cls-7" x1="98.46" y1="48.97" x2="99.33" y2="49.34"/>
    <line class="cls-7" x1="97.84" y1="48.51" x2="97.85" y2="42.62"/>
    <line class="cls-7" x1="97.68" y1="100.53" x2="97.71" y2="94.62"/>
    <line class="cls-7" x1="95.58" y1="50.6" x2="95.32" y2="50.71"/>
    <line class="cls-7" x1="95.46" y1="91.88" x2="95.21" y2="91.99"/>
    <line class="cls-7" x1="112.01" y1="54.69" x2="112.88" y2="55.05"/>
    <line class="cls-7" x1="95.56" y1="56.59" x2="95.26" y2="56.72"/>
    <line class="cls-7" x1="95.73" y1="83.81" x2="95.19" y2="84.04"/>
    <line class="cls-7" x1="95.46" y1="90.57" x2="95.16" y2="90.69"/>
    <line class="cls-7" x1="113.4" y1="107.26" x2="113.13" y2="107.37"/>
    <line class="cls-7" x1="113.35" y1="107.13" x2="113.36" y2="101.23"/>
    <g class="cls-23">
      <path class="cls-7" d="M114.06,64.65v-4.77s-.14-.06-.14-.06v-1.14l.1-.09v-.95c0-.14-.05-.26-.14-.36-.01-.02-.03-.06-.04-.1l-.2-.53-.12-1.37s-.01-.11-.03-.16c-.06-.1-.15-.19-.25-.23l-.37-.15"/>
    </g>
    <line class="cls-7" x1="101.07" y1="103.46" x2="101.19" y2="103.58"/>
    <g class="cls-71">
      <path class="cls-7" d="M100.41,103.26c-.06.07-.12.17-.16.27"/>
      <path class="cls-7" d="M110.36,107.45c-.06.07-.11.16-.16.26"/>
      <path class="cls-7" d="M108.55,50.45c-.14.01-.26-.04-.38-.09l-1.48-.62"/>
      <path class="cls-7" d="M103.61,98.87c-.07.07-.12.16-.17.25"/>
      <path class="cls-7" d="M106.52,102.76l1.47.62s.09.04.14.05c.04.01.09.02.12.02.02.01.05.03.11.01h.12-.01"/>
      <path class="cls-7" d="M107.89,100.65c-.11-.09-.24-.16-.36-.22h-.01l-3.49-1.47c-.22-.09-.47-.11-.69-.02"/>
      <path class="cls-7" d="M111.14,54.32c.06-.18.11-.38.12-.58v-2.73l-.99-.42v-.44"/>
      <path class="cls-7" d="M99.94,49.6c.07-.18.11-.38.12-.58v-3.18"/>
    </g>
    <polyline class="cls-7" points="98.11 42.31 98.08 42.36 97.85 42.62"/>
    <g class="cls-32">
      <path class="cls-7" d="M98.23,41.89c0,.1-.01.21-.05.3"/>
      <path class="cls-7" d="M113.93,108.35c.1.15.22.28.36.38"/>
      <path class="cls-7" d="M111.02,107.64c.15.16.28.32.39.51"/>
    </g>
    <polyline class="cls-7" points="114.02 77.35 114.03 74.49 113.88 74.43 113.88 73.51"/>
    <polyline class="cls-7" points="113.98 91.96 113.98 89.1 113.83 89.03 113.83 88.12"/>
    <g class="cls-53">
      <path class="cls-7" d="M97.95,48.45l-.06.04c.06-.03.14-.01.2.01l.37.15v.32l-.25.73v.95l12.93,5.46,1.74-.11c.22-.11.42-.3.53-.52"/>
      <path class="cls-7" d="M98.04,101.8c.06-.32-.03-.64-.19-.93l-.17-.35-2.35-.16-1-.42c-.14-.07-.29-.16-.31-.32l.05-16.62"/>
      <path class="cls-7" d="M97.74,102.23c.06-.04.14-.09.17-.15"/>
    </g>
    <polyline class="cls-7" points="110.47 54.03 110.47 54.07 111.88 54.68"/>
    <polyline class="cls-7" points="99.28 49.33 99.28 49.35 100.7 49.96"/>
    <line class="cls-7" x1="97.71" y1="101.75" x2="98.02" y2="101.89"/>
    <line class="cls-7" x1="94.14" y1="61.46" x2="94.14" y2="61.82"/>
    <line class="cls-7" x1="94.15" y1="57.87" x2="94.15" y2="58.37"/>
    <line class="cls-7" x1="94.17" y1="51.44" x2="94.16" y2="53.1"/>
    <line class="cls-7" x1="94.17" y1="48.35" x2="94.17" y2="48.91"/>
    <line class="cls-7" x1="94.18" y1="46.11" x2="94.18" y2="46.47"/>
    <g class="cls-33">
      <path class="cls-7" d="M95.19,41.11l-.69.3c-.14.06-.28.16-.3.31v1.79"/>
      <path class="cls-7" d="M98.34,48.58l-.52.62-.92.4-1.25-.09c-.06,0-.12,0-.17.01h.04"/>
      <path class="cls-7" d="M113.49,100.65l-.1.52s-.01.04-.02.06l-.05.03.05-.03"/>
      <path class="cls-7" d="M100.28,103.23l-.11.05c.2-.07.42-.05.62.03.12.05.23.12.33.2"/>
      <path class="cls-7" d="M108,47.58c.57.57.89,1.35.91,2.14"/>
      <path class="cls-7" d="M108.9,49.67c-.04.37-.21.77-.54.93"/>
      <path class="cls-7" d="M103.95,45.84l3.72,1.56c.14.06.26.14.37.24"/>
      <path class="cls-7" d="M107.85,100.6c.56.57.89,1.35.9,2.14"/>
      <path class="cls-7" d="M108.2,103.62c.35-.16.51-.54.56-.91"/>
      <path class="cls-7" d="M110.1,107.48c.21-.09.43-.06.63.01.12.06.24.12.33.21"/>
      <path class="cls-7" d="M113.35,107.13l.38,1,.99.42c.48.17,1.01.17,1.48,0l.26-.11"/>
      <path class="cls-7" d="M113.81,101.02c.06-.05.09-.12.1-.2v-.95l-.1-.17v-1.14l.15-.07"/>
    </g>
    <polyline class="cls-7" points="111.87 103.59 110.11 102.85 110.13 102.39"/>
    <polyline class="cls-7" points="109.39 102.08 110.37 102.5 111.12 102.19 111.13 100.87"/>
    <line class="cls-7" x1="104.66" y1="104.36" x2="108.15" y2="105.83"/>
    <line class="cls-7" x1="102.89" y1="103.6" x2="104.2" y2="104.16"/>
    <polyline class="cls-7" points="109.53 49.82 112.02 50.87 112.01 54.69 111.96 54.7"/>
    <polyline class="cls-7" points="101.82 47.66 101.82 46.57 99.34 45.52"/>
    <polyline class="cls-7" points="101.67 99.91 101.67 98.83 100.68 98.41 100.68 96.52"/>
    <polyline class="cls-7" points="100.77 49.98 100.82 49.97 100.83 47.24 101.57 46.92 101.82 47.03"/>
    <polyline class="cls-7" points="114 84.02 114.01 81.15 113.86 81.09 113.87 77.29"/>
    <polyline class="cls-7" points="101.67 99.29 99.93 98.55 99.93 96.2"/>
    <polyline class="cls-7" points="114.04 69.41 114.06 66.54 113.91 66.48 113.91 64.59 114.06 64.53"/>
    <polyline class="cls-7" points="112.75 100.77 111.02 100.87 98.09 95.42 98.09 94.47 98.18 94.19"/>
    <polyline class="cls-7" points="114.61 49.3 114.88 50.01 115.64 50.31 116.32 50.03"/>
    <line class="cls-7" x1="111.87" y1="104.21" x2="111.88" y2="100.82"/>
    <polyline class="cls-7" points="95.57 51.96 95.42 52.02 95.27 51.96"/>
    <polyline class="cls-7" points="96.15 85.65 95.32 85.99 95.17 85.93"/>
    <line class="cls-7" x1="95.94" y1="86.39" x2="95.95" y2="85.72"/>
    <polyline class="cls-7" points="113.95 88.12 113.95 84.94 113.85 84.91 113.85 83.95 114.01 83.89"/>
    <polyline class="cls-7" points="95.25 41.71 96 42.03 98.18 42.18"/>
    <line class="cls-7" x1="96.24" y1="42.05" x2="96.24" y2="41.55"/>
    <polyline class="cls-7" points="113.96 98.62 113.97 93.85 113.82 93.79 113.83 91.9 113.98 91.84"/>
    <polyline class="cls-7" points="113.98 73.51 113.99 70.34 113.9 70.3 113.9 69.35 114.04 69.28"/>
    <g class="cls-40">
      <path class="cls-7" d="M91.1,31.31c.67-.05,1.32.09,1.94.32l24.87,10.49c3.11,1.43,4.88,5.02,4.96,8.44l.99-.41"/>
      <path class="cls-7" d="M91.08,33.62c.41-.02.82.09,1.21.24l24.86,10.48c2.17,1.01,3.41,3.51,3.46,5.92l-.18,63.5c-.02.96-.25,1.98-.95,2.63"/>
      <path class="cls-7" d="M121.14,117.99c1.17-.85,1.49-2.47,1.53-3.93l.99-.41"/>
    </g>
    <line class="cls-7" x1="92.23" y1="53.69" x2="92.23" y2="51.95"/>
    <line class="cls-7" x1="92.22" y1="59.03" x2="92.22" y2="56.23"/>
    <line class="cls-7" x1="92.21" y1="62.52" x2="92.21" y2="61.56"/>
    <line class="cls-7" x1="118.89" y1="41.7" x2="117.9" y2="42.12"/>
    <line class="cls-7" x1="122.67" y1="114.06" x2="122.86" y2="50.56"/>
    <line class="cls-7" x1="116.5" y1="98.41" x2="117" y2="98.62"/>
    <line class="cls-7" x1="112.24" y1="108.7" x2="116.47" y2="110.49"/>
    <line class="cls-7" x1="108.43" y1="46.69" x2="108.43" y2="46.06"/>
    <polyline class="cls-7" points="109.1 106.67 108.26 107.03 108.26 107.66 112.24 109.34"/>
    <line class="cls-7" x1="100.8" y1="103.88" x2="108.26" y2="107.03"/>
    <line class="cls-7" x1="96.99" y1="41.87" x2="97" y2="41.24"/>
    <polyline class="cls-7" points="97.66 101.84 96.82 102.19 96.82 102.84 100.8 104.51"/>
    <line class="cls-7" x1="92.75" y1="44.1" x2="92.76" y2="40.09"/>
    <line class="cls-7" x1="92.74" y1="52.16" x2="92.74" y2="51.97"/>
    <polyline class="cls-7" points="93.47 88 92.63 88.35 92.59 100.42 96.82 102.2"/>
    <polyline class="cls-7" points="92.15 82 92.13 88.14 92.63 88.35"/>
    <line class="cls-7" x1="92.97" y1="87.79" x2="92.13" y2="88.14"/>
    <g class="cls-65">
      <path class="cls-7" d="M90.84,33.58c.62-.25,1.32-.18,1.95.06"/>
      <path class="cls-7" d="M119.38,116.58c1.07-.53,1.52-1.84,1.54-3.04l-.49.21"/>
      <path class="cls-7" d="M117.16,44.33l.48-.21c2.19,1.01,3.42,3.52,3.47,5.92l-.49.21"/>
      <path class="cls-7" d="M90.59,32.32c.78-.31,1.66-.23,2.45.07l24.86,10.48c2.74,1.27,4.3,4.42,4.36,7.44l-.18,63.5c-.04,1.51-.59,3.15-1.95,3.82"/>
    </g>
    <line class="cls-7" x1="92.79" y1="33.64" x2="117.64" y2="44.12"/>
    <line class="cls-7" x1="120.93" y1="113.54" x2="121.11" y2="50.04"/>
    <line class="cls-7" x1="109.1" y1="107.3" x2="108.26" y2="107.66"/>
    <line class="cls-7" x1="97.66" y1="102.48" x2="96.82" y2="102.84"/>
    <line class="cls-7" x1="93.43" y1="100.06" x2="92.59" y2="100.41"/>
    <g class="cls-57">
      <path class="cls-8" d="M117.68,118.32l-24.87-10.49c-3.11-1.43-4.88-5.02-4.96-8.45l.19-63.5c.05-1.72.67-3.58,2.21-4.34l.99-.42c.89-.35,1.89-.26,2.78.09l24.87,10.49c3.11,1.43,4.88,5.02,4.96,8.45l-.19,63.5c-.05,1.7-.67,3.58-2.21,4.34l-.99.42c-.89.35-1.89.25-2.78-.09"/>
      <path class="cls-7" d="M90.59,32.32l-.25.1c-1.36.67-1.92,2.31-1.95,3.82l-.18,63.5c.06,3.02,1.62,6.18,4.36,7.44l24.86,10.48c.79.31,1.67.38,2.45.09l.25-.11"/>
      <path class="cls-7" d="M90.84,33.58l-.49.21c-1.07.53-1.52,1.83-1.54,3.04l-.19,63.5c.05,2.4,1.29,4.91,3.47,5.91l24.86,10.49c.62.23,1.32.3,1.94.06l.49-.21"/>
    </g>
    <polyline class="cls-8" points="117 98.62 117.1 62.44 116.6 62.23 116.64 50.15 112.41 48.37 112.41 47.74 108.43 46.06 108.42 46.08"/>
    <polyline class="cls-8" points="117 98.2 116.5 98.41 116.47 110.49"/>
    <polyline class="cls-7" points="116.47 109.77 113.08 108.35 112.24 108.7 112.24 109.34"/>
    <polyline class="cls-8" points="109.19 46.38 108.43 46.69 105.43 45.43"/>
    <polyline class="cls-7" points="112.33 108.66 109.1 107.3 109.1 106.67 107.83 106.14"/>
    <polyline class="cls-8" points="105.43 45.43 100.97 43.56 100.97 42.91 97 41.24"/>
    <polyline class="cls-7" points="100.8 104.51 100.8 103.88 101.64 103.52 102.93 104.06"/>
    <polyline class="cls-8" points="97.74 41.55 96.99 41.87 92.76 40.09"/>
    <polyline class="cls-7" points="100.88 103.84 97.66 102.48 97.66 101.84 93.43 100.06 93.47 88 92.97 87.79 92.99 82.47"/>
    <polyline class="cls-7" points="93.57 51.61 93.57 51.8 92.74 52.16 92.52 52.06"/>
    <line class="cls-7" x1="93.59" y1="43.64" x2="93.6" y2="40.44"/>
    <line class="cls-7" x1="93.07" y1="53.38" x2="93.07" y2="52.01"/>
    <line class="cls-7" x1="93.05" y1="62.28" x2="93.05" y2="61.35"/>
    <polyline class="cls-7" points="94.74 58.88 95.36 58.62 96.62 58.63"/>
    <polyline class="cls-7" points="113.54 80.88 113.59 80.89 113.59 81.75 113.57 81.78"/>
    <polyline class="cls-7" points="112.14 62.13 113.55 61.54 113.59 61.54"/>
    <polyline class="cls-7" points="111.35 61.85 112.04 62.13 112.09 62.14"/>
    <polyline class="cls-7" points="107.03 94.9 107.03 94.79 108.74 94.12"/>
    <polyline class="cls-7" points="113.66 61.55 113.77 61.6 113.72 77.32"/>
    <line class="cls-7" x1="103.6" y1="90.38" x2="103.6" y2="90.26"/>
    <line class="cls-7" x1="100.98" y1="55.6" x2="100.98" y2="55.48"/>
    <polyline class="cls-7" points="113.77 57.98 113.78 57.53 113.91 57.48"/>
    <g class="cls-15">
      <path class="cls-7" d="M106,88.97c.02-.06.06-.12.12-.16"/>
      <path class="cls-7" d="M105.99,93.42s.02-.07.05-.11"/>
      <path class="cls-7" d="M105.67,93.11c-.05.06-.09.14-.09.21l.4.17"/>
      <path class="cls-7" d="M105.68,88.67c-.05.06-.07.14-.09.21l.4.16"/>
      <path class="cls-7" d="M97.31,56.52s.07-.07.12-.09"/>
      <path class="cls-7" d="M103.29,93.42l-.22.1c.01.1.06.2.15.25l.6-.25"/>
    </g>
    <line class="cls-7" x1="105.58" y1="90.95" x2="105.7" y2="91"/>
    <line class="cls-7" x1="105.57" y1="95.4" x2="105.69" y2="95.45"/>
    <g class="cls-59">
      <path class="cls-7" d="M93.73,53.63c.07.04.15.06.23.09"/>
      <path class="cls-7" d="M93.72,58.83c.07.04.15.07.23.1"/>
      <path class="cls-7" d="M108.98,96.18c.12.03.25,0,.37-.04"/>
      <path class="cls-7" d="M108.99,91.73c.12.04.25,0,.37-.04"/>
      <path class="cls-7" d="M108.72,63.74c.12.04.25,0,.37-.04"/>
      <path class="cls-7" d="M94.07,58.94c.17.03.37.03.54-.02"/>
      <path class="cls-7" d="M94.09,53.74c.18.03.37.03.54-.02"/>
      <path class="cls-7" d="M110.74,93.75c.07-.14.1-.31.11-.48-.02-.59-.33-1.26-.91-1.41"/>
      <path class="cls-7" d="M101.9,86.72c.06.2.11.4.11.61,0,.16-.04.33-.11.47"/>
      <path class="cls-7" d="M97.1,56.04c.07-.14.1-.3.1-.46-.01-.53-.27-1.08-.74-1.32"/>
      <path class="cls-7" d="M109.24,95.2c.1-.18.15-.39.15-.61v-.26c-.01-.63-.3-1.28-.84-1.61"/>
      <path class="cls-7" d="M108.98,62.76c.11-.17.15-.39.16-.61v-1.58c-.01-.63-.31-1.29-.85-1.62"/>
      <path class="cls-7" d="M109.25,90.75c.07-.14.12-.3.15-.47"/>
      <path class="cls-7" d="M99.91,90.12c.94.07,1.49,1.21,1.52,2.15-.01.3-.07.61-.26.84"/>
      <path class="cls-7" d="M100.57,92.63c-.56.19-1.01-.57-1.04-1.15,0-.23.09-.48.3-.59"/>
      <path class="cls-7" d="M103.47,88.91l-.38.16c.01.1.06.2.15.26l.61-.26"/>
      <path class="cls-7" d="M100.81,59.92l-.38.16c.01.1.06.2.15.25l.61-.25"/>
      <path class="cls-7" d="M98.29,58.05l-1.01.43c.01.17.1.33.25.42l1.01-.43"/>
    </g>
    <line class="cls-7" x1="104.83" y1="89.66" x2="104.83" y2="89.53"/>
    <line class="cls-7" x1="106.74" y1="90.47" x2="106.74" y2="90.34"/>
    <line class="cls-7" x1="107.04" y1="90.47" x2="108.69" y2="89.84"/>
    <line class="cls-7" x1="104.81" y1="94.1" x2="104.81" y2="93.98"/>
    <line class="cls-7" x1="105.71" y1="93.07" x2="106.11" y2="93.25"/>
    <line class="cls-7" x1="106.73" y1="94.92" x2="106.73" y2="94.78"/>
    <line class="cls-7" x1="111.05" y1="59.4" x2="111.05" y2="58.32"/>
    <line class="cls-7" x1="96.31" y1="86.23" x2="96.32" y2="84.09"/>
    <line class="cls-7" x1="100.08" y1="46.11" x2="100.4" y2="45.98"/>
    <line class="cls-7" x1="100.43" y1="91.05" x2="99.54" y2="91.48"/>
    <polyline class="cls-7" points="97.27 58.48 97.29 56.65 97.68 56.51"/>
    <polyline class="cls-7" points="99.19 59.4 98.95 59.51 97.52 58.9"/>
    <polyline class="cls-7" points="100.66 55.21 100.44 55.31 100.44 55.63 108.15 58.88"/>
    <polyline class="cls-7" points="100.57 60.33 108.53 63.69 109.43 63.32"/>
    <polyline class="cls-7" points="103.31 89.98 103.08 90.08 103.08 90.4 108.4 92.65"/>
    <polyline class="cls-7" points="107.27 95.48 108.79 96.11 109.69 95.76"/>
    <polyline class="cls-7" points="107.28 91.04 108.8 91.68 109.71 91.31"/>
    <polyline class="cls-7" points="113.59 80.89 113.71 80.94 113.66 96.68"/>
    <line class="cls-7" x1="106.84" y1="90.85" x2="106.96" y2="90.9"/>
    <line class="cls-7" x1="103.23" y1="89.33" x2="104.88" y2="90.02"/>
    <line class="cls-7" x1="103.08" y1="89.07" x2="103.08" y2="88.75"/>
    <polyline class="cls-7" points="113.65 100.71 113.66 100.3 113.91 100.19"/>
    <line class="cls-7" x1="106.59" y1="95.2" x2="106.74" y2="95.26"/>
    <line class="cls-7" x1="103.22" y1="93.77" x2="104.86" y2="94.46"/>
    <line class="cls-7" x1="113.71" y1="80.94" x2="113.86" y2="80.88"/>
    <line class="cls-7" x1="103.07" y1="93.52" x2="103.07" y2="93.2"/>
    <line class="cls-7" x1="113.77" y1="61.6" x2="114.07" y2="61.46"/>
    <line class="cls-7" x1="100.43" y1="60.08" x2="100.43" y2="59.76"/>
    <line class="cls-7" x1="112.98" y1="81.1" x2="113.49" y2="80.89"/>
    <polyline class="cls-7" points="113.67 99.34 113.67 98.44 113.53 98.5"/>
    <line class="cls-7" x1="112.64" y1="61.12" x2="112.65" y2="57.5"/>
    <polyline class="cls-7" points="113.66 100.3 112.52 99.82 112.54 96.2"/>
    <line class="cls-7" x1="113.96" y1="98.31" x2="113.67" y2="98.44"/>
    <polyline class="cls-7" points="95.2 54.39 95.2 53.73 95.58 53.57 97 53.58"/>
    <polyline class="cls-7" points="95.17 61.45 95.17 60.77 95.56 60.61 96.99 60.62"/>
    <line class="cls-7" x1="95.47" y1="86.6" x2="96.6" y2="87.07"/>
    <line class="cls-7" x1="95.58" y1="49.86" x2="113.79" y2="57.53"/>
    <polyline class="cls-7" points="94.75 53.68 94.91 53.6 95.2 53.73"/>
    <line class="cls-7" x1="94.89" y1="60.65" x2="95.17" y2="60.77"/>
    <line class="cls-7" x1="95.37" y1="55.94" x2="95.37" y2="54.33"/>
    <polyline class="cls-7" points="112.61 61.1 112.64 61.12 113.64 60.7"/>
    <polyline class="cls-7" points="96.27 86.22 96.31 86.23 96.48 86.3"/>
    <g class="cls-17">
      <path class="cls-7" d="M110.83,56.84s.04.03.06.05l.06-.04s-.04-.05-.08-.05"/>
      <path class="cls-7" d="M111.05,58.31h0s.07.03.11.01"/>
      <path class="cls-7" d="M111.07,58.25s.09-.07.14-.06l.06.02"/>
      <path class="cls-7" d="M106.35,91.15c.28-.06.38-.39.39-.68.06.01.11.03.16.03"/>
      <path class="cls-7" d="M106.99,94.79h.04c-.04-.63-.35-1.27-.91-1.54l1.64-.8c.62.28.98,1,.99,1.68v.14c-.01.33-.14.7-.44.86"/>
      <path class="cls-7" d="M105.97,93.49c.47.24.73.77.75,1.29.07.03.15.04.22.03"/>
      <path class="cls-7" d="M107.01,90.34h.02c-.02-.57-.26-1.19-.75-1.46"/>
      <path class="cls-7" d="M105.99,89.05c.47.24.73.77.75,1.3.05.01.11.02.16.02"/>
      <path class="cls-7" d="M106.09,95.6c.35.11.63-.32.64-.68.07.01.15.03.22.01"/>
    </g>
    <polyline class="cls-7" points="105.55 93.03 105.72 93.07 107.36 92.27 107.75 92.44"/>
    <line class="cls-7" x1="105.55" y1="88.58" x2="105.73" y2="88.63"/>
    <g class="cls-2">
      <path class="cls-7" d="M106.8,92.26c.12-.05.25-.07.38-.04"/>
    </g>
    <line class="cls-7" x1="103.53" y1="90.22" x2="103.08" y2="90.4"/>
    <line class="cls-7" x1="100.88" y1="55.44" x2="100.44" y2="55.63"/>
    <line class="cls-7" x1="108.59" y1="58.69" x2="108.15" y2="58.88"/>
    <line class="cls-7" x1="108.73" y1="58.64" x2="108.61" y2="58.69"/>
    <line class="cls-7" x1="112.14" y1="62.13" x2="112.13" y2="62.86"/>
    <g class="cls-38">
      <path class="cls-7" d="M102.16,87.83c.23-.14.35-.41.36-.68"/>
      <path class="cls-7" d="M106.86,95.5c.1-.17.15-.38.16-.58"/>
      <path class="cls-7" d="M106.88,91.05c.1-.17.15-.37.16-.58"/>
      <path class="cls-7" d="M108.31,90.68c.25-.14.39-.41.43-.68"/>
      <path class="cls-7" d="M109.97,57.72s-.03-.04-.03-.06l.07-.06"/>
      <path class="cls-7" d="M106.53,62.18c.17-.21.22-.49.23-.77v-.05c-.02-.91-.56-2.01-1.47-2.11"/>
      <path class="cls-7" d="M106.1,91.15c.06.03.12.03.18.01"/>
    </g>
    <polyline class="cls-7" points="113.51 62.43 113.54 62.41 113.55 61.54"/>
    <line class="cls-7" x1="105.47" y1="90.87" x2="105.58" y2="90.95"/>
    <g class="cls-37">
      <path class="cls-7" d="M104.83,89.66c.02.36.14.73.39,1"/>
      <path class="cls-7" d="M104.54,59.82c.18-.37.75-.36,1.09-.12.54.36.83,1.03.84,1.67-.01.48-.32,1.03-.79.96"/>
      <path class="cls-7" d="M104.37,60.47c0-.17.01-.35.09-.51"/>
    </g>
    <line class="cls-7" x1="104.54" y1="61.3" x2="104.44" y2="61.04"/>
    <g class="cls-67">
      <path class="cls-7" d="M104.89,61.86c-.09-.09-.15-.2-.21-.3"/>
    </g>
    <line class="cls-7" x1="105.1" y1="62.07" x2="105.01" y2="61.98"/>
    <line class="cls-7" x1="105.42" y1="62.27" x2="105.31" y2="62.22"/>
    <line class="cls-7" x1="95.82" y1="55.65" x2="95.82" y2="54.33"/>
    <g class="cls-10">
      <path class="cls-7" d="M110.09,91.67c.68-.23,1.24.68,1.27,1.41-.01.28-.12.58-.37.72"/>
      <path class="cls-7" d="M102.19,92.89c.46-.15.67-.69.68-1.17-.02-1.14-.95-2.63-2.02-2.21"/>
      <path class="cls-7" d="M106.06,58.74c1.03-.39,1.92,1.04,1.93,2.14,0,.43-.16.9-.54,1.09"/>
      <path class="cls-7" d="M111.76,58.38s.04-.1.01-.15l-.82-1.38"/>
      <path class="cls-7" d="M97.26,56.11c.23-.14.33-.42.35-.69-.02-.47-.23-.94-.61-1.24-.27-.05-.54-.05-.82,0v.07"/>
      <path class="cls-7" d="M111.23,59.44s.05-.04.05-.07v-1.07"/>
      <path class="cls-7" d="M104.83,89.53c.01-.21.06-.44.22-.59.15-.12.36-.11.54-.05"/>
      <path class="cls-7" d="M106.47,61.36c.1.04.2.04.3,0l1.22-.48"/>
      <path class="cls-7" d="M104.81,94.1c.02.53.3,1.06.75,1.3"/>
      <path class="cls-7" d="M104.81,93.98c.01-.22.06-.46.22-.59.15-.12.36-.12.54-.06"/>
    </g>
    <line class="cls-7" x1="94.75" y1="56.18" x2="94.75" y2="53.68"/>
    <line class="cls-7" x1="94.73" y1="61.39" x2="94.74" y2="58.88"/>
    <line class="cls-7" x1="110.76" y1="56.96" x2="111.57" y2="58.35"/>
    <line class="cls-7" x1="93.94" y1="61.42" x2="93.95" y2="58.93"/>
    <line class="cls-7" x1="93.95" y1="56.22" x2="93.96" y2="53.71"/>
    <line class="cls-7" x1="111.26" y1="51.62" x2="112.02" y2="51.95"/>
    <line class="cls-7" x1="100.08" y1="46.9" x2="100.9" y2="47.25"/>
    <line class="cls-7" x1="111.26" y1="51.32" x2="112.02" y2="51.62"/>
    <line class="cls-7" x1="100.08" y1="46.59" x2="101.22" y2="47.08"/>
    <line class="cls-7" x1="109.53" y1="61.98" x2="109.14" y2="62.15"/>
    <line class="cls-7" x1="109.53" y1="60.4" x2="109.14" y2="60.57"/>
    <line class="cls-7" x1="108.94" y1="92.42" x2="108.4" y2="92.65"/>
    <line class="cls-7" x1="109.79" y1="94.42" x2="109.39" y2="94.59"/>
    <line class="cls-7" x1="109.79" y1="94.17" x2="109.39" y2="94.34"/>
    <polyline class="cls-7" points="112.52 99.82 113.67 99.34 113.81 99.28"/>
    <polyline class="cls-7" points="97 54.18 97 53.58 95.57 52.97"/>
    <polyline class="cls-7" points="96.98 61.33 96.99 60.62 96.62 60.47 96.62 58.63 95.56 58.18"/>
    <line class="cls-7" x1="111.26" y1="52.23" x2="112.02" y2="52.55"/>
    <line class="cls-7" x1="100.08" y1="47.52" x2="100.82" y2="47.83"/>
    <line class="cls-7" x1="95.58" y1="54.24" x2="95.58" y2="53.56"/>
    <line class="cls-7" x1="95.56" y1="61.29" x2="95.56" y2="60.61"/>
    <polyline class="cls-7" points="94.89 61.33 94.89 60.65 95.36 60.46 96.62 60.47"/>
    <line class="cls-7" x1="94.91" y1="54.28" x2="94.91" y2="53.6"/>
    <line class="cls-7" x1="95.36" y1="60.46" x2="95.36" y2="58.62"/>
    <g class="cls-62">
      <path class="cls-7" d="M93.6,56c.06.14.21.19.35.22.27.05.54.05.8-.04l.62-.25h.63"/>
      <path class="cls-7" d="M110.76,56.86h0l-.79.67-.02.02c-.04.06-.04.14.02.16h.02s.36.16.36.16"/>
      <path class="cls-7" d="M110.35,57.89s.07.09.07.15v1.07s.03.08.05.09h.02s.59.27.59.27h.05"/>
    </g>
    <polyline class="cls-7" points="111.2 59.45 111.23 59.44 111.2 59.44 111.13 59.4"/>
    <g class="cls-45">
      <path class="cls-7" d="M104.76,89.49v.11c.01.36.12.73.35,1.01"/>
    </g>
    <polyline class="cls-7" points="106.63 91.26 106.63 91.26 108.31 90.68"/>
    <g class="cls-50">
      <path class="cls-7" d="M109.79,93.98v1.3c-.01.33-.15.69-.45.86"/>
    </g>
    <polyline class="cls-7" points="93.6 58.59 93.59 58.63 93.59 61.14"/>
    <g class="cls-28">
      <path class="cls-7" d="M105.42,90.94c.07.06.16.11.25.15l.4.16c.07.04.15.05.22.06"/>
      <path class="cls-7" d="M93.59,61.21c.06.12.21.17.35.21.26.06.54.05.79-.04l.16-.06.28.12.38-.16,1.42.04"/>
      <path class="cls-7" d="M100.88,55.52h0s.05.07.1.1l1.49.63c.12.04.26.06.38.03"/>
      <path class="cls-7" d="M103.53,90.28s.05.09.09.11l1.49.63c.12.04.26.05.38.03"/>
      <path class="cls-7" d="M98.36,58.32c.05.06.1.11.17.15l.67.29"/>
      <path class="cls-7" d="M106.3,91.26l2.51,1.05c.14.06.26.16.38.26"/>
      <path class="cls-7" d="M102.16,87.83l-.51.2c-.68.22-1.22-.68-1.26-1.4.01-.15.02-.3.09-.42"/>
      <path class="cls-7" d="M104.75,93.91h0v.12c.01.62.36,1.22.9,1.49l.4.16c.14.05.27.07.42.05l.15-.04,1.68-.58"/>
      <path class="cls-7" d="M106.8,92.26l-1.59.8-.14.09c-.19.15-.28.4-.31.63"/>
      <path class="cls-7" d="M105.59,88.43l-.37.19-.14.09c-.18.16-.28.4-.31.63"/>
      <path class="cls-7" d="M106.42,62.29l1.72.72c.17.07.37.07.56.01l.77-.33"/>
      <path class="cls-7" d="M112.61,61.14h.01s-.01,0-.02,0l-1.36.62h-.01s-.01.84-.01.84c.01.03.02.05.04.06l.8.33s.04.01.06,0l1.41-.54"/>
      <path class="cls-7" d="M111.25,58.25s-.1,0-.1.01h.1l.36.15s.05.01.08,0l.07-.02h-.04s-.01-.01-.01-.01"/>
      <path class="cls-7" d="M106.06,58.74c-.38.19-.77.37-1.15.56l-.09.04c-.37.21-.52.67-.52,1.08,0,1.03.8,2.29,1.8,2.05l.1-.04c.41-.15.82-.31,1.24-.46"/>
    </g>
    <line class="cls-7" x1="112.98" y1="81.99" x2="113.46" y2="81.79"/>
    <g class="cls-30">
      <path class="cls-7" d="M95.82,55.65c.2.37.57.73.98.64.16-.06.31-.12.47-.19"/>
      <path class="cls-7" d="M94.11,53.17c-.1.01-.2.04-.3.07-.09.04-.17.1-.21.19v2.51"/>
      <path class="cls-7" d="M110.09,91.67l-.49.22c-.25.14-.35.42-.36.7.03.72.58,1.62,1.26,1.4l.49-.2"/>
      <path class="cls-7" d="M107.95,90.81l.46.19c.17.07.37.07.56.01l.83-.36"/>
      <path class="cls-7" d="M107.94,95.25l.46.2c.17.06.37.07.56.01l.83-.37"/>
      <path class="cls-7" d="M100.86,89.5l-1.34.68c-.38.19-.53.64-.54,1.06.02,1.04.78,2.36,1.8,2.12l1.41-.48"/>
    </g>
    <polyline class="cls-7" points="96.26 86.25 96.29 86.23 96.26 86.25 95.47 86.6 95.46 93.04 113.65 100.71 113.91 100.61"/>
    <g class="cls-74">
      <path class="cls-7" d="M99.83,90.89c.56-.18,1.01.57,1.04,1.15-.01.23-.1.48-.3.59"/>
      <path class="cls-7" d="M94.46,53.16c.06.01.14.03.21.04l.46-.2.37-.06"/>
      <path class="cls-7" d="M109.36,91.69c.3-.16.43-.52.43-.86v-.49"/>
    </g>
    <polyline class="cls-7" points="103.17 89.95 103.23 89.96 105.46 90.9"/>
    <g class="cls-43">
      <path class="cls-7" d="M100.54,55.18h.05l7.96,3.36c.63.29.98,1,.99,1.68v2.61c-.01.35-.15.7-.45.86"/>
      <path class="cls-7" d="M93.8,58.45c.26-.1.57-.1.85-.05l.46-.2.37-.05"/>
      <path class="cls-7" d="M99.13,59.5c.05-.06.07-.14.07-.2v-1.83c0-.17-.09-.33-.25-.42l-1.42-.6h-.1"/>
    </g>
    <line class="cls-7" x1="109.08" y1="90.96" x2="109.73" y2="91.25"/>
    <line class="cls-7" x1="106.9" y1="90.37" x2="107.04" y2="90.42"/>
    <line class="cls-7" x1="103.08" y1="88.75" x2="104.84" y2="89.49"/>
    <polyline class="cls-7" points="113.97 96.56 113.66 96.68 112.54 96.2"/>
    <line class="cls-7" x1="109.06" y1="95.41" x2="109.72" y2="95.69"/>
    <line class="cls-7" x1="103.07" y1="93.2" x2="104.75" y2="93.92"/>
    <polyline class="cls-7" points="114.02 77.19 113.72 77.32 112.99 77.01"/>
    <line class="cls-7" x1="104.06" y1="90.57" x2="104.06" y2="90.31"/>
    <polyline class="cls-7" points="114.03 57.88 113.77 57.98 112.65 57.5"/>
    <line class="cls-7" x1="108.78" y1="62.97" x2="109.46" y2="63.25"/>
    <line class="cls-7" x1="100.43" y1="59.76" x2="104.59" y2="61.51"/>
    <line class="cls-7" x1="101.41" y1="55.79" x2="101.41" y2="55.53"/>
    <polyline class="cls-7" points="113.64 57.98 113.64 60.7 113.76 60.74 113.91 60.68 114.07 60.62"/>
    <line class="cls-7" x1="113.53" y1="98.5" x2="113.53" y2="96.62"/>
    <line class="cls-7" x1="96.59" y1="87.07" x2="96.61" y2="84.23"/>
    <line class="cls-7" x1="98.36" y1="58.32" x2="98.36" y2="56.8"/>
    <polyline class="cls-7" points="94.91 54.28 95.2 54.39 95.58 54.24 96.19 54.26"/>
    <line class="cls-7" x1="95.54" y1="61.3" x2="95.54" y2="62.17"/>
    <line class="cls-7" x1="95.56" y1="55.94" x2="95.56" y2="58.17"/>
    <polyline class="cls-7" points="95.57 52.97 95.58 49.86 96.26 49.55"/>
    <line class="cls-7" x1="113.53" y1="97.19" x2="113.85" y2="97.33"/>
    <polyline class="cls-7" points="112.72 89.38 112.71 89.37 112.77 72.15 112.77 72.1"/>
    <g class="cls-44">
      <path class="cls-7" d="M109.09,77.66c.07.05.12.15.14.25"/>
      <path class="cls-7" d="M96.41,73.88c.07.05.12.15.12.25"/>
    </g>
    <line class="cls-7" x1="110.66" y1="89.84" x2="110.77" y2="89.82"/>
    <g class="cls-20">
      <path class="cls-7" d="M110.42,72.58l-.05,17.2c.09.04.17.05.27.05"/>
      <path class="cls-7" d="M91.95,62.77l.07.03c5.99,2.94,12.05,5.77,18.14,8.5"/>
    </g>
    <line class="cls-7" x1="91.24" y1="80.83" x2="91.24" y2="80.72"/>
    <g class="cls-39">
      <path class="cls-7" d="M91.7,81.68c6.01,2.94,12.06,5.78,18.15,8.52"/>
      <path class="cls-7" d="M91.76,63.2c5.99,2.94,12.05,5.77,18.14,8.52"/>
    </g>
    <line class="cls-7" x1="113.64" y1="77.28" x2="112.99" y2="77.59"/>
    <line class="cls-7" x1="99.45" y1="64.53" x2="98.96" y2="64.74"/>
    <g class="cls-66">
      <path class="cls-7" d="M98.04,72.55h.05c3.65,1.74,7.33,3.44,11.01,5.1.09.05.14.15.15.25l-.02,5.52c0,.05-.01.09-.04.11"/>
      <path class="cls-7" d="M112.77,72.15c-.35.1-.69.2-1.05.27-.3.07-.61.14-.9.2-.01-.52-.23-1.04-.65-1.32-.15.09-.23.25-.26.42.32.15.48.51.52.87.09.02.18.04.28.04"/>
      <path class="cls-7" d="M110.02,81.45c.14-.02.21-.17.21-.31"/>
      <path class="cls-7" d="M92.59,62.55l-.57.25c-.15.07-.25.23-.26.41-.21-.07-.43.1-.46.32"/>
      <path class="cls-7" d="M109.93,90.22c.22.09.43-.18.44-.43"/>
      <path class="cls-7" d="M110.66,90.29c.1-.12.11-.31.11-.47.3-.06.59-.11.89-.18.35-.09.7-.17,1.05-.27"/>
    </g>
    <line class="cls-7" x1="110.49" y1="90.45" x2="110.58" y2="90.39"/>
    <g class="cls-55">
      <path class="cls-7" d="M91.45,81.45c.05.07.1.12.16.19"/>
      <path class="cls-7" d="M91.24,80.83c.01.09.02.17.04.26"/>
      <path class="cls-7" d="M109.67,80.46c.06-.01.14-.01.21.03.21.12.33.37.35.62-.15.06-.32.05-.48,0,0,.04-.01.09-.04.1-.02.03-.06.03-.09.01-.04-.01-.08-.05-.1-.09-.01-.04-.02-.09-.02-.12s0-.07.02-.1c.02-.03.06-.03.1-.01.04.01.06.05.09.09s.04.09.04.12"/>
      <path class="cls-7" d="M109.88,80.48s-.11-.04-.16-.04"/>
      <path class="cls-7" d="M93.32,72.37h.05c1.01.51,2.04,1,3.05,1.5.09.05.14.15.14.26v1.32c0,.05-.01.09-.04.11"/>
      <path class="cls-7" d="M109.39,80.89s.06.09.11.11"/>
      <path class="cls-7" d="M110.16,71.3c.36-.06.7-.14,1.06-.21.3-.07.61-.15.9-.23"/>
    </g>
    <line class="cls-7" x1="92.8" y1="62.57" x2="94.8" y2="61.72"/>
    <line class="cls-7" x1="110.77" y1="89.82" x2="110.82" y2="72.62"/>
    <g class="cls-1">
      <path class="cls-7" d="M96.51,75.58s-.04.03-.06.03h-.05c-1.03-.49-2.04-.99-3.07-1.48-.07-.06-.12-.16-.14-.26v-1.33c.01-.05.02-.09.05-.11"/>
      <path class="cls-7" d="M97.94,72.68c.01-.06.04-.11.1-.14-.04.01-.06.01-.07.04-.02.04-.04.07-.05.11v5.53c0,.1.05.2.12.26,3.66,1.73,7.33,3.42,11.02,5.08h.05s.04,0,.06-.01"/>
    </g>
    <polyline class="cls-7" points="110.66 70.21 110.66 70.1 92.68 62.51"/>
    <g class="cls-49">
      <path class="cls-7" d="M97.94,78.28c.02.07.06.14.11.17"/>
      <path class="cls-7" d="M110.61,70.21l1.52.64c.4.18.65.6.77,1.03l.11,3.66-.04,10.23-.14,3.76c-.05.21-.19.4-.4.47-.74.21-1.31.32-2.06.48-.12.02-.25-.01-.37-.05l-.07-.04c-6.1-2.72-12.16-5.56-18.14-8.52-.41-.22-.59-.7-.62-1.16l.05-17.2c0-.26.12-.49.3-.68l.11-.06.63-.27c.1-.02.2-.05.3-.01"/>
      <path class="cls-7" d="M99.45,65.24v-.72l-4.65-2.81c-.14-.05-.28-.05-.42-.01l-1.83.78"/>
      <path class="cls-7" d="M109.68,80.46h.04s-.05,0-.05,0c-.17.07-.27.26-.29.43.01.32.32.64.63.56h-.04"/>
      <path class="cls-7" d="M109.09,83.56s.06,0,.1-.02"/>
      <path class="cls-7" d="M96.42,75.58s.06.01.1-.01"/>
    </g>
    <line class="cls-7" x1="113.86" y1="80.48" x2="112.98" y2="80.91"/>
    <polyline class="cls-7" points="98.96 64.7 98.96 64.74 99.34 65.33"/>
    <line class="cls-7" x1="103.66" y1="108.25" x2="104.9" y2="108.77"/>
    <g class="cls-61">
      <path class="cls-7" d="M104.76,106.53c.25.37.42.79.52,1.21"/>
    </g>
    <polyline class="cls-7" points="103.4 107.93 103.17 108.04 103.16 109.62 103.65 109.83"/>
    <line class="cls-7" x1="103.17" y1="105.82" x2="103.17" y2="107.4"/>
    <polyline class="cls-7" points="101.92 106.88 101.92 107.51 103.17 108.04"/>
    <polyline class="cls-7" points="102.17 106.98 102.17 107.41 103.4 107.93 103.4 109.52 103.65 109.62"/>
    <g class="cls-24">
      <path class="cls-7" d="M105.39,107.72c-.03-.46-.21-.91-.53-1.25"/>
    </g>
    <line class="cls-7" x1="103.91" y1="108.14" x2="104.9" y2="108.56"/>
    <line class="cls-7" x1="103.16" y1="109.62" x2="103.4" y2="109.52"/>
    <line class="cls-7" x1="103.42" y1="105.91" x2="103.42" y2="107.3"/>
    <line class="cls-7" x1="101.92" y1="107.51" x2="102.17" y2="107.41"/>
    <polyline class="cls-7" points="103.17 105.82 103.66 106.03 103.66 107.61 104.91 108.14 104.9 108.77"/>
    <g class="cls-60">
      <path class="cls-7" d="M104.86,106.47c-.22-.22-.45-.44-.67-.65-.51-.48-1.25-.85-1.89-.57-.63.27-.86,1.05-.88,1.74.01.53.12,1.06.33,1.56.21.48.49.93.88,1.29.46.44,1.1.79,1.72.63.72-.2,1.03-1.05,1.05-1.81v-.94s-.01-.04-.01-.04"/>
    </g>
    <polyline class="cls-7" points="103.65 109.83 103.66 108.25 103.91 108.14 103.91 108.13"/>
    <polyline class="cls-7" points="101.92 106.88 103.17 107.4 103.42 107.3"/>
    <line class="cls-7" x1="103.85" y1="42.29" x2="105.08" y2="42.82"/>
    <polyline class="cls-7" points="103.6 41.98 103.35 42.08 103.34 43.67 103.84 43.88"/>
    <line class="cls-7" x1="103.35" y1="39.86" x2="103.35" y2="41.45"/>
    <polyline class="cls-7" points="102.11 40.92 102.11 41.56 103.35 42.08"/>
    <polyline class="cls-7" points="102.35 41.03 102.35 41.45 103.6 41.98 103.59 43.56 103.84 43.67"/>
    <line class="cls-7" x1="104.1" y1="42.19" x2="105.09" y2="42.61"/>
    <line class="cls-7" x1="103.34" y1="43.67" x2="103.59" y2="43.56"/>
    <line class="cls-7" x1="103.6" y1="39.97" x2="103.6" y2="41.34"/>
    <line class="cls-7" x1="102.11" y1="41.56" x2="102.35" y2="41.45"/>
    <polyline class="cls-7" points="103.35 39.86 103.85 40.07 103.85 41.66 105.1 42.18 105.08 42.82"/>
    <g class="cls-42">
      <path class="cls-7" d="M104.38,39.86c-.51-.47-1.25-.84-1.89-.56-.63.27-.86,1.05-.88,1.73.01.54.12,1.07.33,1.57.21.47.5.93.88,1.29.46.45,1.1.79,1.72.62.72-.2,1.02-1.05,1.05-1.79"/>
    </g>
    <polyline class="cls-7" points="103.84 43.88 103.85 42.29 104.1 42.19 104.1 42.15"/>
    <polyline class="cls-7" points="102.11 40.92 103.35 41.45 103.6 41.34"/>
    <polyline class="cls-7" points="104.54 101.91 104.29 102.01 103.05 101.49 103.05 100.85"/>
    <g class="cls-36">
      <path class="cls-7" d="M106.39,101.64c-.1-.37-.25-.73-.46-1.05"/>
    </g>
    <polyline class="cls-7" points="104.79 103.81 104.28 103.6 104.29 102.01"/>
    <line class="cls-7" x1="106.04" y1="102.74" x2="104.79" y2="102.22"/>
    <line class="cls-7" x1="104.29" y1="101.38" x2="104.29" y2="99.79"/>
    <polyline class="cls-7" points="103.05 101.49 103.29 101.38 103.29 100.96"/>
    <g class="cls-68">
      <path class="cls-7" d="M105.95,100.4c.35.36.54.85.57,1.36"/>
    </g>
    <polyline class="cls-7" points="104.28 103.6 104.53 103.49 104.54 101.91 103.29 101.38"/>
    <line class="cls-7" x1="104.79" y1="103.6" x2="104.53" y2="103.49"/>
    <line class="cls-7" x1="106.04" y1="102.54" x2="105.04" y2="102.12"/>
    <line class="cls-7" x1="104.54" y1="101.27" x2="104.54" y2="99.9"/>
    <g class="cls-29">
      <path class="cls-7" d="M105.95,100.4c-.21-.21-.42-.41-.63-.62-.51-.47-1.25-.84-1.89-.57-.62.28-.86,1.05-.88,1.74.01.53.12,1.08.33,1.56.21.48.49.94.88,1.3.46.45,1.1.78,1.72.62.72-.2,1.03-1.05,1.05-1.79v-.88"/>
    </g>
    <line class="cls-7" x1="105.94" y1="99.76" x2="105.49" y2="99.95"/>
    <line class="cls-7" x1="106.52" y1="102.4" x2="108.51" y2="101.56"/>
    <polyline class="cls-7" points="104.79 103.81 104.79 102.22 105.04 102.12 105.04 102.08"/>
    <polyline class="cls-7" points="106.04 102.74 106.04 102.11 104.79 101.59 104.79 99.99 104.29 99.78"/>
    <polyline class="cls-7" points="103.05 100.85 104.29 101.38 104.54 101.27"/>
    <line class="cls-7" x1="104.94" y1="49.2" x2="106.18" y2="49.72"/>
    <g class="cls-34">
      <path class="cls-7" d="M106.54,48.61c-.1-.37-.25-.73-.45-1.05"/>
    </g>
    <polyline class="cls-7" points="104.69 48.88 104.44 48.99 104.44 50.57 104.94 50.78"/>
    <line class="cls-7" x1="104.45" y1="46.77" x2="104.44" y2="48.35"/>
    <polyline class="cls-7" points="103.21 47.83 103.21 48.46 104.44 48.99"/>
    <line class="cls-7" x1="105.18" y1="49.09" x2="106.18" y2="49.51"/>
    <g class="cls-18">
      <path class="cls-7" d="M106.1,47.39c.35.36.56.85.58,1.35"/>
    </g>
    <polyline class="cls-7" points="104.44 50.57 104.69 50.48 104.94 50.57"/>
    <polyline class="cls-7" points="103.21 48.46 103.44 48.36 104.69 48.88 104.69 50.48"/>
    <line class="cls-7" x1="104.7" y1="46.87" x2="104.69" y2="48.25"/>
    <line class="cls-7" x1="103.45" y1="47.93" x2="103.44" y2="48.36"/>
    <polyline class="cls-7" points="104.45 46.77 104.95 46.98 104.94 48.56 106.18 49.09 106.18 49.72"/>
    <g class="cls-75">
      <path class="cls-7" d="M106.1,47.39c-.21-.21-.42-.42-.63-.62-.12-.12-.26-.25-.41-.33"/>
      <path class="cls-7" d="M103.47,46.27c-.57.28-.74,1.03-.77,1.67.01.53.12,1.06.33,1.56.21.48.51.93.88,1.3.46.43,1.11.78,1.72.62.73-.2,1.04-1.05,1.05-1.8v-.88"/>
    </g>
    <line class="cls-7" x1="106.1" y1="46.73" x2="105.64" y2="46.93"/>
    <line class="cls-7" x1="106.69" y1="49.38" x2="108.66" y2="48.55"/>
    <polyline class="cls-7" points="103.21 47.83 104.44 48.35 104.69 48.25"/>
    <polyline class="cls-7" points="104.94 50.78 104.94 49.2 105.18 49.09 105.18 49.08"/>
    <polyline class="cls-7" points="49.73 62.87 49.73 62.86 50.22 62.65"/>
    <line class="cls-7" x1="70.55" y1="129.62" x2="70.88" y2="129.47"/>
    <g class="cls-70">
      <path class="cls-7" d="M49.74,62.74c.02-.14.1-.25.21-.31"/>
      <path class="cls-7" d="M49.63,120.1l-.06.03c.01.35.19.69.49.84h.04"/>
    </g>
    <line class="cls-7" x1="50.06" y1="119.92" x2="49.69" y2="120.08"/>
    <line class="cls-7" x1="50.55" y1="120.77" x2="50.22" y2="120.91"/>
    <g class="cls-31">
      <path class="cls-7" d="M80.04,70.71c-.05-3.44-1.83-7.03-4.96-8.45l-.05.04"/>
      <path class="cls-7" d="M50.22,51.76c-.61-.23-1.26-.37-1.92-.32"/>
      <path class="cls-7" d="M78.35,138.11c1.16-.84,1.48-2.46,1.51-3.9"/>
    </g>
    <polyline class="cls-7" points="50.32 51.81 75 62.22 75.09 62.25"/>
    <g class="cls-73">
      <path class="cls-7" d="M79.32,70.77c-.09-3.23-1.76-6.57-4.67-7.96-.04-.02-.07-.04-.1-.05l-24.69-10.41s-.06-.03-.09-.04c-.84-.32-1.79-.43-2.61-.06-.65.29-1.15.84-1.51,1.47"/>
      <path class="cls-7" d="M79.86,134.07h0l.17-63.22s.01-.09.01-.14"/>
      <path class="cls-7" d="M74.54,138.32c1.06.4,2.34.32,3.19-.42,1.01-.86,1.36-2.29,1.41-3.62v-.14l.19-63.23v-.15"/>
    </g>
    <line class="cls-7" x1="49.65" y1="127.84" x2="49.86" y2="127.93"/>
    <g class="cls-25">
      <path class="cls-6" d="M50.23,62.56v.09s-.01.17-.01.17l-.16,56.92v.17c.01.35.18.69.49.85h.04s20.42,8.63,20.42,8.63"/>
      <path class="cls-6" d="M49.74,127.97h.04s.05.04.05.04l24.68,10.42s.06.04.1.05c.56.21,1.15.33,1.74.31.46-.01.89-.09,1.31-.25l.9-.38c1.57-.72,2.2-2.63,2.22-4.35l.18-63.5c-.06-3.44-1.83-7.02-4.95-8.45l-24.86-10.48c-.88-.36-1.88-.46-2.76-.1l-.94.4c-.4.2-.75.46-1.05.78-.96.99-1.3,2.41-1.38,3.78v.14l-.18,63.24s0,.09.01.14c.02.45.06.89.14,1.32.26,1.46.82,2.84,1.62,4.08.8,1.17,1.85,2.22,3.14,2.83.05.03.09.05.09.04,0,0-.04-.01-.09-.04"/>
      <path class="cls-6" d="M71.04,129.27v-.27l.16-56.9c0-.06.01-.12.01-.19-.01-.35-.18-.69-.49-.85h-.05s-20.39-8.61-20.39-8.61l-.05-.03c-.09-.03-.19-.04-.29,0l.06-.03"/>
      <path class="cls-6" d="M70.82,129.62c.06-.02.11-.06.15-.11"/>
      <path class="cls-7" d="M104.38,39.86c.5.46,1.29,1.8,1.21,2.86"/>
    </g>
  </g>
  <g id="_レイヤー_3" data-name="レイヤー_3">
    <path class="cls-5" d="M96.72.25H14.34c-4,0-7.25,3.25-7.25,7.25v12.91c0,4,3.25,7.25,7.25,7.25h59.59l26.9,35.4-20.7-35.4h16.58c4,0,7.25-3.25,7.25-7.25V7.5c0-4-3.25-7.25-7.25-7.25Z"/>
    <rect class="cls-4" x="79.59" y="3.57" width="20.6" height="20.6"/>
    <g>
      <path class="cls-52" d="M14.07,7.1v-2.36c.01-.27.01-.3.02-.99-.05.16-.1.32-.12.37-.04.16-.08.26-.09.31l-.91,2.67h-.6l-.77-2.22s-.04-.14-.09-.3c-.08-.23-.14-.42-.28-.83.02.38.04.79.05,1.25v2.09h-.61v-3.74h1.11l.63,1.98.14.46c.03.1.07.2.1.3.01.03.03.11.06.22.03-.13.05-.22.07-.25l.1-.31.07-.25.65-2.15h1.13v3.74h-.65Z"/>
      <path class="cls-52" d="M18.14,7.1l-.32-.87h-1.63l-.32.87h-.66l1.42-3.74h.75l1.46,3.74h-.7ZM17.11,4.28c-.04-.12-.07-.23-.12-.48-.05.25-.08.37-.14.54l-.47,1.35h1.23l-.5-1.4Z"/>
      <path class="cls-52" d="M21.95,7.01c-.32.08-.56.11-.84.11-.53,0-1-.15-1.34-.44-.4-.33-.6-.83-.6-1.46,0-.58.17-1.04.52-1.38.35-.34.82-.51,1.38-.51.32,0,.49.03.87.16l-.05.54c-.25-.12-.47-.17-.75-.17-.8,0-1.27.49-1.27,1.32s.52,1.38,1.31,1.38c.26,0,.48-.04.75-.13l.03.58Z"/>
      <path class="cls-52" d="M24.71,4.9h-.7v-.71h.7v.71ZM24.71,7.06h-.7v-.71h.7v.71Z"/>
      <path class="cls-52" d="M25.96,4.65l.26-.61,1.02.88-.17-1.5h.55l-.17,1.5,1-.9.26.6-1.14.52,1.14.5-.26.61-1.01-.88.17,1.5h-.55l.16-1.5-1,.9-.27-.6,1.14-.52-1.15-.5Z"/>
      <path class="cls-52" d="M29.64,4.65l.26-.61,1.02.88-.17-1.5h.55l-.17,1.5,1-.9.26.6-1.14.52,1.14.5-.26.61-1.01-.88.17,1.5h-.55l.16-1.5-1,.9-.27-.6,1.14-.52-1.15-.5Z"/>
      <path class="cls-52" d="M33.31,4.65l.26-.61,1.02.88-.17-1.5h.55l-.17,1.5,1-.9.26.6-1.14.52,1.14.5-.26.61-1.01-.88.17,1.5h-.55l.16-1.5-1,.9-.27-.6,1.14-.52-1.15-.5Z"/>
      <path class="cls-52" d="M36.99,4.65l.26-.61,1.02.88-.17-1.5h.55l-.17,1.5,1-.9.26.6-1.14.52,1.14.5-.26.61-1.01-.88.17,1.5h-.55l.16-1.5-1,.9-.27-.6,1.14-.52-1.15-.5Z"/>
      <path class="cls-52" d="M40.66,4.65l.26-.61,1.02.88-.17-1.5h.55l-.17,1.5,1-.9.26.6-1.14.52,1.14.5-.26.61-1.01-.88.17,1.5h-.55l.16-1.5-1,.9-.27-.6,1.14-.52-1.15-.5Z"/>
      <path class="cls-52" d="M44.34,4.65l.26-.61,1.02.88-.17-1.5h.55l-.17,1.5,1-.9.26.6-1.14.52,1.14.5-.26.61-1.01-.88.17,1.5h-.55l.16-1.5-1,.9-.27-.6,1.14-.52-1.15-.5Z"/>
      <path class="cls-52" d="M48.01,4.65l.26-.61,1.02.88-.17-1.5h.55l-.17,1.5,1-.9.26.6-1.14.52,1.14.5-.26.61-1.01-.88.17,1.5h-.55l.16-1.5-1,.9-.27-.6,1.14-.52-1.15-.5Z"/>
      <path class="cls-52" d="M51.69,4.65l.26-.61,1.02.88-.17-1.5h.55l-.17,1.5,1-.9.26.6-1.14.52,1.14.5-.26.61-1.01-.88.17,1.5h-.55l.16-1.5-1,.9-.27-.6,1.14-.52-1.15-.5Z"/>
      <path class="cls-52" d="M55.36,4.65l.26-.61,1.02.88-.17-1.5h.55l-.17,1.5,1-.9.26.6-1.14.52,1.14.5-.26.61-1.01-.88.17,1.5h-.55l.16-1.5-1,.9-.27-.6,1.14-.52-1.15-.5Z"/>
      <path class="cls-52" d="M59.04,4.65l.26-.61,1.02.88-.17-1.5h.55l-.17,1.5,1-.9.26.6-1.14.52,1.14.5-.26.61-1.01-.88.17,1.5h-.55l.16-1.5-1,.9-.27-.6,1.14-.52-1.15-.5Z"/>
      <path class="cls-52" d="M62.71,4.65l.26-.61,1.02.88-.17-1.5h.55l-.17,1.5,1-.9.26.6-1.14.52,1.14.5-.26.61-1.01-.88.17,1.5h-.55l.16-1.5-1,.9-.27-.6,1.14-.52-1.15-.5Z"/>
      <path class="cls-52" d="M66.39,4.65l.26-.61,1.02.88-.17-1.5h.55l-.17,1.5,1-.9.26.6-1.14.52,1.14.5-.26.61-1.01-.88.17,1.5h-.55l.16-1.5-1,.9-.27-.6,1.14-.52-1.15-.5Z"/>
    </g>
    <g>
      <path class="cls-52" d="M10.75,12.96v-3.74h.67v3.74h-.67Z"/>
      <path class="cls-52" d="M12.4,9.22h.83c.82,0,1.29.1,1.68.36.45.3.69.81.69,1.47,0,.7-.24,1.24-.69,1.55-.34.23-.81.35-1.44.35h-1.07v-3.74ZM13.13,12.45h.16c.53,0,.8-.06,1.06-.24.34-.24.52-.63.52-1.12,0-.69-.36-1.18-.97-1.29-.17-.04-.38-.05-.82-.06v2.71h.05Z"/>
      <path class="cls-52" d="M24.75,10.76h-.7v-.71h.7v.71ZM24.75,12.92h-.7v-.71h.7v.71Z"/>
      <path class="cls-52" d="M26.01,10.51l.26-.61,1.02.88-.17-1.5h.55l-.17,1.5,1-.9.26.6-1.14.52,1.14.5-.26.61-1.01-.88.17,1.5h-.55l.16-1.5-1,.9-.27-.6,1.14-.52-1.15-.5Z"/>
      <path class="cls-52" d="M29.68,10.51l.26-.61,1.02.88-.17-1.5h.55l-.17,1.5,1-.9.26.6-1.14.52,1.14.5-.26.61-1.01-.88.17,1.5h-.55l.16-1.5-1,.9-.27-.6,1.14-.52-1.15-.5Z"/>
      <path class="cls-52" d="M33.36,10.51l.26-.61,1.02.88-.17-1.5h.55l-.17,1.5,1-.9.26.6-1.14.52,1.14.5-.26.61-1.01-.88.17,1.5h-.55l.16-1.5-1,.9-.27-.6,1.14-.52-1.15-.5Z"/>
      <path class="cls-52" d="M37.03,10.51l.26-.61,1.02.88-.17-1.5h.55l-.17,1.5,1-.9.26.6-1.14.52,1.14.5-.26.61-1.01-.88.17,1.5h-.55l.16-1.5-1,.9-.27-.6,1.14-.52-1.15-.5Z"/>
      <path class="cls-52" d="M40.71,10.51l.26-.61,1.02.88-.17-1.5h.55l-.17,1.5,1-.9.26.6-1.14.52,1.14.5-.26.61-1.01-.88.17,1.5h-.55l.16-1.5-1,.9-.27-.6,1.14-.52-1.15-.5Z"/>
      <path class="cls-52" d="M44.38,10.51l.26-.61,1.02.88-.17-1.5h.55l-.17,1.5,1-.9.26.6-1.14.52,1.14.5-.26.61-1.01-.88.17,1.5h-.55l.16-1.5-1,.9-.27-.6,1.14-.52-1.15-.5Z"/>
      <path class="cls-52" d="M48.06,10.51l.26-.61,1.02.88-.17-1.5h.55l-.17,1.5,1-.9.26.6-1.14.52,1.14.5-.26.61-1.01-.88.17,1.5h-.55l.16-1.5-1,.9-.27-.6,1.14-.52-1.15-.5Z"/>
      <path class="cls-52" d="M51.73,10.51l.26-.61,1.02.88-.17-1.5h.55l-.17,1.5,1-.9.26.6-1.14.52,1.14.5-.26.61-1.01-.88.17,1.5h-.55l.16-1.5-1,.9-.27-.6,1.14-.52-1.15-.5Z"/>
      <path class="cls-52" d="M55.4,10.51l.26-.61,1.02.88-.17-1.5h.55l-.17,1.5,1-.9.26.6-1.14.52,1.14.5-.26.61-1.01-.88.17,1.5h-.55l.16-1.5-1,.9-.27-.6,1.14-.52-1.15-.5Z"/>
      <path class="cls-52" d="M59.08,10.51l.26-.61,1.02.88-.17-1.5h.55l-.17,1.5,1-.9.26.6-1.14.52,1.14.5-.26.61-1.01-.88.17,1.5h-.55l.16-1.5-1,.9-.27-.6,1.14-.52-1.15-.5Z"/>
    </g>
    <g>
      <path class="cls-52" d="M10.77,17.72c.47.28.62.33.89.33.38,0,.62-.2.62-.52s-.14-.45-.67-.65c-.76-.3-1.03-.6-1.03-1.11,0-.66.5-1.07,1.29-1.07.4,0,.66.08,1,.33l-.3.5c-.32-.22-.52-.31-.74-.31-.32,0-.56.2-.56.47,0,.3.08.37.84.71.66.29.87.55.87,1.07,0,.72-.5,1.12-1.38,1.12-.46,0-.73-.08-1.11-.33l.27-.54Z"/>
      <path class="cls-52" d="M13.83,17.72c.47.28.62.33.89.33.38,0,.62-.2.62-.52s-.14-.45-.67-.65c-.76-.3-1.03-.6-1.03-1.11,0-.66.5-1.07,1.29-1.07.4,0,.66.08,1,.33l-.3.5c-.32-.22-.52-.31-.74-.31-.32,0-.56.2-.56.47,0,.3.08.37.84.71.66.29.87.55.87,1.07,0,.72-.5,1.12-1.38,1.12-.46,0-.73-.08-1.11-.33l.27-.54Z"/>
      <path class="cls-52" d="M16.87,18.51v-3.74h.68v3.74h-.68Z"/>
      <path class="cls-52" d="M18.54,14.78h.84c.83,0,1.3.1,1.7.36.45.3.7.81.7,1.47,0,.7-.25,1.24-.7,1.55-.34.23-.82.35-1.46.35h-1.08v-3.74ZM19.27,18h.16c.54,0,.81-.06,1.07-.24.35-.24.53-.63.53-1.12,0-.69-.37-1.18-.98-1.29-.18-.04-.38-.05-.83-.06v2.71h.05Z"/>
      <path class="cls-52" d="M24.68,16.32h-.7v-.71h.7v.71ZM24.68,18.47h-.7v-.71h.7v.71Z"/>
    </g>
    <g>
      <path class="cls-52" d="M11.37,22.52l.02-.03.16-.17,1.29-1.4h.79l-1.62,1.74,1.72,2h-.87l-1.31-1.55s-.03-.04-.06-.08c-.04-.05-.08-.11-.14-.17h0c0,.24,0,.26,0,.32v1.48h-.67v-3.74h.67v1.29c0,.06,0,.21,0,.34l.03-.03Z"/>
      <path class="cls-52" d="M16.49,24.66h-2.2v-3.74h2.18v.55h-1.51v1h1.39v.55h-1.39v1.09h1.53v.55Z"/>
      <path class="cls-52" d="M18.3,24.66v-1.51l-1.38-2.23h.78l.83,1.41c.04.07.07.13.13.29.06-.15.08-.2.13-.28l.84-1.42h.7l-1.36,2.21v1.52h-.67Z"/>
      <path class="cls-52" d="M24.66,22.47h-.7v-.71h.7v.71ZM24.66,24.62h-.7v-.71h.7v.71Z"/>
      <path class="cls-52" d="M25.91,22.21l.26-.61,1.02.88-.17-1.5h.55l-.17,1.5,1-.9.26.6-1.14.52,1.14.5-.26.61-1.01-.88.17,1.5h-.55l.16-1.5-1,.9-.27-.6,1.14-.52-1.15-.5Z"/>
      <path class="cls-52" d="M29.59,22.21l.26-.61,1.02.88-.17-1.5h.55l-.17,1.5,1-.9.26.6-1.14.52,1.14.5-.26.61-1.01-.88.17,1.5h-.55l.16-1.5-1,.9-.27-.6,1.14-.52-1.15-.5Z"/>
      <path class="cls-52" d="M33.26,22.21l.26-.61,1.02.88-.17-1.5h.55l-.17,1.5,1-.9.26.6-1.14.52,1.14.5-.26.61-1.01-.88.17,1.5h-.55l.16-1.5-1,.9-.27-.6,1.14-.52-1.15-.5Z"/>
      <path class="cls-52" d="M36.94,22.21l.26-.61,1.02.88-.17-1.5h.55l-.17,1.5,1-.9.26.6-1.14.52,1.14.5-.26.61-1.01-.88.17,1.5h-.55l.16-1.5-1,.9-.27-.6,1.14-.52-1.15-.5Z"/>
      <path class="cls-52" d="M40.61,22.21l.26-.61,1.02.88-.17-1.5h.55l-.17,1.5,1-.9.26.6-1.14.52,1.14.5-.26.61-1.01-.88.17,1.5h-.55l.16-1.5-1,.9-.27-.6,1.14-.52-1.15-.5Z"/>
      <path class="cls-52" d="M44.29,22.21l.26-.61,1.02.88-.17-1.5h.55l-.17,1.5,1-.9.26.6-1.14.52,1.14.5-.26.61-1.01-.88.17,1.5h-.55l.16-1.5-1,.9-.27-.6,1.14-.52-1.15-.5Z"/>
      <path class="cls-52" d="M47.96,22.21l.26-.61,1.02.88-.17-1.5h.55l-.17,1.5,1-.9.26.6-1.14.52,1.14.5-.26.61-1.01-.88.17,1.5h-.55l.16-1.5-1,.9-.27-.6,1.14-.52-1.15-.5Z"/>
      <path class="cls-52" d="M51.64,22.21l.26-.61,1.02.88-.17-1.5h.55l-.17,1.5,1-.9.26.6-1.14.52,1.14.5-.26.61-1.01-.88.17,1.5h-.55l.16-1.5-1,.9-.27-.6,1.14-.52-1.15-.5Z"/>
      <path class="cls-52" d="M55.31,22.21l.26-.61,1.02.88-.17-1.5h.55l-.17,1.5,1-.9.26.6-1.14.52,1.14.5-.26.61-1.01-.88.17,1.5h-.55l.16-1.5-1,.9-.27-.6,1.14-.52-1.15-.5Z"/>
      <path class="cls-52" d="M58.99,22.21l.26-.61,1.02.88-.17-1.5h.55l-.17,1.5,1-.9.26.6-1.14.52,1.14.5-.26.61-1.01-.88.17,1.5h-.55l.16-1.5-1,.9-.27-.6,1.14-.52-1.15-.5Z"/>
    </g>
    <g>
      <path class="cls-52" d="M29.58,18.82v-2.36c.01-.27.01-.3.02-.99-.05.16-.09.32-.11.37-.04.16-.07.26-.09.31l-.85,2.67h-.56l-.72-2.22s-.04-.14-.09-.3c-.07-.23-.13-.42-.26-.83.02.38.03.79.05,1.25v2.09h-.57v-3.74h1.04l.59,1.98.13.46c.03.1.06.2.09.3.01.03.03.11.05.22.03-.13.05-.22.06-.25l.1-.31.07-.25.61-2.15h1.06v3.74h-.61Z"/>
      <path class="cls-52" d="M33.26,18.82h-2.2v-3.74h2.18v.55h-1.51v1h1.39v.55h-1.39v1.09h1.53v.55Z"/>
      <path class="cls-52" d="M33.67,17.7v-.53h1.37v.53h-1.37Z"/>
      <path class="cls-52" d="M35.56,16.37l.26-.61,1.02.88-.17-1.5h.55l-.17,1.5,1-.9.26.6-1.14.52,1.14.5-.26.61-1.01-.88.17,1.5h-.55l.16-1.5-1,.9-.27-.6,1.14-.52-1.15-.5Z"/>
      <path class="cls-52" d="M39.23,16.37l.26-.61,1.02.88-.17-1.5h.55l-.17,1.5,1-.9.26.6-1.14.52,1.14.5-.26.61-1.01-.88.17,1.5h-.55l.16-1.5-1,.9-.27-.6,1.14-.52-1.15-.5Z"/>
      <path class="cls-52" d="M42.91,16.37l.26-.61,1.02.88-.17-1.5h.55l-.17,1.5,1-.9.26.6-1.14.52,1.14.5-.26.61-1.01-.88.17,1.5h-.55l.16-1.5-1,.9-.27-.6,1.14-.52-1.15-.5Z"/>
      <path class="cls-52" d="M46.58,16.37l.26-.61,1.02.88-.17-1.5h.55l-.17,1.5,1-.9.26.6-1.14.52,1.14.5-.26.61-1.01-.88.17,1.5h-.55l.16-1.5-1,.9-.27-.6,1.14-.52-1.15-.5Z"/>
      <path class="cls-52" d="M50.26,16.37l.26-.61,1.02.88-.17-1.5h.55l-.17,1.5,1-.9.26.6-1.14.52,1.14.5-.26.61-1.01-.88.17,1.5h-.55l.16-1.5-1,.9-.27-.6,1.14-.52-1.15-.5Z"/>
      <path class="cls-52" d="M53.93,16.37l.26-.61,1.02.88-.17-1.5h.55l-.17,1.5,1-.9.26.6-1.14.52,1.14.5-.26.61-1.01-.88.17,1.5h-.55l.16-1.5-1,.9-.27-.6,1.14-.52-1.15-.5Z"/>
      <path class="cls-52" d="M57.61,16.37l.26-.61,1.02.88-.17-1.5h.55l-.17,1.5,1-.9.26.6-1.14.52,1.14.5-.26.61-1.01-.88.17,1.5h-.55l.16-1.5-1,.9-.27-.6,1.14-.52-1.15-.5Z"/>
      <path class="cls-52" d="M61.28,16.37l.26-.61,1.02.88-.17-1.5h.55l-.17,1.5,1-.9.26.6-1.14.52,1.14.5-.26.61-1.01-.88.17,1.5h-.55l.16-1.5-1,.9-.27-.6,1.14-.52-1.15-.5Z"/>
      <path class="cls-52" d="M64.96,16.37l.26-.61,1.02.88-.17-1.5h.55l-.17,1.5,1-.9.26.6-1.14.52,1.14.5-.26.61-1.01-.88.17,1.5h-.55l.16-1.5-1,.9-.27-.6,1.14-.52-1.15-.5Z"/>
      <path class="cls-52" d="M68.63,16.37l.26-.61,1.02.88-.17-1.5h.55l-.17,1.5,1-.9.26.6-1.14.52,1.14.5-.26.61-1.01-.88.17,1.5h-.55l.16-1.5-1,.9-.27-.6,1.14-.52-1.15-.5Z"/>
    </g>
  </g>
</svg>