<svg width="375" height="670" viewBox="0 0 375 670" fill="none" xmlns="http://www.w3.org/2000/svg">
<g id="c6378_RAC_SSID&#232;&#168;&#173;&#229;&#174;&#154;">
<rect width="375" height="670" fill="white"/>
<g id="haeder_setting" filter="url(#filter0_d_10796_54552)">
<rect width="375" height="52" fill="#F9F9F9"/>
<g id="header">
<g id="Lv1/Icn/menu" clip-path="url(#clip0_10796_54552)">
<path id="Chevron" fill-rule="evenodd" clip-rule="evenodd" d="M12.2922 27.1788C11.9026 26.8036 11.9026 26.1974 12.2922 25.8212L21.5371 16.9072C22.0995 16.3643 23.0144 16.3643 23.5777 16.9072C24.14 17.45 24.14 18.3311 23.5777 18.874L15.6691 26.5005C15.6691 26.5005 17.5991 28.3612 18.5641 29.2915C20.2353 30.9027 23.5777 34.1251 23.5777 34.1251C24.14 34.6689 24.14 35.55 23.5777 36.0928C23.0144 36.6357 22.0995 36.6357 21.5371 36.0928L12.2922 27.1788Z" fill="black"/>
</g>
</g>
<text id="&#227;&#130;&#191;&#227;&#130;&#164;&#227;&#131;&#136;&#227;&#131;&#171;" fill="black" style="white-space: pre" xml:space="preserve" font-family="Hiragino Kaku Gothic ProN" font-size="17" font-weight="300" letter-spacing="0px"><tspan x="136.5" y="32.96">&#x30a8;&#x30a2;&#x30b3;&#x30f3;&#x767b;&#x9332;</tspan></text>
</g>
<g id="Frame 243">
<g id="Frame 20">
<g id="step_indicator4" clip-path="url(#clip1_10796_54552)">
<rect id="Rectangle 220" opacity="0.1" x="85.5" y="78" width="48" height="2" fill="black"/>
<rect id="Rectangle 223" opacity="0.1" x="163.5" y="78" width="48" height="2" fill="black"/>
<rect id="Rectangle 224" opacity="0.1" x="241.5" y="78" width="48" height="2" fill="black"/>
<g id="step">
<circle id="Ellipse 4" opacity="0.1" cx="70.5" cy="79" r="15" fill="black"/>
<text id="1" fill="#4C6EE8" style="white-space: pre" xml:space="preserve" font-family="Noto Sans JP" font-size="16" font-weight="bold" letter-spacing="0px"><tspan x="65.7812" y="84.4">1</tspan></text>
</g>
<g id="step_2">
<circle id="Ellipse 4_2" opacity="0.1" cx="148.5" cy="79" r="15" fill="black"/>
<text id="1_2" fill="#4C6EE8" style="white-space: pre" xml:space="preserve" font-family="Noto Sans JP" font-size="16" font-weight="bold" letter-spacing="0px"><tspan x="143.781" y="84.4">2</tspan></text>
</g>
<g id="step_3">
<circle id="Ellipse 4_3" opacity="0.1" cx="226.5" cy="79" r="15" fill="black"/>
<text id="1_3" fill="#4C6EE8" style="white-space: pre" xml:space="preserve" font-family="Noto Sans JP" font-size="16" font-weight="bold" letter-spacing="0px"><tspan x="221.781" y="84.4">3</tspan></text>
</g>
<g id="step_4">
<circle id="Ellipse 4_4" cx="304.5" cy="79" r="15" fill="#4C6EE8"/>
<text id="1_4" fill="white" style="white-space: pre" xml:space="preserve" font-family="Noto Sans JP" font-size="16" font-weight="bold" letter-spacing="0px"><tspan x="299.781" y="84.4">4</tspan></text>
</g>
</g>
</g>
<g id="Frame 2">
<text id="&#230;&#142;&#165;&#231;&#182;&#154;&#230;&#150;&#185;&#230;&#179;&#149;&#227;&#129;&#174;&#233;&#129;&#184;&#230;&#138;&#158;" fill="black" style="white-space: pre" xml:space="preserve" font-family="Hiragino Kaku Gothic ProN" font-size="17" font-weight="600" letter-spacing="0px"><tspan x="20" y="131.46">&#x30a8;&#x30a2;&#x30b3;&#x30f3;&#x3068;&#x30eb;&#x30fc;&#x30bf;&#x30fc;&#x3092;&#x63a5;&#x7d9a;&#x3059;&#x308b;</tspan></text>
</g>
<g id="Frame 3">
<text id="&#227;&#129;&#148;&#228;&#189;&#191;&#231;&#148;&#168;&#227;&#129;&#174;&#227;&#131;&#171;&#227;&#131;&#188;&#227;&#130;&#191;&#227;&#131;&#188;&#227;&#129;&#174;&#228;&#187;&#149;&#230;&#167;&#152;&#227;&#129;&#171;&#229;&#144;&#136;&#227;&#130;&#143;&#227;&#129;&#155;&#227;&#129;&#166;&#230;&#169;&#159;&#229;&#153;&#168;&#231;&#153;&#187;&#233;&#140;&#178;" fill="#646464" style="white-space: pre" xml:space="preserve" font-family="Hiragino Kaku Gothic ProN" font-size="17" font-weight="300" letter-spacing="0px"><tspan x="20" y="165.46">&#x6a5f;&#x5668;&#x306b;&#x30eb;&#x30fc;&#x30bf;&#x30fc;&#x306e;&#x60c5;&#x5831;&#x3092;&#x8a2d;&#x5b9a;&#x3057;&#x307e;&#x3059;&#x3002;&#x63a5;&#x7d9a;</tspan><tspan x="20" y="187.46">&#x3059;&#x308b;&#x30eb;&#x30fc;&#x30bf;&#x30fc;&#x306e;SSID&#x3092;&#x9078;&#x629e;&#x3057;&#x3066;&#x3001;&#x6697;&#x53f7;&#x5316;</tspan><tspan x="20" y="209.46">&#x30ad;&#x30fc;&#xff08;&#x30d1;&#x30b9;&#x30ef;&#x30fc;&#x30c9;&#xff09;&#x3092;&#x5165;&#x529b;&#x3057;&#x3001;&#x753b;&#x9762;&#x4e0b;&#x90e8;&#x306e;</tspan><tspan x="20" y="231.46">&#x300c;&#x63a5;&#x7d9a;&#x3059;&#x308b;&#x300d;&#x30dc;&#x30bf;&#x30f3;&#x3092;&#x30bf;&#x30c3;&#x30d7;&#x3057;&#x3066;&#x304f;&#x3060;&#x3055;</tspan><tspan x="20" y="253.46">&#x3044;&#x3002;</tspan></text>
</g>
<g id="Frame 9">
<text id="&#230;&#142;&#165;&#231;&#182;&#154;&#230;&#150;&#185;&#230;&#179;&#149;&#227;&#129;&#174;&#233;&#129;&#184;&#230;&#138;&#158;_2" fill="black" style="white-space: pre" xml:space="preserve" font-family="Hiragino Kaku Gothic ProN" font-size="17" font-weight="300" letter-spacing="0px"><tspan x="20" y="315.46">SSID</tspan></text>
</g>
<g id="Frame 13">
<g id="targetObj1">
<rect x="20.75" y="328.75" width="333.5" height="42.5" rx="3.25" fill="#F9F9F9"/>
<rect x="20.75" y="328.75" width="333.5" height="42.5" rx="3.25" stroke="#E3E2E2" stroke-width="1.5"/>
<g id="common/common_wifi_list">
<path id="Triangle" fill-rule="evenodd" clip-rule="evenodd" d="M330.168 355.752C330.564 356.346 331.436 356.346 331.832 355.752L337.964 346.555C338.407 345.89 337.93 345 337.131 345H324.869C324.07 345 323.593 345.89 324.036 346.555L330.168 355.752Z" fill="#4C6EE8"/>
</g>
</g>
</g>
<g id="Frame 10">
<text id="&#230;&#142;&#165;&#231;&#182;&#154;&#230;&#150;&#185;&#230;&#179;&#149;&#227;&#129;&#174;&#233;&#129;&#184;&#230;&#138;&#158;_3" fill="black" style="white-space: pre" xml:space="preserve" font-family="Hiragino Kaku Gothic ProN" font-size="17" font-weight="300" letter-spacing="0px"><tspan x="20" y="409.46">&#x6697;&#x53f7;&#x5316;&#x30ad;&#x30fc;&#xff08;&#x30d1;&#x30b9;&#x30ef;&#x30fc;&#x30c9;&#xff09;</tspan></text>
</g>
<g id="Frame 14">
<g id="Group 312">
<rect id="box1_W340_44 Copy" x="20.75" y="422.75" width="337.5" height="42.5" rx="3.25" stroke="#E3E2E2" stroke-width="1.5"/>
</g>
</g>
<g id="Frame 11">
<g id="common/common_checkbox_off">
<path id="Rectangle" fill-rule="evenodd" clip-rule="evenodd" d="M37 486H23C21.3431 486 20 487.343 20 489V503C20 504.657 21.3431 506 23 506H37C38.6569 506 40 504.657 40 503V489C40 487.343 38.6569 486 37 486ZM23 488H37C37.5523 488 38 488.448 38 489V503C38 503.552 37.5523 504 37 504H23C22.4477 504 22 503.552 22 503V489C22 488.448 22.4477 488 23 488Z" fill="#C8C8C8"/>
</g>
<text id="&#230;&#142;&#165;&#231;&#182;&#154;&#230;&#150;&#185;&#230;&#179;&#149;&#227;&#129;&#174;&#233;&#129;&#184;&#230;&#138;&#158;_4" fill="black" style="white-space: pre" xml:space="preserve" font-family="Hiragino Kaku Gothic ProN" font-size="17" font-weight="300" letter-spacing="0px"><tspan x="48" y="503.46">&#x6697;&#x53f7;&#x5316;&#x30ad;&#x30fc;&#x3092;&#x8868;&#x793a;&#x3059;&#x308b;</tspan></text>
</g>
<g id="Frame 12">
<text id="&#230;&#142;&#165;&#231;&#182;&#154;&#230;&#150;&#185;&#230;&#179;&#149;&#227;&#129;&#174;&#233;&#129;&#184;&#230;&#138;&#158;_5" fill="#4C6EE8" style="white-space: pre" xml:space="preserve" font-family="Hiragino Kaku Gothic ProN" font-size="17" font-weight="600" letter-spacing="0px"><tspan x="20" y="545.46">&#x524d;&#x56de;&#x4f7f;&#x7528;&#x3057;&#x305f;&#x6697;&#x53f7;&#x5316;&#x30ad;&#x30fc;&#x3092;&#x5165;&#x529b;&#x3059;&#x308b;</tspan></text>
</g>
</g>
<g id="Frame 236">
<g id="targetObj2">
<rect id="button1" x="32" y="582" width="311" height="48" rx="24" fill="#646464"/>
<text id="&#227;&#130;&#191;&#227;&#130;&#164;&#227;&#131;&#136;&#227;&#131;&#171;_2" fill="white" style="white-space: pre" xml:space="preserve" font-family="Hiragino Kaku Gothic ProN" font-size="20" font-weight="600" letter-spacing="-0.48px"><tspan x="148.22" y="613.6">&#x63a5;&#x7d9a;&#x3059;&#x308b;</tspan></text>
</g>
</g>
</g>
<defs>
<filter id="filter0_d_10796_54552" x="0" y="0" width="375" height="52.5" filterUnits="userSpaceOnUse" color-interpolation-filters="sRGB">
<feFlood flood-opacity="0" result="BackgroundImageFix"/>
<feColorMatrix in="SourceAlpha" type="matrix" values="0 0 0 0 0 0 0 0 0 0 0 0 0 0 0 0 0 0 127 0" result="hardAlpha"/>
<feOffset dy="0.5"/>
<feColorMatrix type="matrix" values="0 0 0 0 0 0 0 0 0 0 0 0 0 0 0 0 0 0 0.3 0"/>
<feBlend mode="normal" in2="BackgroundImageFix" result="effect1_dropShadow_10796_54552"/>
<feBlend mode="normal" in="SourceGraphic" in2="effect1_dropShadow_10796_54552" result="shape"/>
</filter>
<clipPath id="clip0_10796_54552">
<rect width="60" height="20" fill="white" transform="translate(12 16.5)"/>
</clipPath>
<clipPath id="clip1_10796_54552">
<rect width="264" height="30" fill="white" transform="translate(55.5 64)"/>
</clipPath>
</defs>
</svg>
