<svg width="375" height="667" viewBox="0 0 375 667" fill="none" xmlns="http://www.w3.org/2000/svg">
<g id="c6323_RAC_AP&#230;&#186;&#150;&#229;&#130;&#153;5b">
<rect width="375" height="667" fill="white"/>
<g id="haeder_setting" filter="url(#filter0_d_2840_8622)">
<rect width="375" height="52" fill="#F9F9F9"/>
<g id="header">
<g id="Lv1/Icn/menu" clip-path="url(#clip0_2840_8622)">
<path id="Chevron" fill-rule="evenodd" clip-rule="evenodd" d="M12.2922 27.1788C11.9026 26.8036 11.9026 26.1974 12.2922 25.8212L21.5371 16.9072C22.0995 16.3643 23.0144 16.3643 23.5777 16.9072C24.14 17.45 24.14 18.3311 23.5777 18.874L15.6691 26.5005C15.6691 26.5005 17.5991 28.3612 18.5641 29.2915C20.2353 30.9027 23.5777 34.1251 23.5777 34.1251C24.14 34.6689 24.14 35.55 23.5777 36.0928C23.0144 36.6357 22.0995 36.6357 21.5371 36.0928L12.2922 27.1788Z" fill="black"/>
</g>
</g>
<text id="&#227;&#130;&#191;&#227;&#130;&#164;&#227;&#131;&#136;&#227;&#131;&#171;" fill="black" style="white-space: pre" xml:space="preserve" font-family="Hiragino Kaku Gothic ProN" font-size="17" font-weight="300" letter-spacing="0px"><tspan x="136.5" y="32.96">&#x30a8;&#x30a2;&#x30b3;&#x30f3;&#x767b;&#x9332;</tspan></text>
</g>
<g id="Frame 9">
<g id="Frame 20">
<g id="step_indicator4" clip-path="url(#clip1_2840_8622)">
<rect id="Rectangle 220" opacity="0.1" x="85.5" y="78" width="48" height="2" fill="black"/>
<rect id="Rectangle 223" opacity="0.1" x="163.5" y="78" width="48" height="2" fill="black"/>
<rect id="Rectangle 224" opacity="0.1" x="241.5" y="78" width="48" height="2" fill="black"/>
<g id="step">
<circle id="Ellipse 4" opacity="0.1" cx="70.5" cy="79" r="15" fill="black"/>
<text id="1" fill="#4C6EE8" style="white-space: pre" xml:space="preserve" font-family="Noto Sans JP" font-size="16" font-weight="bold" letter-spacing="0px"><tspan x="65.7891" y="84.976">1</tspan></text>
</g>
<g id="step_2">
<circle id="Ellipse 4_2" opacity="0.1" cx="148.5" cy="79" r="15" fill="black"/>
<text id="1_2" fill="#4C6EE8" style="white-space: pre" xml:space="preserve" font-family="Noto Sans JP" font-size="16" font-weight="bold" letter-spacing="0px"><tspan x="143.781" y="84.4">2</tspan></text>
</g>
<g id="step_3">
<circle id="Ellipse 4_3" cx="226.5" cy="79" r="15" fill="#4C6EE8"/>
<text id="1_3" fill="white" style="white-space: pre" xml:space="preserve" font-family="Noto Sans JP" font-size="16" font-weight="bold" letter-spacing="0px"><tspan x="221.781" y="84.4">3</tspan></text>
</g>
<g id="step_4">
<circle id="Ellipse 4_4" opacity="0.1" cx="304.5" cy="79" r="15" fill="black"/>
<text id="1_4" fill="white" style="white-space: pre" xml:space="preserve" font-family="Noto Sans JP" font-size="16" font-weight="bold" letter-spacing="0px"><tspan x="299.781" y="84.4">4</tspan></text>
</g>
</g>
</g>
<g id="Frame 11">
<text id="&#230;&#142;&#165;&#231;&#182;&#154;&#230;&#150;&#185;&#230;&#179;&#149;&#227;&#129;&#174;&#233;&#129;&#184;&#230;&#138;&#158;" fill="black" style="white-space: pre" xml:space="preserve" font-family="Hiragino Kaku Gothic ProN" font-size="17" font-weight="600" letter-spacing="0px"><tspan x="20" y="131.46">&#x30a8;&#x30a2;&#x30b3;&#x30f3;&#x3068;&#x30b9;&#x30de;&#x30fc;&#x30c8;&#x30d5;&#x30a9;&#x30f3;&#x3092;&#x63a5;&#x7d9a;&#x3059;&#x308b;</tspan></text>
</g>
<g id="Frame 3">
<text id="&#227;&#129;&#148;&#228;&#189;&#191;&#231;&#148;&#168;&#227;&#129;&#174;&#227;&#131;&#171;&#227;&#131;&#188;&#227;&#130;&#191;&#227;&#131;&#188;&#227;&#129;&#174;&#228;&#187;&#149;&#230;&#167;&#152;&#227;&#129;&#171;&#229;&#144;&#136;&#227;&#130;&#143;&#227;&#129;&#155;&#227;&#129;&#166;&#230;&#169;&#159;&#229;&#153;&#168;&#231;&#153;&#187;&#233;&#140;&#178;" fill="#646464" style="white-space: pre" xml:space="preserve" font-family="Hiragino Kaku Gothic ProN" font-size="17" font-weight="300" letter-spacing="0px"><tspan x="20" y="165.46">&#x30a8;&#x30a2;&#x30b3;&#x30f3;&#x304c;&#x63a5;&#x7d9a;&#x30e2;&#x30fc;&#x30c9;&#x306b;&#x306a;&#x308a;&#x307e;&#x3057;&#x305f;&#x3002;&#10;</tspan><tspan x="20" y="187.46">&#x7d9a;&#x3044;&#x3066;&#x3001;&#x30b9;&#x30de;&#x30fc;&#x30c8;&#x30d5;&#x30a9;&#x30f3;&#x3068;&#x30a8;&#x30a2;&#x30b3;&#x30f3;&#x3092;&#x63a5;&#x7d9a;</tspan><tspan x="20" y="209.46">&#x3057;&#x307e;&#x3059;&#x3002;</tspan></text>
</g>
<g id="Frame 13">
<g id="image_adapter_connect_AP_2">
<path id="Rectangle" fill-rule="evenodd" clip-rule="evenodd" d="M20 234H355V430H20V234Z" fill="#F7F8F9"/>
<text id="&#227;&#131;&#171;&#227;&#131;&#188;&#227;&#130;&#191;&#227;&#131;&#188;" fill="#999999" style="white-space: pre" xml:space="preserve" font-family="Noto Sans JP" font-size="17" letter-spacing="0px"><tspan x="254" y="280.412">&#x7121;&#x7dda;LAN&#10;</tspan><tspan x="254" y="302.412">&#x30a2;&#x30c0;&#x30d7;&#x30bf;&#x30fc;</tspan></text>
<g id="Group 5-2">
<g id="Group-3">
<g id="Rectangle-37">
<path id="Vector" d="M233.641 256H142.359V284.5H233.641V256Z" fill="white" stroke="#999999" stroke-miterlimit="10"/>
</g>
<g id="Rectangle Copy 4-2">
<path id="Vector_2" d="M233.641 283.708H142.359V291.625H233.641V283.708Z" fill="white" stroke="#999999" stroke-miterlimit="10"/>
</g>
<path id="Rectangle Copy 2-2" d="M142 291.625H234L232.044 294H143.956L142 291.625Z" fill="#999999"/>
</g>
</g>
<g id="Group 271">
<g id="Group 2">
<rect id="Rectangle_2" x="290.5" y="343.5" width="29" height="55" rx="3.5" fill="white" stroke="#999999"/>
<rect id="Rectangle_3" x="293" y="348" width="24" height="42" rx="2" fill="#999999"/>
<circle id="Oval" cx="305" cy="394" r="2" fill="#CCCCCC"/>
<rect id="Rectangle_4" x="301" y="345" width="8" height="2" rx="1" fill="#CCCCCC"/>
</g>
<g id="Group 227">
<circle id="Oval Copy 5" cx="4" cy="4" r="4" transform="matrix(-0.707107 0.707107 0.707107 0.707107 102.656 346.912)" fill="#CCCCCC"/>
<circle id="Oval Copy 3" cx="4" cy="4" r="4" transform="matrix(-0.707107 0.707107 0.707107 0.707107 128.112 321.456)" fill="#CCCCCC"/>
<circle id="Oval Copy 2" cx="4" cy="4" r="4" transform="matrix(-0.707107 0.707107 0.707107 0.707107 140.84 308.728)" fill="#CCCCCC"/>
<circle id="Oval Copy 4" cx="4" cy="4" r="4" transform="matrix(-0.707107 0.707107 0.707107 0.707107 115.384 334.184)" fill="#CCCCCC"/>
</g>
<g id="Group 228">
<circle id="Oval Copy 5_2" cx="4" cy="4" r="4" transform="matrix(-0.707107 -0.707107 -0.707107 0.707107 240.314 314.385)" fill="#4C6EE8"/>
<circle id="Oval Copy 3_2" cx="4" cy="4" r="4" transform="matrix(-0.707107 -0.707107 -0.707107 0.707107 265.77 339.841)" fill="#4C6EE8"/>
<circle id="Oval Copy 2_2" cx="4" cy="4" r="4" transform="matrix(-0.707107 -0.707107 -0.707107 0.707107 278.498 352.569)" fill="#4C6EE8"/>
<circle id="Oval Copy 4_2" cx="4" cy="4" r="4" transform="matrix(-0.707107 -0.707107 -0.707107 0.707107 253.042 327.113)" fill="#4C6EE8"/>
</g>
</g>
<g id="Group 261">
<path id="Vector_3" d="M223.575 262H242.275C244.095 262 245.575 263.474 245.575 265.294V302.706C245.575 304.526 244.095 306 242.275 306H223.575C221.754 306 220.275 304.526 220.275 302.706V265.294C220.275 263.474 221.754 262 223.575 262Z" fill="white"/>
<g id="Group 20">
<g id="Group 2-2">
<g id="Rectangle-35">
<path id="Vector_4" d="M223.574 262H242.274C244.094 262 245.574 263.474 245.574 265.294V302.706C245.574 304.526 244.094 306 242.274 306H223.574C221.753 306 220.274 304.526 220.274 302.706V265.294C220.274 263.474 221.753 262 223.574 262Z" stroke="#999999" stroke-miterlimit="10"/>
</g>
<path id="Oval-8" d="M226.885 290.556C228.106 290.556 229.096 289.573 229.096 288.361C229.096 287.15 228.106 286.167 226.885 286.167C225.664 286.167 224.674 287.15 224.674 288.361C224.674 289.573 225.664 290.556 226.885 290.556Z" fill="#999999"/>
<path id="Oval-9" d="M238.985 290.556C240.207 290.556 241.196 289.573 241.196 288.361C241.196 287.15 240.207 286.167 238.985 286.167C237.764 286.167 236.774 287.15 236.774 288.361C236.774 289.573 237.764 290.556 238.985 290.556Z" fill="#999999"/>
</g>
</g>
<path id="Vector_5" d="M225.225 271.064C225.379 271.064 225.5 271.185 225.5 271.339V282.872C225.5 283.026 225.379 283.147 225.225 283.147H220.55V271.064H225.225ZM225.225 270.514H220V283.697H225.225C225.681 283.697 226.05 283.329 226.05 282.872V271.339C226.05 270.882 225.681 270.514 225.225 270.514Z" fill="#999999"/>
<path id="Vector_6" d="M220.55 273.825H225.775" stroke="#999999" stroke-width="0.6" stroke-miterlimit="10"/>
<path id="Vector_7" d="M220.55 277.125H225.775" stroke="#999999" stroke-width="0.6" stroke-miterlimit="10"/>
<path id="Vector_8" d="M220.55 280.425H223.839H225.775" stroke="#999999" stroke-width="0.6" stroke-miterlimit="10"/>
</g>
<g id="Group 3 Copy">
<path id="Rectangle_5" d="M60 313.5H78C79.3807 313.5 80.5 314.619 80.5 316V396.5H57.5V316C57.5 314.619 58.6193 313.5 60 313.5Z" fill="white" stroke="#999999"/>
<path id="Rectangle_6" d="M61 316.5H77C77.8284 316.5 78.5 317.172 78.5 318V397.5H59.5V318C59.5 317.172 60.1716 316.5 61 316.5Z" fill="white" stroke="#999999"/>
<g id="Group 4">
<g id="Group">
<rect id="Rectangle_7" x="62" y="321.333" width="2" height="1.33333" fill="#999999"/>
<rect id="Rectangle Copy 7" x="65" y="321" width="11" height="2" fill="#999999"/>
</g>
<rect id="Rectangle_8" x="55.5" y="396.5" width="27" height="2" fill="white" stroke="#999999" stroke-linejoin="bevel"/>
</g>
<g id="Group 4 Copy">
<g id="Group_2">
<rect id="Rectangle_9" x="62" y="326.333" width="2" height="1.33333" fill="#999999"/>
<rect id="Rectangle Copy 7_2" x="65" y="326" width="11" height="2" fill="#999999"/>
</g>
</g>
<g id="Group 4 Copy 2">
<g id="Group_3">
<rect id="Rectangle_10" x="62" y="331.333" width="2" height="1.33333" fill="#999999"/>
<rect id="Rectangle Copy 7_3" x="65" y="331" width="11" height="2" fill="#999999"/>
</g>
</g>
<g id="Group 5">
<rect id="Rectangle_11" x="65" y="374" width="8" height="8" rx="2" fill="#999999"/>
<rect id="Rectangle_12" x="63.5" y="372.5" width="11" height="11" rx="1.5" stroke="#979797"/>
</g>
</g>
<text id="&#227;&#131;&#171;&#227;&#131;&#188;&#227;&#130;&#191;&#227;&#131;&#188;_2" fill="#999999" style="white-space: pre" xml:space="preserve" font-family="Noto Sans JP" font-size="17" letter-spacing="0px"><tspan x="40" y="422.412">&#x30eb;&#x30fc;&#x30bf;&#x30fc;</tspan></text>
</g>
</g>
</g>
<g id="Frame 236">
<g id="targetObj">
<rect id="button1" x="32" y="579" width="311" height="48" rx="24" fill="#646464"/>
<text id="&#227;&#130;&#191;&#227;&#130;&#164;&#227;&#131;&#136;&#227;&#131;&#171;_2" fill="white" style="white-space: pre" xml:space="preserve" font-family="Hiragino Kaku Gothic ProN" font-size="20" font-weight="600" letter-spacing="-0.48px"><tspan x="167.74" y="610.6">&#x6b21;&#x3078;</tspan></text>
</g>
</g>
</g>
<defs>
<filter id="filter0_d_2840_8622" x="0" y="0" width="375" height="52.5" filterUnits="userSpaceOnUse" color-interpolation-filters="sRGB">
<feFlood flood-opacity="0" result="BackgroundImageFix"/>
<feColorMatrix in="SourceAlpha" type="matrix" values="0 0 0 0 0 0 0 0 0 0 0 0 0 0 0 0 0 0 127 0" result="hardAlpha"/>
<feOffset dy="0.5"/>
<feColorMatrix type="matrix" values="0 0 0 0 0 0 0 0 0 0 0 0 0 0 0 0 0 0 0.3 0"/>
<feBlend mode="normal" in2="BackgroundImageFix" result="effect1_dropShadow_2840_8622"/>
<feBlend mode="normal" in="SourceGraphic" in2="effect1_dropShadow_2840_8622" result="shape"/>
</filter>
<clipPath id="clip0_2840_8622">
<rect width="60" height="20" fill="white" transform="translate(12 16.5)"/>
</clipPath>
<clipPath id="clip1_2840_8622">
<rect width="264" height="30" fill="white" transform="translate(55.5 64)"/>
</clipPath>
</defs>
</svg>
