<svg width="375" height="667" viewBox="0 0 375 667" fill="none" xmlns="http://www.w3.org/2000/svg">
<g id="&#232;&#135;&#170;&#228;&#189;&#156;4">
<rect width="375" height="667" fill="white"/>
<g id="targetObj">
<g id="Lv2/Button/Normal Dark Grey">
<rect id="button1" x="32" y="576" width="311" height="48" rx="24" fill="#646464"/>
<text id="&#227;&#130;&#191;&#227;&#130;&#164;&#227;&#131;&#136;&#227;&#131;&#171;" fill="white" style="white-space: pre" xml:space="preserve" font-family="Hiragino Kaku Gothic ProN" font-size="20" font-weight="600" letter-spacing="-0.48px"><tspan x="109.18" y="607.6">&#x30a2;&#x30d7;&#x30ea;&#x3092;&#x8d77;&#x52d5;&#x3059;&#x308b;</tspan></text>
</g>
</g>
<text id="&#231;&#153;&#187;&#233;&#140;&#178;&#230;&#169;&#159;&#229;&#153;&#168;&#230;&#131;&#133;&#229;&#160;&#177;" fill="black" style="white-space: pre" xml:space="preserve" font-family="Hiragino Kaku Gothic Pro" font-size="17" font-weight="600" letter-spacing="0px"><tspan x="24" y="442.46">&#x767b;&#x9332;&#x6a5f;&#x5668;&#x60c5;&#x5831;</tspan></text>
<g id="MAC&#227;&#130;&#162;&#227;&#131;&#137;&#227;&#131;&#172;&#227;&#130;&#185;">
<text fill="black" style="white-space: pre" xml:space="preserve" font-family="Hiragino Kaku Gothic Pro" font-size="17" font-weight="300" letter-spacing="0px"><tspan x="65.6699" y="503.46">&#x30a2;&#x30c9;&#x30ec;&#x30b9;</tspan></text>
<text fill="black" style="white-space: pre" xml:space="preserve" font-family="Hiragino Kaku Gothic Pro" font-size="17" font-weight="300" letter-spacing="0px"><tspan x="24" y="503.46">MAC</tspan></text>
</g>
<text id="&#229;&#159;&#186;&#230;&#186;&#150;  copy" fill="#676565" style="white-space: pre" xml:space="preserve" font-family="Hiragino Kaku Gothic Pro" font-size="17" font-weight="300" letter-spacing="0px"><tspan x="196.506" y="503.46">00:00:00:00:00:00</tspan></text>
<text id="MAC&#227;&#130;&#162;&#227;&#131;&#137;&#227;&#131;&#172;&#227;&#130;&#185;_2" fill="black" style="white-space: pre" xml:space="preserve" font-family="Hiragino Kaku Gothic Pro" font-size="17" font-weight="300" letter-spacing="0px"><tspan x="24" y="529.46">ID</tspan></text>
<text id="&#229;&#159;&#186;&#230;&#186;&#150;  copy_2" fill="#676565" style="white-space: pre" xml:space="preserve" font-family="Hiragino Kaku Gothic Pro" font-size="17" font-weight="300" letter-spacing="0px"><tspan x="261.617" y="529.46">00000000</tspan></text>
<text id="&#230;&#169;&#159;&#229;&#153;&#168;&#229;&#144;&#141;&#231;&#167;&#176;" fill="black" style="white-space: pre" xml:space="preserve" font-family="Hiragino Kaku Gothic Pro" font-size="17" font-weight="300" letter-spacing="0px"><tspan x="24" y="477.46">&#x6a5f;&#x5668;&#x540d;&#x79f0;</tspan></text>
<text id="&#229;&#159;&#186;&#230;&#186;&#150;  copy_3" fill="#676565" style="white-space: pre" xml:space="preserve" font-family="Hiragino Kaku Gothic Pro" font-size="17" font-weight="300" letter-spacing="-0.408px"><tspan x="290.566" y="477.46">&#x30d5;&#x30a1;&#x30f3;1</tspan></text>
<g id="Lv1/img/bath/initial-setting_DONE">
<g id="icon/regist/initial-setting_DONE_VC">
<g id="Group-2">
<path id="Oval" d="M256.5 212C273.897 212 288 197.897 288 180.5C288 163.103 273.897 149 256.5 149C239.103 149 225 163.103 225 180.5C225 197.897 239.103 212 256.5 212Z" fill="#0872ED"/>
<path id="Path-2" fill-rule="evenodd" clip-rule="evenodd" d="M253 183.5L243 173.5L237 179.5L253 195L276.5 171.5L271 165.5L253 183.5Z" fill="white"/>
</g>
<path id="Combined-Shape" d="M254 213.908L254 291.857C254 305.743 242.743 317 228.857 317H147.143C133.257 317 122 305.743 122 291.857V210.143C122 196.257 133.257 185 147.143 185L223.3 185C225.389 200.562 238.164 212.74 254 213.908ZM196.077 257.38C191.583 255.18 187.906 257.192 187.906 261.874V296.006C187.906 300.689 191.583 302.7 196.077 300.469V300.374C196.077 300.374 196.079 300.374 196.083 300.372L196.125 300.35C197.049 299.878 211.069 292.493 211.069 278.877C211.069 265.261 197.049 257.876 196.125 257.404L196.083 257.383L196.077 257.38ZM177.126 250.906H143.183C138.5 250.906 136.489 254.583 138.72 259.077C138.72 259.077 146.137 274.069 160.217 274.069C174.297 274.069 181.714 259.077 181.714 259.077C183.82 254.583 181.714 251 177.126 250.906ZM215.783 227.932C202.167 227.932 194.782 241.951 194.31 242.875L194.286 242.923C192.18 247.417 194.286 251 198.874 251H232.911C237.594 251 239.606 247.417 237.28 242.923L237.269 242.902C236.951 242.271 229.553 227.932 215.783 227.932ZM188.094 206.183C188.094 201.5 184.417 199.489 179.923 201.72C179.923 201.72 179.921 201.721 179.917 201.723L179.875 201.744C178.951 202.216 164.931 209.601 164.931 223.217C164.931 236.833 178.951 244.218 179.875 244.69L179.917 244.712C184.417 246.82 188 244.714 188.094 240.126V206.183Z" fill="#DCDCDC"/>
</g>
</g>
<text id="&#230;&#169;&#159;&#229;&#153;&#168;&#227;&#129;&#174;&#231;&#153;&#187;&#233;&#140;&#178;&#227;&#129;&#140;&#229;&#174;&#140;&#228;&#186;&#134;&#227;&#129;&#151;&#227;&#129;&#190;&#227;&#129;&#151;&#227;&#129;&#159;&#239;&#188;&#129;" fill="black" style="white-space: pre" xml:space="preserve" font-family="Hiragino Kaku Gothic Pro" font-size="17" font-weight="600" letter-spacing="0px"><tspan x="77" y="66.46">&#x6a5f;&#x5668;&#x306e;&#x767b;&#x9332;&#x304c;&#x5b8c;&#x4e86;&#x3057;&#x307e;&#x3057;&#x305f;&#xff01;</tspan></text>
</g>
</svg>
