<svg width="375" height="652" viewBox="0 0 375 652" fill="none" xmlns="http://www.w3.org/2000/svg">
<g id="c6341_&#230;&#169;&#159;&#229;&#153;&#168;&#231;&#153;&#187;&#233;&#140;&#178;&#230;&#186;&#150;&#229;&#130;&#153;2">
<rect width="375" height="652" fill="white"/>
<g id="haeder_setting" filter="url(#filter0_d_4192_25473)">
<rect width="375" height="52" fill="#F9F9F9"/>
<g id="header">
<g id="Lv1/Icn/menu" clip-path="url(#clip0_4192_25473)">
<path id="Chevron" fill-rule="evenodd" clip-rule="evenodd" d="M12.2922 27.1788C11.9026 26.8036 11.9026 26.1974 12.2922 25.8212L21.5371 16.9072C22.0995 16.3643 23.0144 16.3643 23.5777 16.9072C24.14 17.45 24.14 18.3311 23.5777 18.874L15.6691 26.5005C15.6691 26.5005 17.5991 28.3612 18.5641 29.2915C20.2353 30.9027 23.5777 34.1251 23.5777 34.1251C24.14 34.6689 24.14 35.55 23.5777 36.0928C23.0144 36.6357 22.0995 36.6357 21.5371 36.0928L12.2922 27.1788Z" fill="black"/>
</g>
</g>
<text id="&#227;&#130;&#191;&#227;&#130;&#164;&#227;&#131;&#136;&#227;&#131;&#171;" fill="black" style="white-space: pre" xml:space="preserve" font-family="Hiragino Kaku Gothic ProN" font-size="17" font-weight="300" letter-spacing="0px"><tspan x="153.5" y="32.96">&#x6a5f;&#x5668;&#x767b;&#x9332;</tspan></text>
</g>
<g id="Frame 9" clip-path="url(#clip1_4192_25473)">
<g id="Frame 17">
<g id="step_indicator3" clip-path="url(#clip2_4192_25473)">
<rect id="Rectangle 220" opacity="0.1" x="100.5" y="78" width="72" height="2" fill="black"/>
<rect id="Rectangle 221" opacity="0.1" x="202.5" y="78" width="72" height="2" fill="black"/>
<g id="step">
<circle id="Ellipse 4" cx="85.5" cy="79" r="15" fill="#4C6EE8"/>
<text id="1" fill="white" style="white-space: pre" xml:space="preserve" font-family="Noto Sans JP" font-size="16" font-weight="bold" letter-spacing="0px"><tspan x="80.7891" y="84.976">1</tspan></text>
</g>
<g id="step_2">
<circle id="Ellipse 4_2" opacity="0.1" cx="187.5" cy="79" r="15" fill="black"/>
<text id="1_2" fill="white" style="white-space: pre" xml:space="preserve" font-family="Noto Sans JP" font-size="16" font-weight="bold" letter-spacing="0px"><tspan x="182.781" y="84.4">2</tspan></text>
</g>
<g id="step_3">
<circle id="Ellipse 4_3" opacity="0.1" cx="289.5" cy="79" r="15" fill="black"/>
<text id="1_3" fill="white" style="white-space: pre" xml:space="preserve" font-family="Noto Sans JP" font-size="16" font-weight="bold" letter-spacing="0px"><tspan x="284.781" y="84.4">3</tspan></text>
</g>
</g>
</g>
<g id="Frame 2">
<text id="&#230;&#142;&#165;&#231;&#182;&#154;&#230;&#150;&#185;&#230;&#179;&#149;&#227;&#129;&#174;&#233;&#129;&#184;&#230;&#138;&#158;" fill="black" style="white-space: pre" xml:space="preserve" font-family="Hiragino Kaku Gothic ProN" font-size="17" font-weight="600" letter-spacing="0px"><tspan x="20" y="131.46">&#x63a5;&#x7d9a;&#x624b;&#x9806;&#x306e;&#x78ba;&#x8a8d;</tspan></text>
</g>
<g id="Frame 9_2">
<text id="&#227;&#129;&#148;&#228;&#189;&#191;&#231;&#148;&#168;&#227;&#129;&#174;&#227;&#131;&#171;&#227;&#131;&#188;&#227;&#130;&#191;&#227;&#131;&#188;&#227;&#129;&#174;&#228;&#187;&#149;&#230;&#167;&#152;&#227;&#129;&#171;&#229;&#144;&#136;&#227;&#130;&#143;&#227;&#129;&#155;&#227;&#129;&#166;&#230;&#169;&#159;&#229;&#153;&#168;&#231;&#153;&#187;&#233;&#140;&#178;" fill="#646464" style="white-space: pre" xml:space="preserve" font-family="Hiragino Kaku Gothic ProN" font-size="17" font-weight="300" letter-spacing="0px"><tspan x="20" y="165.46">&#x4e8b;&#x524d;&#x306b;&#x4ee5;&#x4e0b;&#x306e;&#x6e96;&#x5099;&#x30fb;&#x78ba;&#x8a8d;&#x3092;&#x3057;&#x3066;&#x304f;&#x3060;&#x3055;&#x3044;&#x3002;</tspan></text>
<text id="&#227;&#129;&#148;&#228;&#189;&#191;&#231;&#148;&#168;&#227;&#129;&#174;&#227;&#131;&#171;&#227;&#131;&#188;&#227;&#130;&#191;&#227;&#131;&#188;&#227;&#129;&#174;&#228;&#187;&#149;&#230;&#167;&#152;&#227;&#129;&#171;&#229;&#144;&#136;&#227;&#130;&#143;&#227;&#129;&#155;&#227;&#129;&#166;&#230;&#169;&#159;&#229;&#153;&#168;&#231;&#153;&#187;&#233;&#140;&#178;_2" fill="#646464" style="white-space: pre" xml:space="preserve" font-family="Hiragino Kaku Gothic ProN" font-size="17" font-weight="300" letter-spacing="0px"><tspan x="20" y="207.46">&#x30fb;&#x63a5;&#x7d9a;&#x3057;&#x305f;&#x3044;&#x30eb;&#x30fc;&#x30bf;&#x30fc;&#x306e;&#x5834;&#x6240;&#10;</tspan><tspan x="20" y="229.46">&#x30fb;&#x30eb;&#x30fc;&#x30bf;&#x30fc;&#x306e;WPS&#x5b9f;&#x65bd;&#x65b9;&#x6cd5;</tspan></text>
</g>
<g id="Frame 4">
<text id="&#226;&#128;&#187;LED&#227;&#129;&#140;&#231;&#183;&#145;&#232;&#137;&#178;&#227;&#129;&#167;&#231;&#130;&#185;&#230;&#187;&#133;&#227;&#129;&#151;&#227;&#129;&#170;&#227;&#129;&#132;&#229;&#160;&#180;&#229;&#144;&#136;&#227;&#128;&#129;&#231;&#146;&#176;&#229;&#162;&#131;&#227;&#130;&#187;&#227;&#131;&#179;" fill="#646464" style="white-space: pre" xml:space="preserve" font-family="Hiragino Kaku Gothic ProN" font-size="15" font-weight="300" letter-spacing="0px"><tspan x="20" y="269.7">&#x203b;&#x30eb;&#x30fc;&#x30bf;&#x30fc;&#x306e;WPS&#x5b9f;&#x65bd;&#x65b9;&#x6cd5;&#x306f;&#x3001;&#x6a5f;&#x5668;&#x306b;&#x3088;&#x308a;&#x7570;&#x306a;</tspan><tspan x="20" y="289.7">&#x308a;&#x307e;&#x3059;&#x3002;&#x8a73;&#x3057;&#x304f;&#x306f;&#x3001;&#x30eb;&#x30fc;&#x30bf;&#x30fc;&#x306e;&#x53d6;&#x6271;&#x8aac;&#x660e;&#x66f8;&#x3092;&#x3054;&#x78ba;</tspan><tspan x="20" y="309.7">&#x8a8d;&#x304f;&#x3060;&#x3055;&#x3044;&#x3002;</tspan></text>
</g>
<g id="Frame 18">
<g id="image_ruter_WPS_function">
<path id="Rectangle" fill-rule="evenodd" clip-rule="evenodd" d="M20 334H355V432H20V334Z" fill="#F7F8F9"/>
<g id="Group 245">
<g id="Group">
<g id="Group_2">
<path id="Vector" d="M59 343C59 341.62 60.12 340.5 61.5 340.5H79.5C80.88 340.5 82 341.62 82 343V423.5H59V343Z" fill="white" stroke="#999999"/>
<path id="Vector_2" d="M61 345C61 344.17 61.67 343.5 62.5 343.5H78.5C79.33 343.5 80 344.17 80 345V424.5H61V345Z" fill="white" stroke="#999999"/>
<path id="Vector_3" d="M65.5 348.33H63.5V349.66H65.5V348.33Z" fill="#999999"/>
<path id="Vector_4" d="M77.5 348H66.5V350H77.5V348Z" fill="#999999"/>
<path id="Vector_5" d="M84 423.5H57V425.5H84V423.5Z" fill="white" stroke="#999999" stroke-linejoin="bevel"/>
<path id="Vector_6" d="M65.5 353.33H63.5V354.66H65.5V353.33Z" fill="#999999"/>
<path id="Vector_7" d="M77.5 353H66.5V355H77.5V353Z" fill="#999999"/>
<path id="Vector_8" d="M65.5 358.33H63.5V359.66H65.5V358.33Z" fill="#999999"/>
<path id="Vector_9" d="M77.5 358H66.5V360H77.5V358Z" fill="#999999"/>
<path id="Vector_10" d="M72.5 401H68.5C67.3954 401 66.5 401.895 66.5 403V407C66.5 408.105 67.3954 409 68.5 409H72.5C73.6046 409 74.5 408.105 74.5 407V403C74.5 401.895 73.6046 401 72.5 401Z" fill="#999999"/>
<path id="Vector_11" d="M74.5 399.5H66.5C65.6716 399.5 65 400.172 65 401V409C65 409.828 65.6716 410.5 66.5 410.5H74.5C75.3284 410.5 76 409.828 76 409V401C76 400.172 75.3284 399.5 74.5 399.5Z" stroke="#979797"/>
</g>
<g id="Group 320">
<g id="Union">
<mask id="path-27-inside-1_4192_25473" fill="white">
<path fill-rule="evenodd" clip-rule="evenodd" d="M130.142 344C126.829 344 124.142 346.686 124.142 350V377L92 383L124.142 389V416C124.142 419.314 126.829 422 130.142 422H312C315.314 422 318 419.314 318 416V350C318 346.686 315.314 344 312 344H130.142Z"/>
</mask>
<path fill-rule="evenodd" clip-rule="evenodd" d="M130.142 344C126.829 344 124.142 346.686 124.142 350V377L92 383L124.142 389V416C124.142 419.314 126.829 422 130.142 422H312C315.314 422 318 419.314 318 416V350C318 346.686 315.314 344 312 344H130.142Z" fill="white"/>
<path d="M124.142 377L124.326 377.983L125.142 377.831V377H124.142ZM92 383L91.8165 382.017V383.983L92 383ZM124.142 389H125.142V388.169L124.326 388.017L124.142 389ZM125.142 350C125.142 347.239 127.381 345 130.142 345V343C126.276 343 123.142 346.134 123.142 350H125.142ZM125.142 377V350H123.142V377H125.142ZM92.1835 383.983L124.326 377.983L123.959 376.017L91.8165 382.017L92.1835 383.983ZM124.326 388.017L92.1835 382.017L91.8165 383.983L123.959 389.983L124.326 388.017ZM125.142 416V389H123.142V416H125.142ZM130.142 421C127.381 421 125.142 418.761 125.142 416H123.142C123.142 419.866 126.276 423 130.142 423V421ZM312 421H130.142V423H312V421ZM317 416C317 418.761 314.761 421 312 421V423C315.866 423 319 419.866 319 416H317ZM317 350V416H319V350H317ZM312 345C314.761 345 317 347.239 317 350H319C319 346.134 315.866 343 312 343V345ZM130.142 345H312V343H130.142V345Z" fill="#999999" mask="url(#path-27-inside-1_4192_25473)"/>
</g>
<text id="&#227;&#131;&#171;&#227;&#131;&#188;&#227;&#130;&#191;&#227;&#131;&#188;" fill="#646464" style="white-space: pre" xml:space="preserve" font-family="Noto Sans JP" font-size="16" font-weight="bold" letter-spacing="0px"><tspan x="130" y="367.976">&#x30fb;WPS&#10;</tspan><tspan x="130" y="389.976">&#x30fb;AOSS&#10;</tspan><tspan x="130" y="411.976">&#x30fb;&#x3089;&#x304f;&#x3089;&#x304f;&#x7121;&#x7dda;&#x30b9;&#x30bf;&#x30fc;&#x30c8;</tspan></text>
</g>
</g>
</g>
</g>
</g>
<g id="Frame 4_2">
<text id="&#226;&#128;&#187;LED&#227;&#129;&#140;&#231;&#183;&#145;&#232;&#137;&#178;&#227;&#129;&#167;&#231;&#130;&#185;&#230;&#187;&#133;&#227;&#129;&#151;&#227;&#129;&#170;&#227;&#129;&#132;&#229;&#160;&#180;&#229;&#144;&#136;&#227;&#128;&#129;&#231;&#146;&#176;&#229;&#162;&#131;&#227;&#130;&#187;&#227;&#131;&#179;_2" fill="#646464" style="white-space: pre" xml:space="preserve" font-family="Hiragino Kaku Gothic ProN" font-size="15" font-weight="300" letter-spacing="0px"><tspan x="20" y="467.7">&#x203b;AOSS&#x306f;&#x682a;&#x5f0f;&#x4f1a;&#x793e;&#x30d0;&#x30c3;&#x30d5;&#x30a1;&#x30ed;&#x30fc;&#x306e;&#x5546;&#x6a19;&#x3067;&#x3059;&#x3002;&#10;</tspan><tspan x="20" y="487.7">&#x203b;&#x3089;&#x304f;&#x3089;&#x304f;&#x7121;&#x7dda;&#x30b9;&#x30bf;&#x30fc;&#x30c8;&#x306f;&#x3001;NEC&#x30d7;&#x30e9;&#x30c3;&#x30c8;&#x30d5;&#x30a9;&#x30fc;</tspan><tspan x="20" y="507.7">&#x30e0;&#x30ba;&#x682a;&#x5f0f;&#x4f1a;&#x793e;&#x306e;&#x767b;&#x9332;&#x5546;&#x6a19;&#x3067;&#x3059;&#x3002;</tspan></text>
</g>
</g>
<g id="Frame 236">
<g id="targetObj">
<rect id="button1" x="32" y="564" width="311" height="48" rx="24" fill="#646464"/>
<text id="&#227;&#130;&#191;&#227;&#130;&#164;&#227;&#131;&#136;&#227;&#131;&#171;_2" fill="white" style="white-space: pre" xml:space="preserve" font-family="Hiragino Kaku Gothic ProN" font-size="20" font-weight="600" letter-spacing="-0.48px"><tspan x="167.74" y="595.6">&#x6b21;&#x3078;</tspan></text>
</g>
</g>
</g>
<defs>
<filter id="filter0_d_4192_25473" x="0" y="0" width="375" height="52.5" filterUnits="userSpaceOnUse" color-interpolation-filters="sRGB">
<feFlood flood-opacity="0" result="BackgroundImageFix"/>
<feColorMatrix in="SourceAlpha" type="matrix" values="0 0 0 0 0 0 0 0 0 0 0 0 0 0 0 0 0 0 127 0" result="hardAlpha"/>
<feOffset dy="0.5"/>
<feColorMatrix type="matrix" values="0 0 0 0 0 0 0 0 0 0 0 0 0 0 0 0 0 0 0.3 0"/>
<feBlend mode="normal" in2="BackgroundImageFix" result="effect1_dropShadow_4192_25473"/>
<feBlend mode="normal" in="SourceGraphic" in2="effect1_dropShadow_4192_25473" result="shape"/>
</filter>
<clipPath id="clip0_4192_25473">
<rect width="60" height="20" fill="white" transform="translate(12 16.5)"/>
</clipPath>
<clipPath id="clip1_4192_25473">
<rect width="375" height="480" fill="white" transform="translate(0 52)"/>
</clipPath>
<clipPath id="clip2_4192_25473">
<rect width="234" height="30" fill="white" transform="translate(70.5 64)"/>
</clipPath>
</defs>
</svg>
